<svg width="200" height="205" viewBox="0 0 200 205" fill="none" xmlns="http://www.w3.org/2000/svg">
<path d="M200 0H0V205H200V0Z" fill="white"/>
<path fill-rule="evenodd" clip-rule="evenodd" d="M111.837 181.03C120.458 181.098 129.078 180.698 137.658 179.829L137.68 180.102C135.914 180.274 134.148 180.434 132.382 180.622C126.93 181.207 121.456 181.336 115.983 181.481C111.945 181.57 107.91 181.16 103.968 180.26C99.2582 179.211 94.4534 178.867 89.6729 178.334C80.4918 177.31 71.3854 175.829 62.4742 173.277C61.7726 173.076 60.9611 172.958 60.395 172.621C58.9907 171.786 57.3705 171.434 56.059 170.374C55.3611 169.81 54.3579 169.71 53.6347 169.021C51.6723 167.155 49.2387 166.039 46.9425 164.692C43.4011 162.615 39.795 160.493 37.2238 157.189C32.607 151.255 28.5214 144.922 26.2257 137.624C23.8499 130.071 23.5563 122.442 25.7788 114.713C26.7353 111.384 27.4654 108.015 29.287 105.033C30.2582 103.51 31.327 102.055 32.4867 100.677C33.8438 99.0006 34.9577 97.1384 36.5843 95.6629C38.8353 93.6208 41.0897 91.6096 43.5273 89.7914C46.0875 87.8833 46.9955 84.9772 47.5777 81.8965C48.2971 78.09 48.6062 74.2087 49.6686 70.4629C52.6398 59.9888 58.5214 51.7601 67.2785 45.5336C71.6987 42.3902 76.3827 39.7329 80.9633 36.8867C85.2635 34.2143 89.7745 31.8852 94.0489 29.1858C103.707 23.0882 114.089 23.0139 124.737 24.7756C129.464 25.5579 133.944 27.2694 138.376 29.1207C143.217 31.1423 148.138 32.9534 152.569 35.8906C160.536 41.1739 166.798 47.9501 170.516 57.0322C172.307 61.4055 174.092 65.7821 174.965 70.4597C175.872 75.035 175.977 79.739 175.276 84.3521C174.375 89.9934 172.733 95.465 171.79 101.093C171.616 102.17 171.535 103.261 171.548 104.352C171.562 107.236 171.186 110.122 171.472 112.998C171.818 116.478 172.355 119.938 172.693 123.417C173.176 128.735 173.113 134.091 172.504 139.396C171.958 144.393 171.006 149.335 169.658 154.17C168.878 157.063 167.756 159.847 166.317 162.46C165.633 163.683 165.331 165.343 163.766 165.935C161.122 170.449 156.571 172.47 152.437 175.031C150.625 176.153 148.617 176.856 146.715 177.776C145.166 178.524 143.553 178.481 141.987 178.81C137.714 179.712 133.349 179.953 129.004 180.301C123.297 180.759 117.575 180.902 111.837 181.03Z" fill="#F2994A"/>
<path fill-rule="evenodd" clip-rule="evenodd" d="M99.8925 0.184513C99.7672 0.220278 99.5688 0.195951 99.5888 0.0641234C99.6637 0.0246892 99.7475 -0.0158868 99.8291 0.00628796C99.9104 0.0284627 99.9635 0.149274 99.8979 0.203607L99.8925 0.184513Z" fill="#00160A"/>
<path fill-rule="evenodd" clip-rule="evenodd" d="M100.531 75.1504L100.842 75.2835C102.527 75.9953 103.802 76.3949 104.667 76.4818C105.584 76.5739 106.923 76.4036 108.685 75.9704L108.651 76.4187C108.362 80.3415 108.374 83.3028 108.685 85.3023C109.007 87.3771 109.771 89.1817 110.976 90.7156C109.622 92.2682 107.582 93.8338 110.098 101.085C111.806 106.008 108.906 123.432 108.651 138.074C108.53 145.003 109.942 151.371 110.976 155.382C113.447 164.965 117.449 173.146 121.867 176.877C124.073 178.739 127.842 180.573 126.697 181.017C118.246 184.297 85.7336 180.436 85.6 178.744C85.4774 177.19 94.2283 177.391 95.4667 170.341C97.8622 156.704 93.6907 132.176 93.8088 129.163C94.1576 120.263 96.7528 109.467 100 101.39C100.121 101.09 101.005 101.036 102.193 101.085L102.275 100.743C103.035 97.5317 103.165 95.3325 102.667 94.1457C102.089 92.7708 100.121 91.4544 96.7632 90.196C97.9654 89.4526 98.8574 87.9181 99.4395 85.5931L99.5 85.3441C100.047 83.0224 100.391 79.6246 100.531 75.1504Z" fill="white"/>
<path fill-rule="evenodd" clip-rule="evenodd" d="M101.722 124.058C102.079 119.578 102.059 117.854 102.667 113.403C102.843 112.112 102.58 101.501 100.393 103.197C99.5738 103.832 99.9002 105.249 99.5088 106.223C96.2618 114.299 94.1578 120.263 93.8088 129.163C93.6296 133.734 93.3298 138.326 93.6898 142.886C94.328 150.967 100.622 137.844 101.722 124.058Z" fill="white"/>
<path fill-rule="evenodd" clip-rule="evenodd" d="M107.404 142.543C106.536 131.875 108.653 121.224 109.754 110.578C110.108 107.156 110.352 103.647 109.514 100.315C109.066 98.5343 108.311 96.8033 108.275 94.9643C108.239 93.1253 109.219 91.068 110.976 90.7156C107.541 86.4724 106.724 80.1693 108.96 75.1504C109.112 78.0496 109.262 80.9486 109.414 83.8476C109.494 85.3908 109.613 87.0423 110.543 88.2567C111.473 89.4714 113.532 89.8721 114.425 88.6285C115.371 87.3107 117.428 87.4258 118.73 88.3702C120.033 89.3145 120.806 90.825 121.679 92.1949C123.202 94.5844 125.149 96.6765 127.339 98.4354C135.511 104.999 140.24 115.527 140.898 126.162C141.276 132.279 134.889 146.294 134.858 155.729C134.836 162.702 140.722 166.217 142.738 167.154C144.241 167.853 145.876 168.244 147.322 169.061C148.768 169.878 150.062 171.282 150.13 172.976C150.2 174.689 149.023 176.18 147.783 177.328C142.89 181.858 135.84 183.8 129.398 182.393C127.002 181.87 124.677 180.899 122.727 179.376C120.104 177.328 118.282 174.399 116.665 171.45C111.782 162.543 108.233 152.731 107.404 142.543Z" fill="white"/>
<path fill-rule="evenodd" clip-rule="evenodd" d="M92.8197 46.3165C93.7802 41.3588 95.8813 36.7184 97.9645 32.1327C98.9898 29.8758 101.185 28.2134 103.601 27.8638C102.847 28.4115 102.036 29.0451 101.85 29.969C101.663 30.8928 102.594 32.0064 103.419 31.5792C106.944 29.755 111.626 30.6602 114.251 33.6737C115.137 34.6914 115.789 35.8943 116.434 37.0858C118.599 41.0879 120.835 45.4227 120.344 49.9652C120.199 51.3174 119.923 52.9711 120.989 53.79C121.504 54.1858 121.346 55.0011 121.126 55.6191C118.874 61.9298 115.392 67.7816 110.942 72.7336C109.477 74.364 107.662 76.004 105.493 75.9699C104.114 75.9483 102.846 75.2415 101.643 74.5532C99.2298 73.1729 96.7895 71.772 94.7837 69.8294C92.7781 67.8869 91.2205 65.3132 91.0389 62.4995C90.9021 60.3765 91.5346 58.1546 90.7975 56.1642C90.4301 55.1725 89.7439 54.3194 89.4455 53.3037C89.1474 52.2883 89.433 50.9418 90.4218 50.613C92.0399 50.0754 92.4901 48.018 92.8197 46.3165Z" fill="white"/>
<path d="M113.333 64.2334C114.364 64.2334 115.2 63.3768 115.2 62.3201C115.2 61.2634 114.364 60.4067 113.333 60.4067C112.302 60.4067 111.467 61.2634 111.467 62.3201C111.467 63.3768 112.302 64.2334 113.333 64.2334Z" fill="#FFB61D"/>
<path fill-rule="evenodd" clip-rule="evenodd" d="M77.8614 180.492C78.4435 179.948 78.9931 179.434 78.7419 178.744C77.175 178.881 75.8185 180.302 75.7371 181.89C75.6561 183.478 76.8609 185.032 78.4054 185.332C90.1945 187.62 102.326 188.093 114.254 186.732C117.128 186.404 120.365 185.732 121.867 183.233C121.41 182.61 120.477 183.035 119.81 183.466L119.573 183.622C117.225 185.138 114.359 185.559 111.563 185.793L111.04 185.834C100.559 186.637 89.9806 186.135 79.6201 184.343C78.2419 184.105 76.4665 183.263 76.811 181.893C76.9483 181.346 77.4145 180.91 77.8614 180.492ZM109.427 84.0988L108.96 75.1504C106.724 80.1694 107.541 86.4725 110.976 90.7157C109.219 91.068 108.239 93.1254 108.275 94.9644C108.3 96.251 108.678 97.4848 109.056 98.72C109.218 99.25 109.38 99.7802 109.514 100.315C110.352 103.647 110.108 107.156 109.754 110.578L109.706 111.034C109.436 113.582 109.111 116.129 108.786 118.677C107.771 126.626 106.756 134.58 107.404 142.544C108.233 152.731 111.782 162.543 116.665 171.45C118.282 174.399 120.104 177.328 122.727 179.376C124.677 180.899 127.002 181.87 129.398 182.393C135.84 183.8 142.89 181.858 147.783 177.328C149.023 176.18 150.2 174.689 150.13 172.976C150.062 171.282 148.768 169.878 147.322 169.061C146.481 168.586 145.575 168.254 144.669 167.923C144.018 167.685 143.366 167.446 142.738 167.154C137.993 164.95 134.918 159.444 135.46 154.123C132.785 156.992 134.246 162.004 137.134 164.646C138.997 166.349 141.264 167.434 143.538 168.523C144.792 169.122 146.046 169.723 147.237 170.428C147.925 170.836 148.656 171.373 148.789 172.178C148.903 172.864 148.542 173.533 148.151 174.1C145.368 178.132 140.554 180.197 135.81 181.017C132.699 181.554 129.374 181.615 126.531 180.21C124.069 178.994 122.212 176.804 120.593 174.533L120.384 174.237C112.279 162.697 108.024 148.359 108.482 134.137C108.631 129.522 109.259 124.927 109.886 120.337C110.782 113.777 111.677 107.229 111.169 100.649L119.753 94.1824C120.373 93.7314 121.349 93.3665 121.724 94.0312C122.954 96.2078 124.832 97.8593 126.708 99.5088C127.359 100.081 128.009 100.653 128.633 101.247C135.583 107.868 139.297 117.642 139.62 127.375C139.943 137.107 137.074 146.772 132.463 155.28C131.274 157.473 128.248 157.448 125.824 157.131L125.76 157.122C125.568 157.096 125.372 157.058 125.219 156.937C124.888 156.676 124.908 156.178 124.983 155.745L125.003 155.638C126.491 148.033 127.917 140.319 127.482 132.575C127.047 124.831 124.558 116.94 119.202 111.473C120.928 115.019 122.435 118.678 123.712 122.419C124.708 125.34 125.567 128.327 125.929 131.399C126.541 136.605 125.712 141.795 124.88 147C124.377 150.147 123.873 153.3 123.687 156.464L123.683 156.533C123.659 156.992 123.67 157.492 123.966 157.831C124.225 158.128 124.634 158.221 125.015 158.298L125.112 158.318C127.949 158.88 131.508 159.101 132.999 156.577C138.382 147.467 141.556 136.798 140.898 126.162C140.24 115.527 135.511 104.999 127.339 98.4354L127.134 98.2695C125.027 96.5456 123.154 94.5098 121.679 92.195C121.526 91.955 121.376 91.7109 121.226 91.4663C120.519 90.3133 119.805 89.1492 118.73 88.3702C117.428 87.4258 115.371 87.3108 114.425 88.6285L114.381 88.6865C113.467 89.8593 111.458 89.4521 110.543 88.2568C109.663 87.108 109.509 85.568 109.427 84.0988ZM96.9443 90.3866C100.306 86.1149 101.495 80.1516 100.037 74.8771L98.7273 83.5131C98.4827 85.0916 98.1673 86.7242 97.1641 87.9392C96.1019 89.2255 93.9894 89.7626 92.8075 88.5902L92.7499 88.535C91.4502 87.3362 89.3841 88.3631 87.9467 89.4827L87.8198 89.5833C83.2702 93.238 78.8017 97.0898 75.2779 101.78C71.3529 107.004 68.7233 113.103 66.3446 119.229L65.9059 120.366C64.4081 124.277 63.0113 128.31 62.9361 132.502C62.8579 136.862 64.4622 141.49 67.9974 143.934C69.867 145.227 69.7705 148.02 69.4673 150.305L68.2747 159.291C67.8203 162.752 67.4406 166.367 68.6993 169.601C70.3254 173.779 74.4635 176.5 78.747 177.535C82.8595 178.528 87.1475 178.209 91.3633 177.833L98.1345 177.223C98.6206 177.178 99.1262 177.109 99.5099 176.806C99.8897 176.505 100.083 176.025 100.237 175.559C101.936 170.41 100.61 164.894 99.0961 159.594L98.2427 156.638C96.683 151.166 95.4334 145.563 95.2299 139.869C94.9409 131.779 96.7649 123.792 98.6713 115.924L103.375 96.5694C103.772 94.9384 102.832 93.2137 101.508 92.2155C100.273 91.2839 98.759 90.8507 97.2643 90.468L96.9443 90.3866ZM85.6934 93.1251C86.5342 92.415 87.7721 91.7229 88.6241 92.4188C92.0918 95.2495 96.1955 97.262 100.526 98.2559C101.141 98.3969 101.203 99.2336 101.101 99.8877L101.082 99.9948C100.258 104.35 99.1166 108.667 97.9763 112.979C95.6585 121.744 93.3459 130.489 93.7147 139.497C93.9878 146.161 95.7286 152.647 97.5766 159.058L98.315 161.608C99.4073 165.401 100.417 169.478 99.1206 173.186C98.8105 174.074 98.3342 174.958 97.5398 175.438C96.9182 175.813 96.175 175.899 95.4571 175.977L91.323 176.424C87.2753 176.859 83.1481 177.236 79.1953 176.275C75.0809 175.274 71.1193 172.526 69.7942 168.424C68.8326 165.448 69.3555 162.242 69.8638 159.126C69.8969 158.923 69.9297 158.721 69.9622 158.52L70.0198 158.16C70.6057 154.453 70.9361 150.705 71.0078 146.951C75.6745 152.339 79.6811 158.323 82.9049 164.719C83.1371 165.18 83.819 164.967 84.2502 164.694L84.5817 164.484C86.3518 163.359 88.1294 162.167 89.3673 160.462C90.6827 158.649 91.2651 156.095 90.2131 154.111L83.8019 142.02C81.4942 137.661 79.1505 132.955 79.687 128.039C80.0294 124.898 81.5225 122.037 83.0569 119.28L86.9979 112.235L86.6121 112.662C82.7566 116.949 79.0193 121.794 78.4326 127.56C77.9942 131.87 79.395 136.146 81.1545 140.1L81.3257 140.482C83.2219 144.67 85.4897 148.668 87.795 152.638L88.6606 154.125C89.6027 155.743 89.1862 157.895 88.1321 159.439C87.1457 160.883 85.699 161.911 84.2545 162.882L83.9558 163.082L81.1515 158.178C78.6955 153.889 76.1553 149.575 72.6129 146.178C71.9811 145.572 71.3169 144.994 70.6526 144.417C68.9878 142.969 67.3238 141.521 66.1774 139.637C63.1825 134.716 64.5275 128.343 66.4739 122.871L66.5939 122.537C70.639 111.375 76.7113 100.707 85.6934 93.1251ZM130.844 160.85L123.133 159.14C122.693 159.046 122.187 158.986 121.867 159.289C121.938 159.767 122.445 160.026 122.918 160.195L123.026 160.233C125.529 161.078 128.112 161.935 130.753 161.779C131.066 161.76 131.47 161.635 131.467 161.326C131.464 161.046 131.122 160.912 130.844 160.85ZM109.333 102.495L109.208 101.39C107.67 101.657 106.102 101.742 104.545 101.645L104.498 101.642C104.04 101.613 103.558 101.583 103.156 101.8C102.74 102.024 102.495 102.631 102.809 102.984C103.016 103.217 103.362 103.247 103.673 103.26L103.817 103.266C105.7 103.346 107.674 103.381 109.333 102.495ZM89.2865 90.9368C89.023 90.131 89.9763 89.3695 90.8038 89.4553C91.5065 89.528 92.1011 89.9643 92.6827 90.391C92.7038 90.4063 92.7246 90.4216 92.7457 90.4369L92.9915 90.6148C94.9307 91.9908 97.2473 92.6512 99.5531 93.2161L100.343 93.4072C101.55 93.6967 101.772 95.3019 101.713 96.5915L101.706 96.7334C101.698 96.8515 101.688 96.9772 101.617 97.0701C101.473 97.2574 101.186 97.2022 100.964 97.1286L100.734 97.0521C96.8985 95.7734 93.0449 94.2909 89.9091 91.7024C89.6529 91.4909 89.391 91.2558 89.2865 90.9368ZM103.455 27.9709L103.601 27.8638C101.185 28.2134 98.9899 29.8758 97.9646 32.1327C95.8814 36.7184 93.7803 41.3588 92.8198 46.3165C92.4902 48.018 92.0401 50.0754 90.4219 50.613L90.3611 50.6349C89.4214 50.9979 89.1537 52.3093 89.4457 53.3037C89.6089 53.8594 89.8883 54.3664 90.1678 54.874C90.3995 55.2944 90.6313 55.7151 90.7977 56.1642C91.2691 57.4373 91.1803 58.8054 91.0907 60.1816C91.0403 60.9568 90.9897 61.7344 91.039 62.4995C91.2206 65.3132 92.7782 67.8869 94.7838 69.8295C96.5955 71.584 98.7617 72.8965 100.942 74.1514L101.643 74.5532C102.846 75.2415 104.114 75.9483 105.493 75.9699C107.662 76.0041 109.477 74.3641 110.942 72.7336L111.157 72.4934C115.504 67.5928 118.91 61.8279 121.126 55.6191C121.346 55.0011 121.504 54.1858 120.989 53.79C120.09 53.0995 120.145 51.8157 120.272 50.6196L120.345 49.9652C120.822 45.5424 118.715 41.3161 116.605 37.4026L116.327 36.8873C115.716 35.7612 115.088 34.6351 114.251 33.6737C111.626 30.6602 106.944 29.755 103.419 31.5792C102.594 32.0064 101.663 30.8928 101.85 29.969C102.025 29.105 102.746 28.4943 103.455 27.9709ZM92.6654 55.6112C92.9622 53.7878 93.2606 51.9556 93.1953 50.1322C94.2614 53.2026 97.8547 55.0952 100.929 54.2055C101.255 54.1109 101.574 53.9898 101.893 53.869C102.408 53.6735 102.922 53.4787 103.464 53.3967C104.341 53.2641 105.369 53.5238 105.789 54.3197L105.832 54.3987C107.054 56.5802 110.226 56.7466 112.497 55.7219C113.67 55.1925 114.725 54.4419 115.781 53.6913C116.793 52.9711 117.806 52.2508 118.923 51.7252C119.108 52.3957 118.936 53.0894 118.778 53.7241C118.64 54.2787 118.513 54.7879 118.647 55.1971C118.731 55.079 118.81 54.9634 118.886 54.8533C119.373 54.1459 119.712 53.6528 120.16 53.9996C120.677 54.4006 120.64 55.5038 120.16 56.071C119.989 56.2719 119.789 56.4503 119.589 56.6277C119.225 56.9508 118.864 57.2717 118.693 57.7227C116.504 63.5248 113.085 68.8414 108.739 73.2029C108.206 73.7376 107.639 74.2717 106.935 74.5297C105.438 75.0791 103.824 74.2493 102.442 73.4451L101.778 73.0562C97.7857 70.6976 93.6329 67.8464 92.4705 63.3463C91.8177 60.8185 92.2401 58.2235 92.6654 55.6112ZM105.223 55.9275L105.376 55.82C105.219 54.9927 103.925 55.0552 103.298 55.6238C102.222 56.5996 102.083 58.444 103.044 59.5305C104.006 60.617 105.926 60.6938 106.933 59.6481C106.954 59.1897 106.368 58.9451 105.907 58.9904C105.762 59.0046 105.616 59.0339 105.471 59.0629C105.154 59.126 104.838 59.1889 104.535 59.0978C103.85 58.8926 103.621 57.9747 103.899 57.322C104.153 56.7256 104.686 56.306 105.223 55.9275ZM91.4985 51.3253L91.7342 51.3245C92.0769 51.3289 92.5475 51.3765 92.4705 51.7252C92.2227 52.8489 92.1097 54.159 92.0497 55.0569L91.999 55.8796C91.8526 55.9376 91.4337 55.3477 91.1923 55.0082C91.143 54.9388 91.1011 54.88 91.0705 54.839L91.039 54.7989C90.9753 54.6565 90.8891 54.4884 90.7947 54.3039C90.1985 53.1389 89.2702 51.3253 91.4985 51.3253ZM95.3454 41.5037C95.5345 40.8586 95.7491 40.1733 96.2625 39.7499C96.7761 39.3263 97.6865 39.3432 97.9747 39.9489C98.6499 41.3686 100.196 42.1208 101.687 42.5478C106.089 43.8087 111.002 43.0775 114.866 40.5866C115.619 40.1017 116.669 40.4262 117.278 41.0876C117.836 41.6939 118.105 42.5084 118.308 43.3191L118.361 43.54C118.813 45.4462 119.094 47.3948 119.2 49.353C119.217 49.664 119.223 49.9988 119.054 50.2588C118.953 50.4157 118.798 50.5272 118.647 50.6352L118.411 50.8022C117.742 51.2748 117.049 51.7291 116.267 51.948C115.392 52.1926 114.369 52.0904 113.71 51.4549L113.633 51.3819C111.965 49.8439 109.266 49.6036 107.368 50.8385C107.123 50.9973 106.887 51.1791 106.651 51.3606C106.046 51.8264 105.442 52.2916 104.704 52.3695C103.601 52.4859 102.71 51.7258 101.822 50.9692C101.509 50.7019 101.196 50.4351 100.874 50.2074C99.0961 48.949 96.5854 48.8733 94.7374 50.0224C93.4118 49.0457 93.7395 46.981 94.2078 45.3836L95.3454 41.5037ZM114.983 48.3143L109.236 47.8316C108.908 47.8059 108.561 47.7969 108.286 47.9647C107.992 48.1443 107.88 48.6136 108.167 48.8033C108.279 48.8768 108.42 48.8913 108.555 48.9036L114.384 49.4333C115.187 49.5003 116.15 49.4661 116.533 48.7989C116.137 48.4272 115.536 48.3608 114.983 48.3143ZM101.845 48.5056C101.933 48.1604 101.738 47.8073 101.507 47.5364C100.164 45.9573 97.2934 46.1306 96.1497 47.8597C95.927 48.1962 95.9267 48.8383 96.3291 48.812C97.4307 47.3811 99.911 47.3647 101.031 48.7812C101.252 49.0602 101.758 48.8506 101.845 48.5056ZM117.6 47.4656C117.694 47.3677 117.664 46.9695 117.402 46.8167C117.208 46.7035 116.66 46.6489 116.568 46.8427C116.361 47.268 117.313 47.7657 117.6 47.4656ZM117.571 46.0262C117.669 45.7789 117.204 45.0849 116.936 45.0838C116.7 45.083 116.407 45.7892 116.564 46.0221C116.724 46.2605 117.483 46.2479 117.571 46.0262ZM115.941 45.6261C116.263 45.5771 116.52 44.8525 116.267 44.6615C116.016 44.4715 115.285 44.6708 115.205 44.908C115.122 45.1529 115.596 45.6785 115.941 45.6261ZM96.3969 44.7727C96.7305 45.2483 97.5721 45.1619 97.807 44.6278C98.0417 44.0935 97.5478 43.3888 96.9795 43.4473C96.4113 43.5058 96.0635 44.2968 96.3969 44.7727ZM116.276 43.5517C116.645 43.7127 117.196 43.6731 117.228 43.2809C117.198 42.7561 116.634 42.6735 116.267 42.7378C115.973 42.7891 115.978 43.4214 116.276 43.5517ZM115.374 43.5389C115.641 43.3872 115.571 42.5604 115.274 42.4562C114.952 42.3431 114.086 42.5666 114.136 43.1043C114.186 43.6422 115.072 43.7114 115.374 43.5389ZM97.487 43.2451C97.8081 43.6056 98.4969 43.4501 98.6406 42.9848C98.7843 42.5194 98.3089 41.9855 97.8438 42.0905C97.3787 42.1955 97.1659 42.8848 97.487 43.2451ZM96.5315 42.1722C96.7883 41.9492 96.8249 41.5488 96.6753 41.3388C96.3731 40.9152 96.1203 40.9171 95.9139 41.1256C95.6569 41.3856 95.6449 41.8235 95.7481 42.2761C95.7867 42.4456 96.2702 42.3994 96.5315 42.1722ZM111.048 63.0645C110.247 64.1411 109.05 64.9125 107.744 65.1945C107.709 65.2019 107.675 65.209 107.64 65.2164C107.37 65.2724 107.093 65.3298 106.885 65.5072C106.65 65.7073 106.571 66.1285 106.819 66.3128C106.957 66.4155 107.145 66.4112 107.316 66.3953C109.543 66.1903 111.61 64.7097 112.533 62.6588C112.469 62.3344 112.027 62.2229 111.73 62.3639C111.469 62.4877 111.292 62.7302 111.12 62.9666C111.096 62.9994 111.072 63.0322 111.048 63.0645Z" fill="#00160A"/>
<path fill-rule="evenodd" clip-rule="evenodd" d="M117.349 124.726C117.929 124.349 118.616 125.09 118.779 125.781C118.943 126.471 118.966 127.302 119.528 127.707C120.104 128.122 120.877 127.829 121.565 127.692C122.253 127.556 123.202 127.822 123.2 128.55C123.199 128.729 123.134 128.902 123.067 129.067C122.472 130.535 121.627 131.893 120.585 133.061C120.805 134.003 121.142 134.915 121.585 135.768C121.882 136.338 121.217 137.023 120.594 136.993C119.971 136.963 119.452 136.515 118.947 136.135C118.442 135.754 117.81 135.409 117.219 135.614C116.708 135.791 116.404 136.317 116.07 136.755C115.735 137.194 115.213 137.607 114.702 137.428C114.085 137.212 113.999 136.345 114.093 135.675C114.216 134.798 114.455 133.938 114.8 133.127C115.045 132.554 114.644 131.889 114.146 131.536C113.647 131.184 113.044 131.005 112.572 130.615C112.1 130.224 111.798 129.475 112.159 128.973C112.335 128.729 112.622 128.605 112.901 128.51C113.829 128.194 114.818 128.073 115.792 128.157C116.164 127.235 116.536 126.314 116.908 125.392C117.01 125.139 117.125 124.871 117.349 124.726Z" fill="#FFB61D"/>
<path fill-rule="evenodd" clip-rule="evenodd" d="M89.9091 91.7029C89.6531 91.4914 89.391 91.2566 89.2864 90.9373C89.0232 90.1315 89.9763 89.37 90.8038 89.4558C91.5067 89.5288 92.1011 89.9648 92.6827 90.3915C92.7859 90.4672 92.8886 90.5426 92.9915 90.6156C95.1523 92.1487 97.7816 92.7932 100.343 93.4077C101.595 93.7081 101.787 95.4233 101.706 96.7342C101.698 96.852 101.688 96.9777 101.617 97.0706C101.473 97.2581 101.186 97.2029 100.964 97.1294C97.0528 95.8327 93.1075 94.343 89.9091 91.7029ZM89.3672 160.462C90.6827 158.65 91.2651 156.096 90.2131 154.112L83.8872 142.181C81.5526 137.778 79.144 133.016 79.687 128.039C80.0518 124.694 81.7219 121.665 83.3571 118.743L86.9979 112.236C83.0094 116.627 79.039 121.603 78.4326 127.56C77.98 132.01 79.4875 136.422 81.3259 140.482C83.459 145.194 86.0624 149.665 88.6608 154.126C89.6027 155.744 89.1862 157.896 88.132 159.439C87.0776 160.983 85.4974 162.052 83.9558 163.083L81.4459 158.693C78.8971 154.236 76.2968 149.712 72.6128 146.179C71.9811 145.573 71.3168 144.995 70.6526 144.417C68.9878 142.969 67.3238 141.522 66.1776 139.638C63.1214 134.617 64.5843 128.082 66.5939 122.537C70.639 111.376 76.7112 100.708 85.6934 93.1256C86.5342 92.4158 87.772 91.7237 88.6243 92.4193C92.0918 95.25 96.1955 97.2625 100.526 98.2564C101.175 98.4053 101.209 99.3292 101.082 99.9956C100.258 104.351 99.1168 108.667 97.9763 112.979C95.6584 121.744 93.3459 130.489 93.7147 139.498C94.0131 146.78 96.0643 153.85 98.0928 160.841C98.1347 160.986 98.1766 161.13 98.2184 161.274C99.3459 165.161 100.455 169.369 99.1208 173.187C98.8104 174.075 98.3342 174.958 97.5398 175.438C96.9182 175.814 96.175 175.9 95.4571 175.977L91.8182 176.371C87.6123 176.827 83.3094 177.276 79.1952 176.275C75.0808 175.274 71.1192 172.527 69.7942 168.425C68.8326 165.449 69.3555 162.242 69.8638 159.126C69.9166 158.803 69.9691 158.481 70.0198 158.16C70.6056 154.454 70.936 150.705 71.0078 146.952C75.6744 152.34 79.6811 158.324 82.9048 164.72C83.1371 165.18 83.819 164.968 84.2502 164.695C86.1278 163.506 88.052 162.275 89.3672 160.462Z" fill="white"/>
<path fill-rule="evenodd" clip-rule="evenodd" d="M119.843 92.5062C119.873 92.1987 119.7 91.9133 119.534 91.6559C119.047 90.8998 118.536 90.12 117.785 89.6438C117.033 89.1677 115.969 89.0849 115.321 89.7004C114.074 90.8845 112.623 91.8414 111.056 92.5138C110.025 92.9558 109.506 94.2058 109.549 95.3524C109.591 96.4991 110.079 97.5722 110.558 98.6089C110.641 98.7893 110.751 98.9921 110.943 99.026C111.103 99.0544 111.254 98.9506 111.386 98.8522C114.205 96.7368 117.024 94.6215 119.843 92.5062Z" fill="white"/>
<path fill-rule="evenodd" clip-rule="evenodd" d="M53.1269 51.1769C53.2437 51.0274 53.2952 50.8352 53.2691 50.6458C53.244 50.4542 53.1443 50.2815 52.9925 50.1667C52.9925 50.1667 51.0781 48.8052 50.9648 48.8558C50.8517 48.9066 52.5853 50.7346 52.5853 50.7346C49.3317 54.8702 43.4736 55.6464 39.2992 52.4952C35.1245 49.3439 34.116 43.3842 37.0117 38.9786L49.6907 48.7992C49.8443 48.9153 50.0608 48.8817 50.1741 48.7243C50.2875 48.5668 37.4245 38.41 37.4245 38.41C37.2744 38.2939 37.0845 38.2452 36.8987 38.2753C36.7128 38.3056 36.5469 38.412 36.4392 38.5702C33.2589 43.2871 34.3256 49.7392 38.8445 53.1217C43.3339 56.5419 49.6667 55.6795 53.1269 51.1769ZM39.892 52.3049C43.4528 55.0099 48.4117 54.6573 51.5715 51.4743C51.7085 51.3371 51.7107 51.1124 51.5765 50.9722C51.4421 50.8322 51.2221 50.8298 51.0851 50.967C48.1627 53.8933 43.5939 54.2199 40.3013 51.7381C37.0085 49.2562 35.9648 44.6992 37.8376 40.9818C37.8997 40.8687 37.8963 40.7298 37.8288 40.6197C37.7613 40.5098 37.6405 40.4461 37.5136 40.4538C37.3869 40.4617 37.2744 40.5396 37.2203 40.6571C35.1768 44.6817 36.3115 49.6276 39.892 52.3049ZM40.4795 49.86C40.4573 49.5522 40.5325 49.2458 40.6904 48.9987C40.8811 48.7218 41.1168 48.4919 41.3835 48.3225C41.888 47.998 42.1883 48.0986 42.3509 48.2399C42.8816 48.6975 42.4688 49.933 42.2224 50.3252C42.0269 50.6434 41.7144 50.8344 41.38 50.8399C41.1875 50.8412 40.9995 50.7699 40.844 50.6362C40.6325 50.4515 40.4997 50.1686 40.4795 49.86ZM41.9672 48.8495C41.6667 48.9509 41.3995 49.1572 41.2011 49.4407C41.136 49.5413 41.1048 49.6665 41.1128 49.7922C41.1181 49.8884 41.1579 49.977 41.2224 50.0366C41.3944 50.1494 41.6117 50.0817 41.7133 49.8832C41.8851 49.5768 41.9736 49.2163 41.9672 48.8495ZM44.0803 51.9269C44.3736 51.9589 44.6669 51.8654 44.8827 51.6711C45.1 51.4798 45.2371 51.2182 45.2677 50.9358C45.3192 50.4906 45.1304 49.2838 44.3981 49.204C44.168 49.1786 43.8331 49.2622 43.5 49.7919C43.3221 50.0713 43.2037 50.382 43.1509 50.7059C43.1157 50.988 43.1891 51.2726 43.3573 51.5057C43.5237 51.7405 43.7875 51.8944 44.0803 51.9269ZM44.3171 49.898C44.4981 50.1869 44.5837 50.522 44.5624 50.859C44.5515 50.9746 44.4963 51.0826 44.408 51.1616C44.3424 51.2242 44.2515 51.2553 44.1595 51.2463C44.0688 51.2332 43.988 51.1835 43.9373 51.1094C43.8696 51.0132 43.8411 50.8965 43.8568 50.7814C43.9141 50.4487 44.0747 50.1407 44.3171 49.898ZM46.7965 48.7071C47.4451 48.413 48.1933 49.3989 48.3704 49.8239V49.8228C48.6237 50.3733 48.4045 51.0345 47.88 51.3029C47.76 51.3581 47.6301 51.3865 47.4992 51.3865C47.3523 51.3857 47.2077 51.3516 47.0747 51.2862C46.8211 51.1616 46.6197 50.9437 46.5093 50.674C46.3328 50.2495 46.1483 49.0012 46.7965 48.7071ZM47.3573 50.6444C47.4357 50.6846 47.5267 50.6885 47.6077 50.6548C47.7885 50.5422 47.8509 50.2995 47.7485 50.1071C47.5995 49.7949 47.3635 49.5374 47.0717 49.3688C46.9912 49.7075 47.0109 50.0642 47.1285 50.3908C47.1725 50.5018 47.2539 50.5922 47.3573 50.6444ZM39.0032 42.6486C38.728 42.6128 38.4504 42.688 38.2229 42.8602C37.9936 43.0307 37.8437 43.3011 37.8115 43.6012C37.7717 44.2282 38.2053 44.7724 38.7813 44.8181C38.832 44.8241 38.8829 44.8268 38.9341 44.8265C39.4429 44.8265 40.4016 44.6016 40.4723 43.9262C40.5464 43.1751 39.4379 42.7017 39.0032 42.6486ZM38.8544 44.0951C38.6464 44.0918 38.4789 43.9087 38.4763 43.6824C38.4888 43.5892 38.5376 43.5063 38.6101 43.4547C38.6869 43.397 38.7781 43.3667 38.8715 43.368C38.8909 43.368 38.9104 43.368 38.9304 43.3716C39.2557 43.4304 39.5568 43.5955 39.7941 43.8447C39.5112 44.0301 39.1832 44.1172 38.8536 44.0951H38.8544ZM38.4245 47.5C38.3096 47.2349 38.3155 46.9323 38.4405 46.6718C38.5627 46.4111 38.7752 46.2044 39.0384 46.0907C39.4517 45.9084 40.6693 45.7228 40.9565 46.3859C41.2435 47.0487 40.2824 47.8223 39.8677 48.0043C39.7165 48.0713 39.5531 48.1063 39.3877 48.1065C39.2691 48.1065 39.1509 48.088 39.0379 48.0513C38.7635 47.9666 38.5395 47.7652 38.4245 47.5ZM39.9597 46.618C39.7397 46.6141 39.5211 46.6516 39.3149 46.7287H39.316C39.2075 46.7735 39.1189 46.8571 39.0677 46.9635C39.0253 47.0433 39.0216 47.1384 39.0573 47.2212C39.0933 47.304 39.1648 47.3658 39.2517 47.3888C39.364 47.4229 39.4845 47.4147 39.5912 47.3658C39.8957 47.2127 40.1469 46.97 40.3117 46.6699C40.1989 46.6292 40.0792 46.6114 39.9597 46.618Z" fill="#FFB61D"/>
<path fill-rule="evenodd" clip-rule="evenodd" d="M164.206 154.497C164.09 154.348 164.038 154.156 164.064 153.966C164.089 153.775 164.189 153.602 164.341 153.487C164.341 153.487 166.255 152.126 166.369 152.176C166.482 152.227 164.748 154.055 164.748 154.055C168.002 158.19 173.86 158.967 178.034 155.816C182.209 152.664 183.217 146.704 180.322 142.299L167.643 152.119C167.489 152.236 167.273 152.202 167.159 152.045C167.046 151.887 179.909 141.73 179.909 141.73C180.059 141.614 180.249 141.566 180.435 141.596C180.621 141.626 180.786 141.732 180.894 141.891C184.074 146.607 183.008 153.059 178.489 156.442C173.999 159.862 167.667 159 164.206 154.497ZM177.441 155.625C173.881 158.33 168.922 157.978 165.762 154.795C165.625 154.657 165.623 154.433 165.757 154.292C165.891 154.153 166.111 154.15 166.248 154.287C169.171 157.214 173.739 157.54 177.032 155.058C180.325 152.577 181.369 148.019 179.496 144.302C179.434 144.189 179.437 144.05 179.505 143.94C179.572 143.83 179.693 143.766 179.82 143.774C179.946 143.782 180.059 143.86 180.113 143.977C182.157 148.002 181.022 152.948 177.441 155.625ZM176.854 153.18C176.876 152.873 176.801 152.566 176.643 152.319C176.452 152.042 176.217 151.812 175.95 151.643C175.445 151.318 175.145 151.419 174.982 151.56C174.452 152.018 174.865 153.253 175.111 153.646C175.306 153.964 175.619 154.155 175.953 154.16C176.146 154.162 176.334 154.09 176.489 153.957C176.701 153.772 176.834 153.489 176.854 153.18ZM175.366 152.17C175.667 152.271 175.934 152.478 176.132 152.761C176.197 152.862 176.229 152.987 176.221 153.113C176.215 153.209 176.175 153.297 176.111 153.357C175.939 153.47 175.722 153.402 175.62 153.204C175.448 152.897 175.36 152.537 175.366 152.17ZM173.253 155.247C172.96 155.279 172.666 155.186 172.451 154.991C172.233 154.8 172.096 154.538 172.066 154.256C172.014 153.811 172.203 152.604 172.935 152.524C173.165 152.499 173.5 152.583 173.833 153.112C174.011 153.392 174.13 153.702 174.182 154.026C174.218 154.308 174.144 154.593 173.976 154.826C173.81 155.061 173.546 155.215 173.253 155.247ZM173.016 153.218C172.835 153.507 172.75 153.842 172.771 154.179C172.782 154.295 172.837 154.403 172.925 154.482C172.991 154.545 173.082 154.576 173.174 154.567C173.265 154.554 173.345 154.504 173.396 154.43C173.464 154.333 173.492 154.217 173.477 154.102C173.419 153.769 173.259 153.461 173.016 153.218ZM170.537 152.027C169.888 151.733 169.14 152.719 168.963 153.144V153.143C168.71 153.694 168.929 154.355 169.453 154.623C169.573 154.678 169.703 154.707 169.834 154.707C169.981 154.706 170.126 154.672 170.259 154.607C170.512 154.482 170.714 154.264 170.824 153.994C171.001 153.57 171.185 152.321 170.537 152.027ZM169.976 153.965C169.898 154.005 169.807 154.009 169.726 153.975C169.545 153.863 169.482 153.62 169.585 153.427C169.734 153.115 169.97 152.858 170.262 152.689C170.342 153.028 170.322 153.384 170.205 153.711C170.161 153.822 170.079 153.913 169.976 153.965ZM178.33 145.969C178.605 145.933 178.883 146.008 179.11 146.181C179.34 146.351 179.49 146.621 179.522 146.922C179.562 147.549 179.128 148.093 178.552 148.138C178.501 148.144 178.45 148.147 178.399 148.147C177.89 148.147 176.932 147.922 176.861 147.247C176.787 146.495 177.895 146.022 178.33 145.969ZM178.479 147.415C178.687 147.412 178.854 147.229 178.857 147.003C178.845 146.909 178.796 146.827 178.723 146.775C178.646 146.717 178.555 146.687 178.462 146.688C178.442 146.688 178.423 146.688 178.403 146.692C178.078 146.751 177.777 146.916 177.539 147.165C177.822 147.35 178.15 147.438 178.48 147.415H178.479ZM178.909 150.82C179.024 150.555 179.018 150.253 178.893 149.992C178.771 149.731 178.558 149.525 178.295 149.411C177.882 149.229 176.664 149.043 176.377 149.706C176.09 150.369 177.051 151.143 177.466 151.325C177.617 151.392 177.78 151.427 177.946 151.427C178.064 151.427 178.182 151.408 178.295 151.372C178.57 151.287 178.794 151.085 178.909 150.82ZM177.374 149.938C177.594 149.934 177.812 149.972 178.018 150.049H178.017C178.126 150.094 178.214 150.177 178.266 150.284C178.308 150.364 178.312 150.459 178.276 150.542C178.24 150.624 178.169 150.686 178.082 150.709C177.969 150.743 177.849 150.735 177.742 150.686C177.438 150.533 177.186 150.29 177.022 149.99C177.134 149.95 177.254 149.932 177.374 149.938Z" fill="#FFB61D"/>
<path d="M97.3333 65.6001C98.3643 65.6001 99.2 64.7435 99.2 63.6868C99.2 62.6301 98.3643 61.7734 97.3333 61.7734C96.3024 61.7734 95.4667 62.6301 95.4667 63.6868C95.4667 64.7435 96.3024 65.6001 97.3333 65.6001Z" fill="#FFB61D"/>
<path fill-rule="evenodd" clip-rule="evenodd" d="M92.7366 159.408C92.9737 160.014 92.1955 162.829 90.1651 164.846C88.1345 166.863 85.4985 167.341 85.2825 166.789C85.0665 166.236 88.0206 165.149 89.8851 163.18C91.7497 161.211 92.4995 158.802 92.7366 159.408Z" fill="#00160A"/>
</svg>
