<svg width="93" height="84" viewBox="0 0 93 84" fill="none" xmlns="http://www.w3.org/2000/svg">
<path d="M93 -5H0V84H93V-5Z" fill="white"/>
<path fill-rule="evenodd" clip-rule="evenodd" d="M32.5164 74.9073C40.0268 72.4439 47.3677 67.4638 60.275 69.4632C73.1823 71.4625 82.0973 55.1626 77.3259 47.1661C75.2069 44.5837 73.7022 41.1798 77.3259 35.7353C80.7132 25.467 74.1973 19.0201 68.1893 15.9843C62.1814 12.9483 47.5472 6.64112 35.2856 11.0619C23.0239 15.4827 18.0509 22.4268 17.2376 27.2467C16.4242 32.0666 19.674 32.5378 20.2554 40.1615C20.8368 47.7852 12.8295 60.3518 16.0855 67.2661C19.3415 74.1804 25.0058 77.3707 32.5164 74.9073Z" fill="#F2994A"/>
<path fill-rule="evenodd" clip-rule="evenodd" d="M66.3745 68.1431C66.1077 67.7634 65.6663 67.5383 65.2605 67.2963C64.2203 66.676 63.3222 65.8639 62.436 65.0539C60.5894 63.366 58.7595 61.6614 56.9464 59.9406C56.49 59.5074 56.0318 59.07 55.6639 58.5654C54.8213 57.4096 53.7472 56.4089 52.5173 55.6339C52.3419 55.5233 52.1527 55.414 51.9429 55.4058C51.6933 55.3958 51.4649 55.5299 51.2574 55.6632C49.6449 56.6982 48.207 57.9818 47.0161 59.4495C46.8691 59.6307 46.718 59.8398 46.7454 60.0677C46.7658 60.2362 46.8806 60.3786 46.9917 60.5108C48.3888 62.1716 49.8932 63.7497 51.4933 65.2332C51.9276 65.6358 52.3703 66.0327 52.7553 66.4791C53.2873 67.0956 53.7007 67.7963 54.1784 68.4522C56.3841 71.4807 59.9089 73.4536 63.6053 74.5086C64.0615 74.6388 64.5379 74.7576 65.0089 74.6905C66.0577 74.5411 66.773 73.3243 66.3617 72.389C66.0674 71.7194 66.2876 70.9574 66.4752 70.2534C66.6628 69.5494 66.7983 68.7458 66.3745 68.1431Z" fill="white"/>
<path fill-rule="evenodd" clip-rule="evenodd" d="M67.0714 50.1442C67.4543 49.332 68.3558 48.7695 69.2868 48.7618C69.7409 48.758 70.1856 48.8743 70.6233 48.9898C72.5484 49.4974 74.4735 50.0051 76.3985 50.5126C76.8995 50.6448 77.4103 50.7812 77.8418 51.0582C78.2733 51.3355 78.6195 51.7829 78.6264 52.2803C78.6307 52.6064 78.4921 52.9179 78.3373 53.2084C78.1263 53.6047 77.868 53.9963 77.4809 54.2424C76.6978 54.7404 75.6569 54.5088 74.7536 54.2599C72.6525 53.6808 70.5486 53.1007 68.5066 52.3531C67.8446 52.1108 67.1068 51.7635 66.9376 51.1046C66.8557 50.7851 66.9299 50.4441 67.0714 50.1442Z" fill="white"/>
<path fill-rule="evenodd" clip-rule="evenodd" d="M40.8295 66.5216C41.6897 66.0826 42.9 66.4903 43.2836 67.348C43.5347 67.9099 43.4512 68.5507 43.3632 69.156C43.1288 70.7671 42.8944 72.3784 42.6602 73.9895C42.6121 74.32 42.5636 74.6523 42.4604 74.9711C42.2628 75.5817 41.8448 76.1438 41.2509 76.4363C40.657 76.7288 39.8832 76.7115 39.3588 76.3156C38.966 76.0191 38.7478 75.55 38.6698 75.0771C38.5918 74.6041 38.6399 74.1212 38.6944 73.6453C38.8727 72.0879 39.1186 70.5377 39.4312 68.9999C39.6252 68.0455 39.9328 66.979 40.8295 66.5216Z" fill="white"/>
<path fill-rule="evenodd" clip-rule="evenodd" d="M20.2436 34.455C20.1477 34.334 20.3117 34.1816 20.4528 34.1116C22.069 33.3105 23.7034 32.543 25.3544 31.8097C25.7859 31.6181 26.2255 31.4268 26.6958 31.3578C27.1661 31.289 27.6787 31.357 28.0505 31.6409C28.4914 31.9772 28.6576 32.5492 28.6851 33.0881C28.7076 33.5334 28.6387 34.0137 28.3268 34.3448C28.1835 34.4968 27.9988 34.6066 27.8162 34.7131C26.1308 35.6953 24.3839 36.5808 22.5878 37.363C22.0445 37.5996 21.4178 37.8286 20.8696 37.6026C20.6639 37.5177 20.4895 37.3741 20.3432 37.2118C19.6649 36.4593 19.6213 35.2505 20.2436 34.455Z" fill="white"/>
<path fill-rule="evenodd" clip-rule="evenodd" d="M36.3702 18.9096C36.2693 19.6772 36.6398 20.4851 37.2983 20.9338C37.6093 21.1456 37.7238 21.5503 37.6744 21.9124C37.6251 22.2746 37.4396 22.6052 37.2501 22.9223C37.108 23.1601 36.9552 23.4028 36.7224 23.5619C36.4894 23.7212 36.1541 23.7755 35.9192 23.6189C35.0184 23.0181 33.7976 23.2528 32.7333 23.5116C32.3805 23.5974 32.0374 23.3656 31.7536 23.1476C31.3932 22.8708 31.033 22.5941 30.6728 22.3173C30.5434 22.218 30.4104 22.1143 30.3345 21.9732C30.2404 21.7982 30.2475 21.5901 30.2708 21.3946C30.3873 20.4153 30.8493 19.5064 31.3528 18.6466C31.8727 17.7584 32.6001 16.803 33.661 16.7277C33.9377 16.7081 34.2438 16.7671 34.4191 16.9729C34.7303 17.3384 35.2107 17.5218 35.6257 17.776C36.0406 18.0301 36.4317 18.4418 36.3702 18.9096Z" fill="white"/>
<path fill-rule="evenodd" clip-rule="evenodd" d="M30.1188 21.0515C29.8062 21.3165 29.3532 21.3867 28.9407 21.3254C28.528 21.2642 28.1453 21.0866 27.7741 20.9039C25.8224 19.9432 23.983 18.7738 22.3011 17.4246C22.172 17.321 22.0414 17.2137 21.9556 17.075C21.8548 16.9121 21.8239 16.7189 21.8045 16.5304C21.5969 14.5201 22.5528 12.435 24.2392 11.22C24.9269 10.7244 25.9094 10.3764 26.6215 10.8392C28.2466 11.8953 29.8389 12.998 31.3951 14.1453C32.0754 14.6468 32.7638 15.1728 33.2077 15.8762C33.3603 16.1181 33.4701 16.4577 33.2634 16.6593C33.0066 15.8973 29.0726 21.1183 30.1188 21.0515Z" fill="white"/>
<path fill-rule="evenodd" clip-rule="evenodd" d="M18.4734 70.5699C17.6155 70.867 16.4585 70.5256 16.226 69.6814C15.8374 68.2697 17.9796 67.5482 18.7799 66.3056C19.7299 64.8305 18.5912 62.9676 17.4724 61.6054C16.6785 62.2404 15.5221 62.8932 14.7044 62.2863C13.7143 61.5514 14.5474 60.0152 15.5572 59.3052C17.3682 58.0317 19.6841 57.4336 21.9187 57.6623C22.4877 53.6074 24.6642 49.7782 27.9123 47.118C31.1603 44.4579 35.4499 42.9914 39.7239 43.0798C39.2461 35.1489 44.0508 27.1509 51.4528 23.5554C52.2563 23.1651 53.1166 22.8167 54.0176 22.8218C54.9187 22.8271 55.8701 23.266 56.2121 24.0638C56.5541 24.8617 56.0238 25.9565 55.1259 26.0294C54.7077 26.0633 51.0793 27.2996 51.4528 27.2214C56.2121 26.2254 67.6038 34.1704 73.7369 34.1704C74.2874 34.1704 75.7166 32.2274 76.104 31.9675C76.4598 31.729 77.4391 31.5939 77.8672 31.6644C78.9832 31.8479 78.9049 33.4249 78.4248 34.4064C75.5618 40.2605 69.1474 43.9443 62.5534 45.3433C55.9596 46.7425 49.1059 46.1894 42.3773 45.6294C41.9116 50.2347 41.2542 55.2429 37.8112 58.491C34.5379 61.5791 29.3604 62.2581 24.9291 61.0898C24.9291 60.4533 24.9291 60.4533 24.9669 58.7104C24.1982 62.328 22.653 65.7928 20.4551 68.8266C19.9352 69.5441 19.3312 70.2728 18.4734 70.5699Z" fill="white"/>
<path d="M64.9276 14.4688C64.6556 14.8078 64.3834 15.147 64.1113 15.4861C63.9644 15.6692 63.6767 15.8616 63.5203 15.6858C63.2465 15.3781 62.7404 15.4647 62.3268 15.383C62.059 15.3299 61.8167 15.1977 61.5795 15.0676C58.1496 13.1847 54.7198 11.3018 51.29 9.41892C51.0189 9.27011 50.7254 9.09519 50.6355 8.80885C51.4186 7.49723 52.7405 5.69051 52.816 5.73418C53.6387 6.30146 54.4761 6.84902 55.3274 7.37619C58.0283 9.04844 60.8629 10.5123 63.6205 12.0975C63.8889 12.2517 64.183 12.4431 64.233 12.7389C64.2715 12.9666 64.0969 13.5305 64.2617 13.4213C64.3504 13.3624 64.4704 13.4153 64.5631 13.4683C64.843 13.6285 65.1643 13.8724 65.0965 14.1777C65.0721 14.2872 64.9989 14.3799 64.9276 14.4688Z" fill="white"/>
<path fill-rule="evenodd" clip-rule="evenodd" d="M50.6807 27.5454C50.8751 27.5149 51.0511 27.3904 51.1383 27.2212C52.5853 27.358 54.0197 27.6168 55.4194 27.9936C58.5873 28.8462 61.5436 30.2913 64.4195 31.8219C67.3651 33.3895 70.6745 34.3268 74.0372 34.546C74.0626 34.7219 73.9076 34.8844 73.731 34.939C73.5544 34.9936 73.3631 34.9672 73.1797 34.9402C70.3918 34.5295 67.5171 34.0889 65.1246 32.6593C62.6831 31.2004 60.0898 29.9744 57.3954 29.0053C56.7005 28.7553 55.9984 28.5224 55.2854 28.3242C53.7856 27.9073 52.2388 27.6458 50.6807 27.5454Z" fill="black"/>
<path fill-rule="evenodd" clip-rule="evenodd" d="M67.0714 50.1442C67.4543 49.332 68.3558 48.7695 69.2868 48.7618C69.7409 48.758 70.1856 48.8743 70.6233 48.9898C72.5484 49.4974 74.4735 50.0051 76.3985 50.5126C76.8995 50.6448 77.4103 50.7812 77.8418 51.0582C78.2733 51.3355 78.6195 51.7829 78.6264 52.2803C78.6307 52.6064 78.4921 52.9179 78.3373 53.2084C78.1263 53.6047 77.868 53.9963 77.4809 54.2424C76.6978 54.7404 75.6569 54.5088 74.7536 54.2599C72.6525 53.6808 70.5486 53.1007 68.5066 52.3531C67.8446 52.1108 67.1068 51.7635 66.9376 51.1046C66.8557 50.7851 66.9299 50.4441 67.0714 50.1442ZM72.007 52.3919C71.9498 52.7691 72.0313 53.2701 72.4217 53.3451C73.3706 53.5275 74.3106 53.7528 75.2372 54.0202C75.8286 54.1908 76.4758 54.3771 77.046 54.1499C77.4739 53.9792 77.7718 53.6052 78.0248 53.2334C78.3131 52.8099 78.5749 52.2631 78.318 51.8214C78.1464 51.5261 77.7941 51.3795 77.4644 51.2587C76.1997 50.7948 74.9026 50.4116 73.5849 50.1126C73.1927 50.0236 72.8444 50.3659 72.6373 50.6969C72.3132 51.2148 72.0975 51.7946 72.007 52.3919Z" fill="black"/>
<path fill-rule="evenodd" clip-rule="evenodd" d="M31.7271 14.8278C31.6296 14.7731 31.5242 14.7217 31.4111 14.7208C31.2893 14.7198 31.1764 14.7775 31.0709 14.8359C29.0437 15.9579 27.5796 17.9694 27.1828 20.178C28.0047 20.8009 29.0726 21.1188 30.1188 21.052C29.8062 21.317 29.3532 21.3872 28.9407 21.3259C28.528 21.2647 28.1453 21.0871 27.7741 20.9044C25.8224 19.9437 23.983 18.7743 22.3011 17.4251C22.172 17.3215 22.0414 17.2142 21.9556 17.0755C21.8548 16.9125 21.8239 16.7194 21.8045 16.5309C21.5969 14.5206 22.5528 12.4355 24.2392 11.2205C24.9269 10.7249 25.9094 10.3769 26.6215 10.8397C28.2466 11.8958 29.8389 12.9985 31.3951 14.1458C32.0754 14.6473 32.7638 15.1733 33.2077 15.8767C33.3603 16.1186 33.4701 16.4582 33.2634 16.6598C33.0066 15.8978 32.4487 15.2327 31.7271 14.8278ZM23.1025 12.7433C22.8712 13.0359 22.6423 13.3355 22.4939 13.6737C22.3243 14.0599 22.2661 14.4811 22.2094 14.8965C22.1074 15.6458 22.0294 16.4858 22.5162 17.0807C22.6904 17.2936 22.9233 17.4541 23.153 17.6117C24.1788 18.316 25.2048 19.0203 26.2308 19.7245C26.3534 19.8087 26.4827 19.8955 26.6323 19.9146C26.7818 19.9337 26.956 19.8598 26.9911 19.7193C27.5253 17.5799 29.008 15.6732 30.9958 14.569C31.1229 14.4984 31.0159 14.3138 30.9038 14.2229C29.9035 13.4121 28.8411 12.6718 27.7277 12.0097C27.6656 11.9727 27.6 11.935 27.5269 11.9306C27.4328 11.9249 27.346 11.9754 27.2668 12.0246C26.2878 12.6311 25.3474 13.3202 24.6246 14.1962C23.9018 15.0721 23.4072 16.1539 23.4136 17.2701C23.3612 17.3599 23.2308 17.2383 23.2135 17.1367C23.0724 16.3097 23.4379 15.4793 23.8983 14.7666C24.6984 13.5282 25.8141 12.4781 27.1212 11.7332C26.7311 11.0312 25.6968 10.8616 24.9284 11.1636C24.1598 11.4657 23.6036 12.1093 23.1025 12.7433Z" fill="black"/>
<path fill-rule="evenodd" clip-rule="evenodd" d="M43.2836 67.348C43.5347 67.9099 43.4512 68.5507 43.3632 69.156L42.6602 73.9895C42.6121 74.32 42.5636 74.6523 42.4604 74.9711C42.2628 75.5817 41.8448 76.1438 41.2509 76.4363C40.657 76.7288 39.8832 76.7115 39.3588 76.3156C38.966 76.0191 38.7478 75.55 38.6698 75.0771C38.5918 74.6041 38.6399 74.1212 38.6944 73.6453C38.8727 72.0879 39.1186 70.5377 39.4312 68.9999L39.4513 68.9025C39.6468 67.9738 39.9632 66.9635 40.8295 66.5216C41.6897 66.0826 42.9 66.4903 43.2836 67.348ZM39.5665 71.565L39.5667 71.5628C39.5076 71.5919 39.447 71.6234 39.3846 71.6574C39.3139 72.0842 39.2512 72.5121 39.1999 72.9416C39.13 73.5261 39.0816 74.1133 39.0642 74.7014L39.0623 74.7805C39.0594 74.9793 39.0718 75.1825 39.1722 75.3543C39.3246 75.615 39.6418 75.7415 39.9442 75.8153C40.4267 75.9332 40.9713 75.9552 41.3907 75.6983C41.8972 75.3879 42.0779 74.7714 42.1921 74.2063C42.2975 73.685 42.3802 73.1596 42.44 72.6317L42.4474 72.5611C42.4635 72.3957 42.4663 72.2252 42.3894 72.0781C42.3187 71.9429 42.189 71.8451 42.0558 71.7636C42.0133 71.7373 41.9698 71.7125 41.9256 71.6889C41.5845 71.5732 41.5845 71.3947 40.8959 71.3799C40.4443 71.3702 39.9833 71.3947 39.5665 71.565Z" fill="black"/>
<path fill-rule="evenodd" clip-rule="evenodd" d="M20.2436 34.455C20.1477 34.334 20.3117 34.1816 20.4528 34.1116C22.069 33.3105 23.7034 32.543 25.3544 31.8097C25.7859 31.6181 26.2255 31.4268 26.6958 31.3578C27.1661 31.289 27.6787 31.357 28.0505 31.6409C28.4914 31.9772 28.6576 32.5492 28.6851 33.0881C28.7076 33.5334 28.6387 34.0137 28.3268 34.3448C28.1835 34.4968 27.9988 34.6066 27.8162 34.7131C26.1308 35.6953 24.3839 36.5808 22.5878 37.363C22.0445 37.5996 21.4178 37.8286 20.8696 37.6026C20.6639 37.5177 20.4895 37.3741 20.3432 37.2118C19.6649 36.4593 19.6213 35.2505 20.2436 34.455ZM28.1969 32.3201C28.0758 32.0009 27.7595 31.7721 27.4157 31.6882C27.0718 31.6043 26.705 31.6503 26.368 31.7564C26.1147 31.8361 25.8741 31.9486 25.6345 32.0606C25.22 32.2545 24.8053 32.4484 24.3907 32.6423C24.264 32.7016 24.1316 32.7652 24.0503 32.8756C23.9926 32.9538 23.966 33.0485 23.9403 33.141C23.841 33.4995 23.741 33.872 23.8094 34.2369C23.9106 34.7766 24.3537 35.1889 24.7737 35.5618C24.8533 35.6326 24.9384 35.706 25.0445 35.7283C25.1855 35.758 25.3269 35.6909 25.4542 35.626C26.047 35.3238 26.6397 35.0214 27.2324 34.7192C27.6891 34.4862 28.1812 34.2162 28.3654 33.7532C28.5483 33.2938 28.3723 32.7823 28.1969 32.3201Z" fill="black"/>
<path fill-rule="evenodd" clip-rule="evenodd" d="M48.0498 3.42188C48.1109 3.33467 48.237 3.30753 48.3444 3.32954C48.4517 3.35155 48.5449 3.41288 48.635 3.47288C49.2702 3.89601 49.9055 4.31913 50.5407 4.74226C50.647 4.81304 50.7622 4.89675 50.7836 5.01895C50.7373 5.11825 50.5808 5.07122 50.4868 5.00999C49.6745 4.48062 48.8621 3.95125 48.0498 3.42188Z" fill="black"/>
<path fill-rule="evenodd" clip-rule="evenodd" d="M55.9477 9.90864C55.8506 9.89618 55.8759 9.75437 55.9278 9.67498C56.1224 9.37772 56.3168 9.08046 56.5112 8.7832C56.5794 8.79543 56.5704 8.89178 56.5424 8.95242C56.385 9.2924 56.1849 9.61423 55.9477 9.90864Z" fill="black"/>
<path fill-rule="evenodd" clip-rule="evenodd" d="M46.8984 59.2123C48.0745 57.9102 49.3955 56.7282 50.8318 55.6925C51.1639 55.453 51.5259 55.2127 51.9408 55.1853C52.5993 55.1419 53.1474 55.6347 53.6033 56.0913C54.8034 57.2929 56.0033 58.4944 57.2034 59.6961C58.6187 61.1132 60.0347 62.531 61.5207 63.8802C63.1124 65.3255 64.7898 66.6957 66.6391 67.8258C67.2056 68.1719 67.2491 68.9579 67.0659 69.5767C66.8827 70.1956 66.5363 70.7869 66.5422 71.4301C66.5447 71.7023 66.6111 71.9696 66.6547 72.2388C66.7812 73.0196 66.6989 73.8666 66.2282 74.5159C65.7577 75.1652 64.8345 75.5464 64.0672 75.2543C61.0837 74.1187 58.0189 72.934 55.7054 70.8035C55.1306 70.2742 54.6108 69.6935 54.0919 69.1138C51.6537 66.3898 49.2154 63.6659 46.7772 60.9419C46.6176 60.7636 46.4525 60.575 46.4008 60.3454C46.307 59.9294 46.6076 59.5342 46.8984 59.2123ZM66.3746 68.143C66.1077 67.7634 65.6664 67.5383 65.2605 67.2962C64.2203 66.676 63.3223 65.8639 62.4361 65.0537C60.5895 63.3659 58.7596 61.6614 56.9465 59.9406C56.49 59.5074 56.0318 59.07 55.6639 58.5653C54.8214 57.4095 53.7473 56.4089 52.5173 55.6337C52.342 55.5233 52.1528 55.414 51.9429 55.4057C51.6933 55.3958 51.4649 55.5299 51.2575 55.663C49.645 56.6982 48.2071 57.9818 47.0162 59.4493C46.8691 59.6307 46.7181 59.8398 46.7455 60.0677C46.7658 60.2362 46.8806 60.3786 46.9917 60.5107C48.3889 62.1716 49.8931 63.7497 51.4933 65.2332C51.9277 65.6358 52.3704 66.0327 52.7554 66.479C53.2874 67.0955 53.7008 67.7962 54.1784 68.4522C56.3841 71.4806 59.9089 73.4536 63.6054 74.5086C64.0616 74.6388 64.538 74.7576 65.0089 74.6905C66.0577 74.5411 66.7731 73.3243 66.3618 72.3889C66.0674 71.7192 66.2876 70.9573 66.4753 70.2533C66.6627 69.5494 66.7984 68.7458 66.3746 68.143Z" fill="black"/>
<path fill-rule="evenodd" clip-rule="evenodd" d="M54.406 7.72064C54.2695 7.96379 54.1328 8.20682 53.9962 8.44996C53.9429 8.09859 54.1864 7.7757 54.4164 7.49707C54.4815 7.54905 54.4462 7.6492 54.406 7.72064Z" fill="black"/>
<path fill-rule="evenodd" clip-rule="evenodd" d="M55.1569 8.53418C55.1854 8.7886 55.07 9.0537 54.861 9.21343C54.8371 8.95924 54.9514 8.69675 55.1569 8.53418Z" fill="black"/>
<path fill-rule="evenodd" clip-rule="evenodd" d="M58.681 10.0742C58.637 10.3394 58.4969 10.5891 58.2903 10.7708C58.205 10.8457 58.1073 10.9101 57.9973 10.9446C57.9544 10.8922 58.0018 10.8179 58.0475 10.7677C58.2587 10.5365 58.4699 10.3054 58.681 10.0742Z" fill="black"/>
<path fill-rule="evenodd" clip-rule="evenodd" d="M57.1177 10.1624C57.1538 10.0471 57.2171 9.93986 57.3015 9.85086C57.3863 9.83876 57.3774 9.97356 57.3296 10.0418C57.253 10.1514 57.1765 10.2611 57.0999 10.3707C57.0182 10.3317 57.0185 10.1976 57.1006 10.159L57.1177 10.1624Z" fill="black"/>
<path fill-rule="evenodd" clip-rule="evenodd" d="M60.9445 11.5137C60.8883 11.6476 60.7612 11.752 60.6145 11.785C60.727 11.6129 60.8394 11.4407 60.9519 11.2686C61.0037 11.3408 61.0006 11.445 60.9446 11.5143L60.9445 11.5137Z" fill="black"/>
<path fill-rule="evenodd" clip-rule="evenodd" d="M62.5685 12.6322C62.5875 12.5656 62.6676 12.5215 62.7373 12.539C62.689 12.6717 62.6202 12.7975 62.5337 12.9109C62.4495 12.8401 62.4652 12.6902 62.5624 12.6369L62.5685 12.6322Z" fill="black"/>
<path fill-rule="evenodd" clip-rule="evenodd" d="M36.3704 18.9101C36.2695 19.6777 36.64 20.4856 37.2986 20.9343C37.6096 21.1461 37.724 21.5508 37.6747 21.9129C37.6253 22.2751 37.4398 22.6057 37.2503 22.9228C37.1082 23.1606 36.9555 23.4033 36.7226 23.5624C36.4896 23.7216 36.1543 23.776 35.9195 23.6194C35.0186 23.0185 33.7978 23.2533 32.7335 23.5121C32.3807 23.5979 32.0376 23.3661 31.7538 23.1481C31.3935 22.8713 31.0332 22.5946 30.673 22.3178C30.5437 22.2185 30.4106 22.1148 30.3347 21.9737C30.2406 21.7987 30.2477 21.5906 30.271 21.3951C30.3876 20.4158 30.8496 19.5068 31.353 18.6471C31.873 17.7589 32.6003 16.8035 33.6613 16.7281C33.9379 16.7086 34.2441 16.7675 34.4193 16.9734C34.7305 17.3389 35.2109 17.5223 35.6259 17.7764C36.0409 18.0306 36.4319 18.4423 36.3704 18.9101ZM32.0404 18.8392C31.9552 18.7958 31.8566 18.7514 31.7658 18.7831C31.7066 18.8037 31.6641 18.8532 31.6256 18.9011C31.1575 19.4822 30.8116 20.1532 30.615 20.8625C30.5536 21.0835 30.5077 21.3235 30.595 21.5364C30.664 21.7047 30.8073 21.8333 30.9462 21.9559C31.2594 22.2324 31.5726 22.509 31.886 22.7855C32.1016 22.9758 32.3687 23.1806 32.6549 23.1191C33.6942 22.8955 34.8306 22.6817 35.7849 23.1344C36.1799 23.3217 36.6792 23.1234 36.9552 22.7946C37.2311 22.4658 37.3373 22.0391 37.4356 21.6279C36.6633 21.066 36.0771 20.2733 35.7801 19.3894C35.7385 19.2658 35.5427 19.343 35.4496 19.4373C34.9306 19.9628 34.4115 20.4881 33.8924 21.0136C33.5483 21.362 33.1774 21.7937 33.2804 22.2629C33.3085 22.3912 33.0807 22.4462 32.9932 22.3455C32.9056 22.2447 32.9306 22.0948 32.9702 21.9695C33.3405 20.8015 34.5018 20.0629 35.3438 19.1461C35.5081 18.9673 35.6705 18.7535 35.6493 18.5162C35.6271 18.2669 35.4117 18.0789 35.211 17.9185C34.8238 17.6087 34.4169 17.2921 33.9274 17.1746C33.4378 17.0571 32.8412 17.2004 32.6052 17.6274C33.3548 17.9585 34.0803 18.3394 34.7748 18.7667C34.8733 18.8272 34.9753 18.9679 34.8777 19.0296C34.2867 18.714 33.6958 18.3986 33.1048 18.0831C32.9208 17.9848 32.7303 17.8846 32.5207 17.8638C32.3112 17.8431 32.0758 17.9229 31.9831 18.104C31.8638 18.3368 32.0313 18.6231 32.2592 18.7635C32.4871 18.904 32.7633 18.9491 33.0143 19.047C33.3817 19.1905 33.6969 19.4532 33.8957 19.7818C33.2773 19.4677 32.6589 19.1535 32.0404 18.8392Z" fill="black"/>
<path fill-rule="evenodd" clip-rule="evenodd" d="M61.4558 12.6077C61.432 12.6874 61.3623 12.7531 61.2786 12.7744C61.308 12.546 61.4483 12.3329 61.6511 12.209C61.6558 12.3577 61.5741 12.5062 61.4432 12.5867L61.4558 12.6077Z" fill="black"/>
<path fill-rule="evenodd" clip-rule="evenodd" d="M59.4941 11.4219C59.4572 11.5014 59.3729 11.5589 59.2822 11.5663C59.3026 11.4184 59.3654 11.2761 59.4623 11.1593C59.5001 11.1135 59.5483 11.069 59.6088 11.0625C59.6695 11.0561 59.7376 11.1086 59.7214 11.165C59.6427 11.2467 59.564 11.3285 59.4852 11.4102L59.4941 11.4219Z" fill="black"/>
<path fill-rule="evenodd" clip-rule="evenodd" d="M46.8775 30.472C46.8935 30.5141 46.8173 30.5503 46.792 30.5127C46.7771 30.4733 46.788 30.4262 46.819 30.3965C46.8417 30.4183 46.8645 30.4402 46.8873 30.462L46.8775 30.472Z" fill="black"/>
<path fill-rule="evenodd" clip-rule="evenodd" d="M65.0351 15.5358C65.1516 15.4645 65.2713 15.3903 65.3504 15.2816C65.4295 15.1729 65.4585 15.0199 65.3836 14.9085C65.2408 14.8909 65.1082 14.8084 65.0332 14.6907C65.03 14.6201 65.1049 14.5563 65.1778 14.5677C65.3184 14.6266 65.4648 14.6896 65.5602 14.8047C65.6555 14.9198 65.6791 15.1039 65.5695 15.2068C66.6354 15.908 67.7012 16.6093 68.767 17.3106C68.7028 17.3556 68.6129 17.327 68.5405 17.2955C67.5888 16.8817 66.7873 16.214 65.9171 15.6596C65.7152 15.531 65.4131 15.4198 65.2599 15.5997C65.0545 15.8406 64.5766 15.7583 64.4721 15.464C64.4525 15.3541 64.6461 15.348 64.7351 15.4199C64.8241 15.4918 64.937 15.5959 65.0351 15.5358Z" fill="black"/>
<path fill-rule="evenodd" clip-rule="evenodd" d="M63.1869 68.1254C63.3775 67.8878 63.5735 67.6541 63.7745 67.4246C63.8338 67.3569 63.8947 67.2886 63.9718 67.2403C64.2659 67.056 64.656 67.2227 64.95 67.4072C65.2743 67.6108 65.5834 67.8363 65.8743 68.0817C66.1154 68.285 66.3549 68.5206 66.4208 68.8215C66.4866 69.1223 66.2973 69.4916 65.9772 69.5181C65.7811 69.8587 65.5011 70.1546 65.1665 70.3755C64.9767 70.5006 64.7168 70.4235 64.5106 70.3248C63.9197 70.0415 63.4094 69.6059 63.0482 69.0763C62.9906 68.9917 62.9358 68.9027 62.9149 68.8037C62.8633 68.5584 63.0277 68.3237 63.1869 68.1254ZM65.1246 70.2352C65.3006 69.9956 65.4764 69.756 65.6524 69.5163C65.4831 69.3245 65.1742 69.3242 64.9526 69.19C64.8314 69.1165 64.7411 69.0057 64.6533 68.8971C64.3961 68.579 64.1389 68.2609 63.8818 67.9428C63.6674 68.1573 63.4682 68.3859 63.2863 68.6264C63.2598 68.6614 63.2326 68.6989 63.228 68.742C63.2226 68.7912 63.2474 68.8385 63.2726 68.8818C63.6617 69.5495 64.349 70.0518 65.1246 70.2352ZM64.7971 67.5679C64.6325 67.4597 64.378 67.3635 64.2623 67.5191C64.192 67.6138 64.2285 67.7446 64.275 67.8518C64.5331 68.4453 65.0355 68.9379 65.6493 69.1992C65.8256 69.2743 66.0933 69.2952 66.1532 69.1197C66.1754 69.0548 66.1567 68.984 66.1334 68.9193C65.9177 68.3225 65.3411 67.9253 64.7971 67.5679Z" fill="black"/>
<path fill-rule="evenodd" clip-rule="evenodd" d="M49.6532 59.7357C49.5492 59.8798 49.4451 60.024 49.3412 60.1682C49.2426 60.3049 49.1407 60.4503 49.1278 60.6159C49.1164 60.764 49.1782 60.9077 49.2466 61.0409C49.5478 61.6263 50.0074 62.1362 50.5681 62.5072C50.4137 62.6896 50.1047 62.5827 49.9089 62.4414C49.3912 62.0675 49.001 61.5346 48.8104 60.9413C48.7639 60.7963 48.7287 60.6445 48.7459 60.4937C48.7819 60.1797 49.0321 59.9326 49.2683 59.712C49.5548 59.4447 49.8862 59.1591 50.2864 59.1646C50.5494 59.1682 50.7915 59.3007 51.0012 59.4529C51.6061 59.8913 52.067 60.6055 51.9328 61.3202C51.8998 61.496 51.7621 61.7035 51.5827 61.6545C50.9307 61.4766 50.3516 61.064 49.9865 60.5172C49.9098 60.4021 49.8361 60.2757 49.7112 60.2096C49.7075 60.0504 49.6881 59.8913 49.6532 59.7357ZM50.267 59.6469C50.097 59.7493 50.0768 59.9851 50.1412 60.1671C50.314 60.6559 50.8864 60.8889 51.2389 61.2794C51.2847 61.3299 51.3313 61.3864 51.3985 61.4047C51.5004 61.4324 51.6078 61.3546 51.6447 61.2596C51.6814 61.1644 51.6655 61.0588 51.6456 60.9591C51.5886 60.6719 51.5006 60.3859 51.3361 60.1396C51.1718 59.8932 50.9237 59.6888 50.6276 59.6172C50.5073 59.5883 50.3719 59.5836 50.267 59.6469Z" fill="black"/>
<path fill-rule="evenodd" clip-rule="evenodd" d="M61.7551 64.3904C61.8753 64.4462 61.9389 64.5718 61.9937 64.6884C62.0763 64.8641 62.1587 65.0397 62.2413 65.2154C62.2759 65.2889 62.311 65.3646 62.3141 65.4451C62.3187 65.5654 62.2541 65.699 62.3248 65.7986C61.9929 66.0499 61.6816 66.3258 61.394 66.6229C61.3158 66.7039 61.2352 66.7891 61.1279 66.8293C60.9269 66.9045 60.7035 66.8 60.527 66.6811C60.1117 66.4014 59.7691 66.0233 59.5386 65.5902C59.4212 65.3695 59.3495 65.0626 59.5488 64.9044C59.6129 64.8534 59.6337 64.7694 59.6574 64.6928C59.7678 64.3356 60.0251 64.022 60.3615 63.8346C60.4102 63.8076 60.4625 63.7824 60.5189 63.7804C60.5679 63.7786 60.6155 63.7945 60.6618 63.8102C60.9077 63.8935 61.1537 63.9769 61.3996 64.0603C61.5026 64.0952 61.627 64.1614 61.6119 64.2649C61.6023 64.3311 61.6922 64.361 61.7551 64.3904ZM59.903 64.5929C59.7878 64.8279 59.6724 65.0876 59.7401 65.3389C59.7665 65.4366 59.8195 65.526 59.8776 65.6102C60.0898 65.9178 60.3794 66.1762 60.715 66.357C60.9311 66.4734 61.2208 66.5513 61.4119 66.4C61.5588 66.2837 61.6063 66.058 61.7862 65.9977C61.8818 65.9657 61.8877 65.827 61.8222 65.7531C61.7566 65.6793 61.6523 65.6519 61.5567 65.62C61.0235 65.4421 60.5936 65.0035 60.4422 64.483C60.4287 64.4365 60.4163 64.3877 60.3842 64.3506C60.3146 64.2703 60.176 64.2781 60.0877 64.3392C59.9994 64.4002 59.9493 64.4986 59.903 64.5929ZM61.9911 65.4393C62.1309 65.1867 61.9112 64.895 61.7061 64.6874C61.5809 64.5606 61.4556 64.4339 61.3305 64.3071C61.2357 64.2111 61.1337 64.1109 61.0004 64.0762C60.8671 64.0416 60.6963 64.1037 60.6701 64.2335C60.6588 64.2894 60.6756 64.3467 60.6952 64.4004C60.8901 64.935 61.407 65.3493 61.9911 65.4393Z" fill="black"/>
<path fill-rule="evenodd" clip-rule="evenodd" d="M59.0772 67.2401C59.5094 67.312 59.8413 67.6346 60.1419 67.9402C60.2631 68.0635 60.3857 68.1886 60.4689 68.3379C60.6658 68.6906 60.6121 69.1325 60.4316 69.4931C60.2512 69.8537 59.9589 70.1502 59.6713 70.4402C59.5011 70.612 59.2916 70.7982 59.046 70.7702C58.9546 70.7598 58.8703 70.7196 58.7897 70.6772C58.0704 70.2985 57.4936 69.6776 57.185 68.9496C57.1445 68.854 57.1078 68.7517 57.1233 68.6495C57.1385 68.5492 57.2017 68.4626 57.2631 68.3801C57.4853 68.0819 57.7118 67.7794 58.0116 67.5518C58.3114 67.3242 58.7002 67.1775 59.0772 67.2401ZM57.6443 68.5096C57.53 68.6206 57.3963 68.7395 57.3907 68.8952C57.3882 68.9656 57.4134 69.0341 57.4423 69.0989C57.7118 69.7016 58.3076 70.1016 58.8748 70.4693C58.9118 70.4934 58.9511 70.5182 58.9958 70.5208C59.0451 70.5239 59.0914 70.4993 59.1328 70.4735C59.3383 70.3462 59.507 70.1726 59.6734 70.0009C59.7568 69.915 59.8441 69.8215 59.8618 69.7055C59.8797 69.5895 59.7904 69.4519 59.6684 69.4625C59.4127 69.4845 59.1659 69.3587 58.9725 69.197C58.6323 68.9128 58.4088 68.5039 58.3585 68.0743C58.3413 67.9262 58.3372 67.7609 58.2282 67.6546C58.0954 67.9729 57.8955 68.2654 57.6443 68.5096ZM58.9645 67.5967C58.8569 67.5887 58.741 67.6051 58.6591 67.6726C58.4713 67.8279 58.5733 68.1225 58.7106 68.3203C58.9189 68.6207 59.1797 68.8877 59.4786 69.1071C59.5918 69.1902 59.7144 69.268 59.8539 69.2967C59.9934 69.3253 60.1538 69.2955 60.2463 69.1916C60.3392 69.0872 60.3443 68.9311 60.2975 68.8014C60.2508 68.6717 60.1604 68.5615 60.0746 68.4516C59.7806 68.0752 59.4541 67.6329 58.9645 67.5967Z" fill="black"/>
<path fill-rule="evenodd" clip-rule="evenodd" d="M54.886 66.7503C54.7257 66.8678 54.5015 66.8819 54.3081 66.8265C54.1148 66.7709 53.947 66.6543 53.7941 66.528C53.4219 66.2207 53.1125 65.8435 52.8888 65.4245C52.7696 65.2012 52.6728 64.956 52.6919 64.706C52.7205 64.3317 52.9983 64.0221 53.2788 63.7601C53.4104 63.6369 53.5549 63.5129 53.7346 63.4741C53.9098 63.4363 54.0923 63.4856 54.2592 63.5495C55.1045 63.8724 55.7709 64.5956 55.9998 65.4388C55.8748 66.0023 55.3641 66.4002 54.886 66.7503ZM54.2369 66.3917C54.4189 66.4948 54.6366 66.5827 54.8371 66.5182C55.0355 66.4543 55.1538 66.2609 55.2283 66.0738C54.9984 65.8161 54.6532 65.6817 54.3861 65.4593C53.9114 65.0643 53.7336 64.4428 53.5793 63.8592C53.3179 64.0667 53.1093 64.3347 52.9763 64.6339C52.938 64.7198 52.9055 64.812 52.9159 64.9048C52.9234 64.9716 52.9526 65.0341 52.9835 65.0944C53.2584 65.6307 53.6997 66.0874 54.2369 66.3917ZM53.7925 64.0876C53.7823 64.1791 53.8294 64.2667 53.8778 64.3462C54.1713 64.8288 54.563 65.2564 55.0246 65.5979C55.1654 65.7022 55.3591 65.8011 55.5106 65.7117C55.601 65.6584 55.6427 65.5522 55.6516 65.451C55.6756 65.1787 55.5111 64.9265 55.3427 64.7056C55.092 64.3766 54.8009 64.0523 54.4069 63.8985C54.291 63.8533 54.163 63.8237 54.0407 63.8496C53.9186 63.8756 53.8058 63.9686 53.7925 64.0876Z" fill="black"/>
<path fill-rule="evenodd" clip-rule="evenodd" d="M45.7142 4.61608C45.5398 4.83598 45.3954 5.20974 45.6528 5.33437C45.8546 5.4321 46.073 5.24243 46.2128 5.07214C46.7606 4.40418 47.3085 3.73622 47.8564 3.06827C47.9901 3.29614 47.837 3.57506 47.6877 3.79386C47.2735 4.40097 46.8352 5.0302 46.1787 5.39211C47.3095 5.92447 48.388 6.55863 49.3952 7.2835C49.8262 7.1271 50.1841 6.79516 50.3611 6.38779C50.2384 6.49966 50.0384 6.41551 49.8963 6.32724C49.0013 5.77106 48.1248 5.18733 47.269 4.57725C47.3293 4.42165 47.5738 4.4891 47.7169 4.58277C48.51 5.10178 49.3031 5.62078 50.0962 6.13978C50.29 6.26662 50.5298 6.06121 50.6652 5.87766C50.9626 5.47488 51.2598 5.0721 51.557 4.66932C51.6663 4.52132 51.7856 4.36563 51.962 4.29998C52.2632 4.18792 52.5869 4.37881 52.8484 4.56056C52.9251 4.61386 53.0056 4.67179 53.0398 4.75639C53.0989 4.90272 52.9984 5.05987 52.9027 5.18723C51.9713 6.42636 51.0401 7.66549 50.1087 8.90461C50.0663 8.96097 50.022 9.01888 49.9592 9.0533C49.7983 9.14123 49.5957 9.04024 49.4618 8.9179C49.2725 8.74488 48.9861 8.4564 49.1529 8.16626C49.3197 7.87612 49.3266 7.86319 49.4669 7.64187C48.2849 6.7828 47.0534 5.90115 45.6042 5.5944C45.3573 5.54213 45.223 5.2648 45.2523 5.02443C45.2816 4.78407 45.4301 4.57442 45.5742 4.37553C45.9163 3.90311 46.2584 3.43071 46.6005 2.95831C46.6885 2.83682 46.7786 2.71328 46.9008 2.62305C47.1235 2.45883 47.4457 2.42912 47.6969 2.54961C47.9483 2.67011 48.1163 2.93482 48.1121 3.20378C47.9604 3.06183 47.8024 2.91594 47.6032 2.84626C47.4039 2.77659 47.1507 2.80472 47.0225 2.96643C46.5864 3.51631 46.1503 4.0662 45.7142 4.61608ZM49.2805 8.26381C49.2805 8.51253 49.482 8.64793 49.6352 8.70453C49.7883 8.76114 49.9866 8.73871 50.0818 8.61067C50.9217 7.48132 51.7615 6.35202 52.6015 5.2227C52.6381 5.17343 52.6755 5.12275 52.6916 5.06428C52.7261 4.93916 52.6531 4.80508 52.5473 4.72451C52.4414 4.64396 52.3082 4.60568 52.1784 4.56913C52.12 4.55265 52.0554 4.53651 52 4.5609C51.9626 4.57736 51.9361 4.60975 51.9111 4.64101C51.2086 5.51877 50.5386 6.42037 49.9028 7.34355C49.8777 7.29691 49.4518 7.88657 49.2805 8.26381Z" fill="black"/>
<path fill-rule="evenodd" clip-rule="evenodd" d="M36.773 21.6126C36.7453 21.785 36.5966 21.9115 36.4786 22.0445C36.2201 22.3357 36.0845 22.7062 35.9546 23.0674C35.8017 22.908 35.7771 22.6649 35.8354 22.4558C35.8936 22.2466 36.0224 22.063 36.1491 21.8837C36.222 21.7807 36.2982 21.6745 36.4088 21.6092C36.5195 21.5439 36.675 21.5308 36.773 21.6126Z" fill="black"/>
<path fill-rule="evenodd" clip-rule="evenodd" d="M64.9276 14.4686C64.6556 14.8078 64.3834 15.1469 64.1113 15.4861C63.9644 15.6692 63.6767 15.8615 63.5203 15.6858C63.2465 15.3781 62.7404 15.4647 62.3268 15.3829C62.059 15.3299 61.8167 15.1977 61.5795 15.0675C58.1496 13.1846 54.7198 11.3018 51.29 9.41887C51.0189 9.27006 50.7254 9.09514 50.6355 8.8088C54.3044 10.6925 57.9119 12.6858 61.4509 14.7849C61.8849 15.0424 62.4836 15.2914 62.859 14.9602C62.9668 14.8651 63.0333 14.7356 63.0972 14.6095C63.4272 13.9586 63.7571 13.3077 64.087 12.6568C60.3819 10.3766 56.338 8.59876 52.8194 6.06245C52.749 6.01166 52.6733 5.95241 52.6592 5.86907C52.645 5.78573 52.7405 5.69044 52.816 5.73411C53.6387 6.30141 54.4761 6.84896 55.3274 7.37614C58.0283 9.04839 60.8629 10.5123 63.6205 12.0974C63.8889 12.2517 64.183 12.4431 64.233 12.7388C64.2715 12.9665 64.1508 13.1882 64.0341 13.3899C63.7938 13.8051 63.5536 14.2204 63.3133 14.6356C63.2287 14.7818 63.1411 14.946 63.1823 15.1085C63.2465 15.3624 63.6044 15.4546 63.8549 15.3505C64.1052 15.2466 64.2687 15.0167 64.4185 14.7983C64.5554 14.5985 64.6923 14.3988 64.8292 14.1991C64.939 14.0387 64.6892 13.8806 64.4986 13.8213C64.308 13.7618 64.0969 13.5304 64.2617 13.4213C64.3504 13.3624 64.4704 13.4152 64.5631 13.4682C64.843 13.6284 65.1643 13.8723 65.0965 14.1776C65.0721 14.287 64.9989 14.3798 64.9276 14.4686Z" fill="black"/>
<path fill-rule="evenodd" clip-rule="evenodd" d="M35.1377 18.4353C35.1948 18.4667 35.256 18.5025 35.2792 18.5615C35.3022 18.6206 35.2581 18.704 35.1929 18.6948C34.589 18.3625 33.985 18.0301 33.3811 17.6977C33.392 17.6318 33.4685 17.5914 33.5381 17.5939C33.6077 17.5964 33.671 17.6304 33.7314 17.6635C34.2001 17.9208 34.669 18.1781 35.1377 18.4353Z" fill="black"/>
<path fill-rule="evenodd" clip-rule="evenodd" d="M26.5123 15.2052C26.3854 14.8924 26.5704 14.5467 26.7774 14.2759C27.093 13.8631 27.4748 13.4967 27.9055 13.1937C28.0126 13.1182 28.1769 13.0515 28.2632 13.1483C28.3679 13.2656 28.2082 13.426 28.0751 13.5129C27.513 13.8799 27.1213 14.4348 26.739 14.9734C26.6763 15.0618 26.6099 15.1532 26.5123 15.2052Z" fill="#F2994A"/>
<path fill-rule="evenodd" clip-rule="evenodd" d="M58.5688 62.4809C58.156 62.7619 57.7432 63.0429 57.3306 63.324C57.1806 63.4261 56.9972 63.5332 56.8246 63.4722C56.2082 63.2546 55.7767 62.7139 55.49 62.1483C55.3778 61.9268 55.2808 61.6736 55.3598 61.4393C55.3994 61.3219 55.4799 61.2217 55.559 61.124C55.803 60.8226 56.0914 60.4964 56.4879 60.457C56.6637 60.4396 56.8403 60.4829 57.0055 60.5428C57.5273 60.7322 57.9777 61.0965 58.2597 61.5573C58.1502 61.5171 58.0341 61.4931 57.9171 61.4863C57.6289 61.0378 57.1071 60.7346 56.5582 60.6967C56.7055 61.0247 56.8866 61.3388 57.0982 61.6329C57.2903 61.8997 57.5283 62.1637 57.8543 62.2513C58.1016 62.3178 58.4066 62.2902 58.5688 62.4809ZM56.4773 62.8946C56.6779 63.0521 56.936 63.1842 57.1877 63.1243C57.5384 63.0409 57.7207 62.6259 58.0731 62.5496C57.6032 62.499 57.1892 62.2123 56.8954 61.8576C56.6018 61.5029 56.4111 61.082 56.2239 60.6666C56.1978 61.0622 55.6634 61.3162 55.688 61.7119C55.6925 61.7849 55.7169 61.8554 55.7443 61.9235C55.8962 62.3003 56.1513 62.6382 56.4773 62.8946Z" fill="black"/>
<path fill-rule="evenodd" clip-rule="evenodd" d="M32.8579 18.3888C32.9514 18.3358 33.0695 18.386 33.1642 18.4369C33.4551 18.5933 33.7403 18.7593 34.0192 18.9346C34.0742 18.9692 34.1367 19.025 34.1129 19.0839C34.0823 19.1591 33.9646 19.1309 33.892 19.0898C33.6008 18.9252 33.3095 18.7606 33.0184 18.5959C32.9358 18.5493 32.8411 18.4793 32.8579 18.3888Z" fill="black"/>
<path fill-rule="evenodd" clip-rule="evenodd" d="M27.1702 16.0229C27.3412 15.5616 27.6065 15.1325 27.9465 14.7669C28.0659 14.6387 28.1942 14.5182 28.3224 14.398C28.5086 14.2232 28.6949 14.0484 28.8811 13.8737C28.9329 13.8251 28.9938 13.773 29.0662 13.7765C29.1586 13.7812 29.2203 13.8805 29.2129 13.9687C29.2055 14.0568 29.1495 14.1337 29.0928 14.2036C28.8035 14.5605 28.4498 14.8641 28.1367 15.202C27.8235 15.5398 27.5445 15.9261 27.4498 16.3685C27.4244 16.487 27.22 16.4785 27.1564 16.3738C27.0928 16.2693 27.1279 16.1369 27.1702 16.0229Z" fill="#F2994A"/>
<path fill-rule="evenodd" clip-rule="evenodd" d="M61.8343 71.7885C61.9307 71.3887 62.1328 71.0128 62.4166 70.7052C62.541 70.8591 62.398 71.0713 62.2918 71.2372C62.2059 71.3713 62.143 71.5187 62.1061 71.672C62.0952 71.7172 62.0867 71.7648 62.0996 71.8095C62.1102 71.847 62.1351 71.8792 62.1596 71.9104C62.5792 72.4469 63.0606 73.0222 63.7474 73.1533C63.8823 73.1791 64.0217 73.1106 64.1128 73.012C64.2041 72.9132 64.2563 72.788 64.3068 72.6655C63.4706 72.3474 62.8259 71.6052 62.652 70.7603C62.645 70.7262 62.6388 70.69 62.6518 70.6576C62.6698 70.6125 62.7192 70.5874 62.7657 70.569C63.0975 70.438 63.491 70.4593 63.8051 70.6255C63.9268 70.6898 64.0358 70.7738 64.1442 70.8575C64.312 70.9869 64.4799 71.1165 64.6476 71.246C64.9238 71.4591 65.2278 71.7327 65.1898 72.0702C65.1688 72.2557 65.0452 72.4139 64.9261 72.5616C64.6661 72.884 64.4061 73.2065 64.1462 73.5289C63.2364 73.4158 62.3905 72.8982 61.9014 72.1553C61.8643 72.0992 61.8286 72.04 61.8176 71.9744C61.8072 71.9125 61.8196 71.8495 61.8343 71.7885ZM63.7846 70.9484C63.4985 70.7903 63.1591 70.7223 62.8308 70.7575C63.0775 71.3972 63.5619 71.95 64.1769 72.2942C64.3275 72.3784 64.5112 72.4516 64.6712 72.3851C64.8772 72.2994 64.9245 72.0368 65.0911 71.8926C64.7698 71.6548 64.4485 71.417 64.1271 71.1792C64.0166 71.0974 63.9056 71.0153 63.7846 70.9484Z" fill="black"/>
<path fill-rule="evenodd" clip-rule="evenodd" d="M52.9877 56.9361C53.4253 56.6877 54.0111 56.9031 54.3563 57.2607C54.7015 57.6182 54.8844 58.088 55.1399 58.509C55.0912 58.528 55.0428 58.547 54.9942 58.566C54.7499 57.9412 54.3243 57.3825 53.7777 56.9687C53.6882 56.901 53.5207 56.8584 53.4911 56.9639C53.4827 56.994 53.4923 57.0259 53.5017 57.0558C53.5567 57.2302 53.6118 57.4045 53.6667 57.5788C53.7006 57.6858 53.7346 57.7934 53.7854 57.8941C53.9705 58.2611 54.3521 58.4937 54.7149 58.707C54.7985 58.7562 54.7457 58.8849 54.6665 58.9404C54.5873 58.9959 54.4813 59.0379 54.4574 59.1291C54.4251 58.7562 53.9957 58.5544 53.7631 58.2538C53.6784 58.1444 53.6191 58.0192 53.5605 57.8952C53.4365 57.6327 53.3125 57.3702 53.1885 57.1077C53.0353 57.2488 52.8821 57.3898 52.7289 57.5309C52.6577 57.5963 52.5845 57.665 52.5506 57.7536C52.5027 57.8792 52.5433 58.0192 52.5965 58.1428C52.6958 58.3734 52.8392 58.5864 53.0173 58.7683C53.1261 58.8794 53.249 58.9804 53.3327 59.1098C53.4163 59.2394 53.4546 59.4091 53.38 59.5437C52.9728 59.2208 52.6293 58.8246 52.373 58.3819C52.2728 58.209 52.1838 58.0199 52.1936 57.8224C52.2136 57.4163 52.6223 57.1435 52.9877 56.9361Z" fill="black"/>
<path fill-rule="evenodd" clip-rule="evenodd" d="M20.4551 68.826C19.9352 69.5436 19.3312 70.2724 18.4734 70.5694C17.6155 70.8664 16.4585 70.5251 16.226 69.6808C15.8374 68.2691 17.9796 67.5478 18.7799 66.305C19.7299 64.8299 18.5912 62.967 17.4724 61.6048C16.6785 62.2399 15.5221 62.8926 14.7044 62.2857C13.7143 61.5509 14.5474 60.0146 15.5572 59.3046C17.3682 58.0311 19.6841 57.433 21.9187 57.6618C22.4877 53.6069 24.6642 49.7775 27.9123 47.1174C31.1603 44.4572 35.4499 42.9908 39.7239 43.0792C39.2461 35.1484 44.0508 27.1504 51.4528 23.5548C52.2563 23.1645 53.1167 22.8161 54.0176 22.8213C54.9187 22.8264 55.8701 23.2654 56.2121 24.0633C56.5541 24.8611 56.0238 25.956 55.1259 26.0289C51.6686 26.3096 48.3851 28.1528 46.442 30.9039C51.0406 30.5651 55.3918 32.7223 59.4518 34.8165C61.1062 35.67 62.7608 36.5234 64.4152 37.3769C66.0215 38.2054 67.8036 39.0611 69.5888 38.6995C72.8906 38.031 73.8961 33.8914 76.6598 32.0381C77.0155 31.7994 77.4391 31.5934 77.8672 31.6638C78.9832 31.8474 78.9049 33.4245 78.4248 34.4059C75.5618 40.26 69.1474 43.9437 62.5534 45.3429C55.9596 46.7419 49.1059 46.189 42.3773 45.6288C41.9116 50.2341 41.2542 55.2423 37.8112 58.4904C34.5379 61.5785 29.3604 62.2575 24.9291 61.0892C27.2865 61.2553 29.674 61.3833 31.9993 60.9773C34.3247 60.5712 36.6131 59.5779 38.1242 57.8383C39.0286 56.7972 39.6165 55.5396 40.1103 54.2706C41.1777 51.5275 41.857 48.6463 42.1238 45.7303C41.3003 45.7837 40.477 45.8372 39.6535 45.8906C39.862 49.7739 38.8517 53.8794 36.0596 56.7042C33.2675 59.5292 28.4687 60.6821 24.9669 58.7098C24.1982 62.3275 22.653 65.7923 20.4551 68.826ZM29.4176 59.3543C30.7789 59.1509 32.1098 58.762 33.3576 58.2031C32.5846 57.6126 31.8381 56.9771 31.2493 56.2165C29.9955 54.5968 29.5204 52.4975 28.1548 50.9629C26.5149 53.1393 25.44 55.7026 25.0527 58.3601C25.044 58.4199 25.0369 58.4855 25.0707 58.5366C25.1058 58.5896 25.1744 58.6107 25.2375 58.6279C26.2811 58.9112 27.3418 59.1367 28.4124 59.3028C27.8185 58.6847 27.2202 58.0608 26.7685 57.3409C26.3168 56.6209 26.0162 55.7887 26.0751 54.9508C26.6315 56.3454 27.4273 57.6523 28.4209 58.803C28.6772 59.0999 29.02 59.4138 29.4176 59.3543ZM78.679 33.2041C78.9871 32.4758 77.9362 31.7806 77.1518 32.0123C76.3674 32.2442 75.8813 32.97 75.424 33.6225C72.8597 37.2822 69.1226 40.178 64.8488 41.8173C58.2658 44.3421 50.91 43.8392 43.8238 43.5625C40.4921 43.4323 37.0919 43.3691 33.8967 44.2817C29.2444 45.6106 25.3147 49.0781 23.5541 53.408C22.5375 55.908 22.2248 58.6116 21.5294 61.2103C20.834 63.8089 19.6467 66.4426 17.3833 68.0252C16.9728 68.3122 16.4967 68.6073 16.3826 69.0815C16.2129 69.7865 17.0325 70.4266 17.7869 70.3802C18.5414 70.3338 19.1744 69.8302 19.6922 69.3031C24.9549 63.9443 23.7474 54.6771 29.1802 49.4763C31.7419 47.0239 35.4201 45.9074 39.0294 45.6012C42.6387 45.2949 46.2655 45.7124 49.8843 45.8865C55.5219 46.1576 61.2943 45.8146 66.5601 43.8694C71.826 41.9243 76.5601 38.2109 78.679 33.2041ZM44.6196 34.6855C44.5032 34.7532 44.4337 34.8734 44.3707 34.989C43.0414 37.4291 42.3841 40.201 42.4827 42.9514C42.3401 42.945 42.2843 42.7734 42.2693 42.6374C41.9183 39.4343 43.3096 36.3178 44.6706 33.3722C45.0829 32.4799 45.4982 31.5824 46.0671 30.7727C47.127 29.2642 48.6689 28.1311 50.2394 27.1085C50.7621 26.7681 51.2987 26.4332 51.8976 26.2393C52.296 26.1102 52.7138 26.0464 53.1292 25.9831C53.6464 25.9042 54.1637 25.8254 54.6809 25.7465C55.2181 25.6646 55.8331 25.5307 56.078 25.066C56.4219 24.4133 55.7293 23.653 54.9936 23.456C54.0659 23.2075 53.0772 23.462 52.1695 23.7714C50.7786 24.2453 49.4289 24.8558 48.2382 25.6913C47.2882 26.3581 46.4493 27.161 45.6796 28.0147C42.0489 32.0417 39.9379 37.2977 39.8154 42.6152C39.8127 42.7365 39.8122 42.8633 39.8701 42.9712C40.009 43.2295 40.3827 43.2428 40.6856 43.2247C42.8485 43.0947 45.0249 43.1743 47.171 43.462C46.1231 42.5157 45.0576 41.5574 43.7817 40.9172C43.3777 40.7145 42.9284 40.5219 42.7059 40.1409C43.5832 40.2763 44.4212 40.6374 45.1087 41.176C45.6626 41.61 46.1146 42.1514 46.6535 42.6024C47.1923 43.0534 47.8614 43.4226 48.5769 43.4011C50.5831 43.3408 52.5923 43.3754 54.5949 43.5046C52.9971 42.4871 51.6801 41.1234 50.2351 39.9147C48.7902 38.7059 47.1337 37.6166 45.2379 37.3305C44.7088 37.2506 44.0432 37.1388 43.9106 36.6421C45.9123 36.7443 47.7885 37.6382 49.406 38.7711C51.0234 39.9039 52.4347 41.2807 53.9577 42.5276C54.5016 42.9728 55.1467 43.4277 55.8573 43.3459C58.0837 43.0901 60.3271 42.8307 62.4577 42.1618C57.2745 40.3986 53.1813 36.1764 47.8129 35.0274C46.9251 34.8373 46.0193 34.7364 45.1156 34.6359C44.9472 34.6172 44.7644 34.6011 44.6196 34.6855ZM65.0374 38.0542C64.4469 37.7803 63.8564 37.5063 63.2658 37.2325C62.4224 36.8411 61.5788 36.4497 60.7476 36.0352C58.812 35.0698 56.9444 33.979 54.974 33.0803C53.0036 32.1817 50.9045 31.4723 48.7266 31.3327C48.1726 31.2971 47.6097 31.2977 47.0748 31.1558C46.74 31.0669 46.3758 31.2162 46.129 31.4501C45.8821 31.6841 45.7294 31.9916 45.5814 32.2924C45.2517 32.963 44.9219 33.6334 44.5921 34.304C47.1333 34.0771 49.633 34.9876 51.9168 36.0777C54.0805 37.1104 56.1491 38.3174 58.1613 39.6C59.0746 40.182 59.9834 40.7833 60.9879 41.2058C61.9925 41.6282 63.1137 41.8649 64.1935 41.6781C66.0439 41.358 67.4396 39.8868 69.1987 39.251C67.736 39.2901 66.3541 38.6651 65.0374 38.0542ZM31.6483 48.1751C32.2016 49.4843 32.9861 50.7154 34.0352 51.7085C35.0843 52.7016 36.4064 53.4496 37.8498 53.7433C38.1859 52.5665 38.5076 51.3857 38.8146 50.2015C38.8438 50.0894 38.8567 49.9404 38.7489 49.8879C37.2066 49.1373 35.8185 48.0977 34.6867 46.8453C34.6965 46.7152 34.8596 46.6376 34.9934 46.662C35.1273 46.6863 35.2345 46.7791 35.3337 46.8686C36.4374 47.8651 37.523 48.9509 38.9317 49.491C39.2516 48.4853 39.4693 47.4498 39.5809 46.4039C39.6014 46.2115 39.5519 45.9431 39.3498 45.9424C35.363 45.9281 31.3963 47.5166 28.6084 50.244C28.4151 50.4332 28.4037 50.7408 28.501 50.9883C28.5985 51.236 28.7846 51.4401 28.9567 51.6471C29.7954 52.6564 30.3638 53.8414 31.0264 54.9642C31.689 56.0872 32.4855 57.1878 33.6282 57.8713C33.746 57.9418 33.8766 58.0097 34.0151 57.9996C34.1289 57.9912 34.2307 57.9311 34.3262 57.8712C35.6889 57.0162 36.8276 55.8368 37.6107 54.4692C37.6956 54.3209 37.7346 54.0738 37.562 54.0379C36.5142 53.8203 35.5192 53.3726 34.6757 52.7391C34.0242 52.2497 33.4677 51.6563 32.9148 51.0661C32.5767 50.7052 32.2363 50.3413 31.9751 49.9259C31.6611 49.4262 31.4682 48.8572 31.4159 48.2763C31.4934 48.2425 31.5708 48.2088 31.6483 48.1751ZM15.269 62.2244C15.8349 62.337 16.3725 61.9695 16.8132 61.6116C17.3242 61.1962 17.8249 60.7613 18.4057 60.4409C18.9866 60.1205 19.6663 59.9198 20.3284 60.0197C20.5533 60.0536 20.7762 60.1217 21.0031 60.1056C21.2301 60.0893 21.4712 59.957 21.5104 59.7425C21.6037 59.233 21.6772 58.7204 21.7306 58.2057C21.7383 58.1323 21.7427 58.0497 21.6922 57.9939C21.6435 57.9399 21.561 57.9305 21.4865 57.926C19.1225 57.7801 16.71 58.6635 15.0516 60.2825C14.8003 60.5279 14.5559 60.8081 14.4973 61.1472C14.4154 61.6217 14.7771 62.1265 15.269 62.2244ZM20.0388 60.7275C20.3565 61.0779 20.674 61.4284 20.9917 61.7789C21.0753 61.3487 21.2075 60.9272 21.3853 60.5242C20.4373 60.1428 19.2887 60.2601 18.4462 60.8242C18.2629 60.947 18.0942 61.0886 17.9261 61.2298C17.8594 61.2858 17.7898 61.3458 17.7614 61.4262C17.7331 61.5068 17.764 61.6131 17.8483 61.6398C18.1618 61.7393 18.3841 62.0034 18.5634 62.2688C19.1517 63.1398 19.4745 64.1731 19.4823 65.2103C19.9331 64.3023 20.3841 63.3946 20.835 62.4866C20.6559 62.4387 20.6099 62.2233 20.5652 62.0506C20.4059 61.4377 19.8923 60.9767 19.4028 60.5531C19.4792 60.4555 19.6342 60.4432 19.751 60.4917C19.8678 60.5404 19.9553 60.6354 20.0388 60.7275Z" fill="black"/>
</svg>
