<svg width="324" height="311" viewBox="0 0 324 311" fill="none" xmlns="http://www.w3.org/2000/svg">
<path fill-rule="evenodd" clip-rule="evenodd" d="M142.065 135.849C139.186 138.52 139.644 143.777 140.511 147.596C141.787 153.22 144.329 158.425 147.23 162.912C152.375 170.873 161.109 179.811 169.16 172.823C176.33 166.599 180.853 154.04 182.414 143.462C182.896 140.192 183.539 135.321 181.272 132.864C177.921 129.231 172.009 129.892 167.963 130.36C165.298 130.667 162.727 131.712 160.094 131.222C153.977 130.081 147.168 131.114 142.065 135.849Z" fill="#EB5757"/>
<path fill-rule="evenodd" clip-rule="evenodd" d="M266.105 177.506C260.272 186.976 250.355 188.472 241.548 188.379C236.259 188.323 230.96 187.814 225.775 186.434C222.979 185.691 220.203 184.705 217.502 183.522C215.718 182.74 213.062 182.349 212.302 179.902C210.3 173.447 211.773 165.352 212.598 158.8C213.017 155.467 213.333 152.115 213.74 148.78C214.002 146.645 214.126 144.285 214.825 142.288C215.643 139.95 216.677 140.417 218.407 141.062C220.791 141.953 223.239 142.323 225.69 142.803C231.672 143.972 236.892 146.329 242.328 149.671C247.704 152.974 252.919 156.236 257.714 160.83C260.143 163.158 262.237 165.685 264.187 168.652C265.694 170.944 267.942 174.523 266.105 177.506ZM240.607 219.568C240.561 220.587 231.419 217.509 230.216 217.164C222.323 214.898 214.273 212.317 206.821 208.223C199.866 204.402 193.737 200.03 188.264 193.241C185.713 190.077 183.418 186.744 181.222 183.195C180.121 181.416 178.618 181.623 177.39 180.118C176.287 178.764 175.44 177.706 175.785 175.681C178.543 176.611 183.637 182.459 186.497 179.506C188.126 177.823 185.866 176.065 184.822 175.089C182.861 173.255 181.183 170.993 179.623 168.618C182.301 169.283 184.793 170.566 187.124 172.353C188.159 173.146 191.708 176.024 192.534 173.281C193.042 171.592 190.636 169.47 189.886 168.535C188.044 166.241 186.055 163.563 185.077 160.478C187.495 159.76 189.775 162.152 191.421 164.1C193.249 166.264 195.49 168.534 197.023 171.026C197.814 172.311 197.986 173.83 198.604 175.217C199.299 176.776 200.411 178.114 201.473 179.268C203.521 181.492 205.915 183.13 208.373 184.484C213.989 187.579 220.009 189.769 225.996 191.306C228.933 192.06 231.798 192.407 234.779 192.535C237.096 192.634 238.121 193.521 239.006 196.253C241.399 203.646 240.965 211.778 240.607 219.568ZM171.858 163.239C170.519 164.843 168.778 165.85 167.378 167.392C166.146 168.749 164.725 170.196 163.35 171.294C161.882 172.465 160.785 171.644 159.464 170.584C157.912 169.341 156.128 168.837 154.53 167.724C149.004 163.875 142.245 154.444 143.276 145.785C143.713 142.115 145.196 138.504 147.888 136.838C150.333 135.326 153.887 134.487 156.504 135.751C157.979 136.464 159.035 138.038 159.98 139.586C161.083 141.39 161.505 141.106 162.627 139.366C164.636 136.253 167.949 133.522 171.224 133.588C172.852 133.621 174.469 134.06 175.935 134.924C176.134 135.042 176.244 135.396 176.444 135.517C176.689 135.665 177.091 135.357 177.261 135.495C177.69 135.843 178.119 136.93 178.367 137.481C179.36 139.693 181.149 144.032 179.346 145.895C179.345 145.896 179.427 148.415 179.402 148.702C179.275 150.205 178.869 151.446 178.346 152.821C176.775 156.95 174.456 160.129 171.858 163.239ZM174.529 198.178C173.26 198.683 171.894 193.594 173.111 192.781C174.271 192.007 175.678 197.722 174.529 198.178ZM154.599 192.093C154.16 194.015 153.974 196.197 152.9 197.762C151.916 196.268 151.819 193.511 152.773 191.974C153.318 191.098 155.08 189.992 154.599 192.093ZM195.205 158.409C195.198 158.458 196.732 159.397 195.984 160.423C194.961 161.826 195.102 159.096 195.205 158.409ZM201.545 142.741C201.527 144.685 198.312 144.215 198.335 142.26C198.363 139.854 201.564 140.68 201.545 142.741ZM197.707 126.495C198.025 124.715 203.618 122.239 203.465 125.341C203.389 126.896 197.032 130.279 197.707 126.495ZM140.372 186.85C139.745 187.814 138.855 188.195 138.104 188.935C137.315 189.711 136.752 190.718 136.064 191.629C134.174 194.13 131.899 196.185 129.859 198.483C126.11 202.706 122.519 207.247 118.363 210.828C110.935 217.229 102.322 220.729 93.7712 223.795C93.0628 224.048 91.0223 225.073 90.3215 224.31C89.5656 223.487 89.95 220.59 89.9848 219.494C90.1266 215.003 90.5357 210.459 90.4914 205.974C90.473 204.132 90.0516 201.514 90.8024 199.828C91.6409 197.946 93.982 197.396 95.4299 196.687C99.8314 194.534 104.071 190.902 107.959 187.539C112.739 183.403 117.565 179.2 122.484 175.34C127.302 171.558 132.618 169.025 137.993 166.865C138.242 167.535 135.677 169.69 135.384 169.992C133.978 171.441 132.448 172.943 131.404 174.856C130.665 176.21 129.907 179.274 131.948 179.352C132.937 179.39 134.399 178.166 135.296 177.77C136.777 177.115 138.304 176.656 139.854 176.357C138.522 178.235 134.006 181.607 134.827 184.729C135.625 187.759 140.236 184.223 141.823 184.223C141.563 185.28 140.908 186.025 140.372 186.85ZM85.8984 195.306C82.9454 196.635 79.9187 197.391 76.871 198.249C73.9661 199.067 71.2811 199.684 68.3056 199.204C64.1977 198.544 59.6516 196.366 59.1308 190.392C58.5132 183.313 62.4192 176.808 65.7731 171.73C69.855 165.551 74.4385 160.027 79.4061 155.026C84.368 150.029 89.7238 145.624 95.3346 141.905C99.6032 139.075 104.424 137.358 108.938 135.234C109.797 134.83 112.172 133.411 112.975 134.587C113.624 135.539 112.74 137.123 112.445 138.006C111.867 139.728 111.788 141.462 111.639 143.31C110.974 151.566 110.172 159.82 109.804 168.112C109.701 170.422 109.52 172.84 109.626 175.152C109.684 176.433 110.205 178.064 109.858 179.315C109.191 181.718 106.138 183.309 104.52 184.383C101.624 186.306 98.5566 187.74 95.6301 189.578C92.4164 191.598 89.2871 193.781 85.8984 195.306ZM126.852 141.661C127.662 141.518 128.876 141.236 129.599 141.908C130.541 142.784 130.294 144.004 129.424 144.639C128.736 145.142 127.128 145.279 126.449 144.823C125.292 144.047 125.488 141.901 126.852 141.661ZM131.34 160.779C130.685 162.175 128.292 163.09 128.5 160.485C128.679 158.254 132.547 158.208 131.34 160.779ZM130.452 121.446C131.505 121.968 133.416 122.415 133.728 124.149C134.018 125.762 132.824 125.655 131.962 125.211C131.253 124.847 128.094 121.418 130.452 121.446ZM295.424 182.994C294.809 179.931 295.278 176.54 294.938 173.403C294.609 170.362 294.017 167.568 293.167 164.702C291.284 158.357 289.128 152.646 286.077 147.077C280.33 136.591 273.663 127.355 265.613 119.695C257.665 112.134 248.864 105.989 239.541 101.682C229.656 97.1151 219.704 95.5257 209.279 94.6502C206.166 94.389 203.055 94.0792 199.96 93.5758C197.697 93.2081 194.861 92.755 192.624 93.6419C191.219 94.1995 190.433 95.7678 191.964 96.7972C193.05 97.5269 194.471 97.6144 195.67 97.8084C194.222 103.696 191.865 109.605 188.131 113.659C184.486 117.618 179.607 118.975 175.006 119.978C172.511 120.522 169.718 120.943 167.184 120.709C165.582 120.561 164.333 119.612 163.686 121.723C163.238 123.19 163.026 124.8 162.434 122.585C161.735 119.966 161.392 119.983 159.216 119.239C154.767 117.718 149.667 116.33 145.786 113.04C141.759 109.627 140.359 104.106 138.111 98.9649C137.555 97.6942 135.878 95.1223 136.734 93.6661C137.518 92.3347 140.066 92.4675 141.233 92.3286C142.465 92.182 143.704 92.1759 144.939 92.1144C145.655 92.0792 147.095 92.4545 146.807 91.0862C146.372 89.0238 141.717 89.2883 140.561 89.2546C138.412 89.1931 136.232 89.2567 134.093 89.5592C123.488 91.0603 112.788 93.8358 102.526 97.537C82.6148 104.718 63.3311 117.949 48.8004 137.011C34.8523 155.308 30.4333 185.757 39.008 209.119C43.4642 221.261 53.1349 226.249 62.5094 230.277C67.4542 232.402 72.69 234.064 77.9465 233.663C80.4689 233.47 82.8622 232.601 85.3223 231.947C86.3952 231.661 87.6162 231.205 88.7182 231.32C89.5523 231.407 90.3537 232.387 91.1362 231.866C91.6915 231.497 91.9329 230.436 92.6116 229.984C93.4267 229.442 94.4145 229.246 95.2947 228.972C97.7409 228.212 100.109 226.978 102.501 225.967C104.973 224.921 107.307 223.574 109.679 222.213C110.877 221.525 113.649 218.729 114.43 220.773C114.786 221.706 114.634 223.505 114.721 224.484C114.873 226.195 115.051 227.903 115.246 229.607C115.676 233.358 116.191 237.094 116.718 240.826C117.669 247.558 118.895 254.003 120.946 260.337C122.583 265.393 124.02 271.125 127.06 275.148C128.387 276.903 130.198 277.693 132.101 277.142C134.266 276.514 135.344 273.997 136.658 271.962C139.55 267.484 144.324 264.053 148.732 262.817C154.13 261.305 159.389 263.517 164.542 265.398C169.993 267.387 175.541 269.282 180.891 271.673C185.876 273.901 191.259 277.192 196.666 276.906C201.381 276.656 205.785 271.745 209.185 268.001C212.6 264.242 216.87 258.737 221.781 259.18C224.219 259.4 226.441 260.905 228.816 261.517C231.424 262.189 234.198 262.284 236.85 262.535C240.141 262.846 247.505 261.747 248.722 256.68C248.903 255.928 248.904 254.38 248.128 254.079C247.415 253.803 247.05 254.87 246.374 254.822C244.999 254.722 243.924 251.653 243.168 250.465C240.119 245.668 235.937 242.09 232.515 237.757C228.651 232.865 225.353 226.937 222.442 221.09C223.758 220.652 225.178 221.379 226.451 221.725C227.999 222.144 229.508 222.651 231.033 223.189C232.714 223.781 234.419 224.189 236.125 224.64C237.398 224.976 239.087 225.078 240.236 225.895C241.239 226.608 241.799 227.375 243.044 227.582C244.311 227.792 245.611 227.615 246.883 227.604C250.324 227.574 253.757 227.492 257.182 227.027C269.282 225.382 282.109 218.831 289.386 205.831C291.364 202.295 292.959 198.378 293.967 194.221C294.753 190.975 296.109 186.402 295.424 182.994Z" fill="black"/>
<path fill-rule="evenodd" clip-rule="evenodd" d="M155.389 70.5572C153.236 71.4124 150.69 70.4061 149.453 67.9461C148.194 65.4447 147.333 62.5501 147.159 59.5705C146.994 56.7156 147.5 53.8251 148.816 51.4813C150.215 48.988 153.069 46.1935 155.627 47.0593C156.166 47.2419 156.653 47.6813 157.136 48.1174C157.649 48.5798 158.157 49.0386 158.718 49.182C158.863 49.2188 158.963 49.2537 159.039 49.2792C159.14 49.314 159.194 49.3326 159.243 49.3185C159.298 49.3023 159.345 49.2435 159.447 49.1176C159.505 49.0455 159.581 48.9516 159.686 48.8313C159.903 48.5839 160.112 48.2113 160.316 47.8469C160.453 47.6019 160.589 47.3601 160.724 47.1629C160.982 46.7835 161.24 46.4 161.499 46.0157C163.163 43.5455 164.858 41.028 166.891 39.0742C171.104 35.0259 176.703 33.1139 181.93 33.2089C185.11 33.2666 188.091 34.4734 191.054 35.8454C191.302 35.9605 191.553 36.0748 191.804 36.1895L191.805 36.1899C194.184 37.2768 196.639 38.3979 198.544 40.5756C202.334 44.9074 203.321 52.0794 203.942 58.2152C204.613 64.8599 202.763 70.5766 200.846 76.499V76.4998L200.845 76.501V76.5014C200.554 77.4028 200.26 78.3087 199.974 79.223C197.948 85.7018 194.229 90.9503 189.808 94.9496C187.491 97.0444 184.932 98.3091 182.254 99.4178C181.698 99.6478 181.146 99.894 180.594 100.14H180.594C178.445 101.097 176.304 102.051 173.988 102.047C169.568 102.039 163.909 99.3518 162.026 93.7785C161.169 91.2407 162.004 90.7851 163.719 92.1644C164.019 92.4053 164.317 92.6487 164.615 92.8917V92.8921H164.616L164.617 92.8933C166.794 94.6678 168.957 96.4317 171.514 97.2121C177.154 98.9339 183.909 96.2665 188.854 92.7467C193.797 89.2281 197.116 83.9419 199.334 77.3603C201.571 70.72 202.441 64.1768 201.578 57.0185C200.847 50.952 199.392 45.4107 195.12 42.1177C185.899 35.0096 173.476 35.5823 165.276 44.8199C164.151 46.0862 163.039 47.3184 161.881 48.528C161.144 49.2966 160.276 50.2187 160.384 51.5477C160.407 51.8409 160.55 52.3499 160.711 52.9205C161.174 54.5662 161.783 56.7274 160.088 55.7268C159.389 55.3141 158.81 54.7525 158.24 54.1989C157.301 53.2869 156.384 52.3969 154.988 52.2325C152.602 51.9506 149.755 54.2969 149.041 57.2502C148.36 60.0682 149.574 63.9237 151.476 65.5399C152.546 66.4494 153.714 66.4048 154.922 66.3587C155.044 66.3542 155.166 66.3493 155.288 66.3457C155.381 66.3429 155.497 66.3352 155.63 66.3263C156.442 66.2712 157.861 66.1756 158.239 66.9479C159.016 68.5365 156.274 70.2061 155.389 70.5572ZM184.118 83.128C184.522 82.1111 184.922 81.1057 185.375 80.1969C185.584 79.7754 185.927 79.4842 186.255 79.2052H186.255C186.349 79.125 186.442 79.0457 186.531 78.9647C187.637 81.17 186.544 83.5325 185.603 85.567C185.494 85.803 185.387 86.0347 185.286 86.261C184.988 86.9252 184.697 87.6168 184.404 88.3145C183.778 89.8051 183.14 91.3225 182.4 92.6564C180.597 95.9073 176.675 92.3903 176.559 89.0491C176.47 86.4915 177.885 87.6047 178.794 88.5599C179.729 89.544 180.172 89.789 181.153 88.7142C182.471 87.2694 183.303 85.1754 184.118 83.128ZM173.5 74.1191C173.897 70.7645 172.103 73.3695 171.719 74.9124C171.245 76.816 170.853 79.5049 171.569 81.394C172.885 84.8615 176.595 83.209 178.381 81.3668C179.218 80.5031 180.391 78.7039 180.351 77.2044C180.281 74.5953 178.711 76.1596 177.745 77.1218H177.745C177.622 77.2445 177.508 77.3575 177.409 77.4506C177.369 77.4883 177.326 77.5283 177.282 77.5705C176.386 78.4176 174.605 80.101 173.562 79.268C172.602 78.503 172.987 76.6861 173.289 75.2566C173.38 74.8302 173.463 74.4382 173.5 74.1191ZM178.808 60.5902C180.927 60.0504 183.655 60.3286 185.498 61.8658C187.873 63.846 184.75 65.2718 183.398 65.4491C181.76 65.663 179.667 65.8047 178.163 64.7765C176.031 63.3191 176.742 61.1174 178.808 60.5902ZM154.621 55.5619C153.002 55.159 150.741 56.2054 151.856 58.6707C152.689 60.5108 154.739 61.13 156.343 61.6147C156.538 61.6734 156.727 61.7305 156.906 61.7872C158.689 62.3541 159.572 61.5183 158.958 59C158.363 56.5626 156.368 55.9969 154.621 55.5619ZM188.443 81.3486C188.592 80.5521 189.462 77.5579 190.049 79.756C190.139 80.0937 190.15 80.5893 190.162 81.1186C190.192 82.4562 190.226 84.0107 191.555 83.7848C192.241 83.6686 192.566 82.7874 192.867 81.971C193.017 81.5665 193.16 81.1777 193.338 80.9056C195.151 78.1426 194.596 83.3685 194.122 84.6765C193.078 87.5589 190.155 89.5452 188.706 85.8881C188.167 84.5279 188.169 82.8109 188.443 81.3486ZM195.269 69.7282C196.11 70.9783 197.512 73.0626 198.431 71.5529C199.328 70.0793 197.784 67.7958 197.015 66.6575C196.981 66.6081 196.949 66.5607 196.919 66.5158C196.897 66.483 196.873 66.4482 196.849 66.4113C196.153 65.3722 194.368 62.7081 193.462 64.7036C192.895 65.9529 194.224 68.3077 194.856 69.1346C194.968 69.2816 195.108 69.4897 195.269 69.7282ZM170.565 94.2499C169.698 92.9743 169.788 90.6102 170.28 89.1342C170.681 87.9323 171.35 89.42 171.739 90.2814C171.833 90.4915 171.911 90.664 171.964 90.7515C172.138 91.0378 172.388 91.3031 172.644 91.5756C173.179 92.1433 173.742 92.7418 173.705 93.621C173.616 95.7688 171.328 95.3703 170.565 94.2499Z" fill="black"/>
<path fill-rule="evenodd" clip-rule="evenodd" d="M246.182 78.3756C245.229 78.0448 244.278 77.7139 243.331 77.3734C241.129 76.5805 243.21 74.7963 244.519 74.9218C245.531 75.0186 246.52 75.473 247.493 75.9196C247.923 76.1168 248.35 76.3128 248.774 76.476C253.007 78.1027 256.931 79.8816 260.885 82.4065C261.475 82.7835 264.073 84.5705 262.355 85.3618C261.452 85.7773 259.636 84.5268 258.364 83.6513C257.958 83.3715 257.607 83.1301 257.359 82.9932C253.769 81.0122 249.966 79.6905 246.182 78.3756ZM282.129 118.524C267.969 107.281 253.87 96.2695 237.855 89.8288C237.02 89.4935 236.761 88.5406 237.198 87.5967C237.66 86.6017 238.547 86.6382 239.333 86.6706L239.4 86.6734C241.472 86.7572 243.496 87.5947 245.455 88.4058L245.705 88.509C250.185 90.3609 254.453 92.9299 258.661 95.6151C266.039 100.321 273.139 106.016 279.647 112.49C281.007 113.843 282.402 114.94 283.882 116.046C283.973 116.115 284.069 116.185 284.167 116.257C285.081 116.928 286.214 117.76 286.543 119.065C287.47 122.737 282.793 119.051 282.129 118.524ZM53.486 115.182C48.3115 120.334 43.255 125.699 38.577 131.578C36.9114 133.672 35.5233 136.067 34.1365 138.46C33.5015 139.556 32.8665 140.651 32.2052 141.717C32.1343 141.831 32.0561 141.965 31.971 142.11C31.4388 143.018 30.6425 144.376 29.7737 144.226C28.6682 144.036 28.4447 141.599 28.48 140.535C28.6007 136.906 31.1905 133.401 33.0373 130.902C35.1148 128.092 37.336 125.354 39.6043 122.795C42.1017 119.978 44.8121 117.557 47.574 115.187C48.5833 114.321 49.5768 113.404 50.5725 112.486C52.2517 110.938 53.9356 109.386 55.7066 108.062C57.0351 107.069 59.2411 106.691 58.5181 109.68C58.0957 111.426 56.4368 112.748 54.9893 113.902C54.4283 114.349 53.8992 114.771 53.486 115.182ZM34.9522 108.039C37.865 106.879 40.5659 105.077 43.2667 103.275C45.0266 102.102 46.7867 100.928 48.6051 99.9314C49.9128 99.2146 51.2395 98.559 52.5659 97.9034C53.7591 97.3134 54.9519 96.7238 56.1312 96.0901C56.2422 96.0301 56.3625 95.9734 56.4862 95.9147C57.1038 95.6224 57.8046 95.2903 57.8882 94.3589C58.0027 93.0696 57.4145 93.108 56.696 93.155C56.6498 93.1578 56.6026 93.1611 56.5552 93.1635C54.9174 93.2579 53.1857 94.1868 51.5493 95.0647C50.8738 95.4276 50.2141 95.7815 49.5841 96.0641C49.0231 96.316 48.4615 96.5618 47.9002 96.8072C46.1422 97.5766 44.3893 98.344 42.6747 99.2847C40.3934 100.536 38.0637 101.831 36.0093 103.632C35.9365 103.696 35.8606 103.761 35.7828 103.828C35.1025 104.414 34.2792 105.124 33.985 106.091C33.6904 107.058 33.8527 108.478 34.9522 108.039Z" fill="black"/>
<path fill-rule="evenodd" clip-rule="evenodd" d="M155.548 83.1482C155.823 82.1148 159.228 70.8159 157.895 70.4753C156.484 70.1137 154.597 76.6694 154.187 77.8539C152.675 82.2281 151.78 86.9215 151.078 91.6136C150.589 94.8807 150.16 98.2276 150.331 101.568C150.463 104.135 151.291 104.523 152.656 106.096C152.656 98.2993 153.582 90.528 155.548 83.1482Z" fill="black"/>
</svg>
