<svg width="340" height="312" viewBox="0 0 340 312" fill="none" xmlns="http://www.w3.org/2000/svg">
<g clip-path="url(#clip0_4_1851)">
<path d="M340 0H0V312H340V0Z" fill="white"/>
<path fill-rule="evenodd" clip-rule="evenodd" d="M193.16 258.661C225.995 258.661 254.809 236.249 238.627 205.806C222.445 175.364 282.571 176.348 300.234 155.308C321.773 129.649 315.535 20.7319 177.259 87.1332C155.109 97.7699 98.2228 76.1903 79.3533 86.8978C57.1418 99.5013 25.8919 125.31 57.1418 151.746C72.5351 164.768 17.347 198.568 41.5183 228.843C65.1032 258.385 81.6363 230.223 117.544 236.249C153.452 242.274 168.775 258.661 193.16 258.661Z" fill="#092C4C"/>
<path d="M155.049 205.701C155.049 205.701 162.61 202.438 165.432 200.167C168.255 197.897 171.764 192.256 171.764 192.256C171.764 192.256 210.308 217.8 235.44 214.156C241.23 213.316 252.513 209.785 253.232 203.561C255.197 186.568 228.013 182.226 233.951 173.608C237.576 168.348 248.836 176.177 248.836 176.177L295.537 197.256C295.537 197.256 279.403 233.752 240.249 235.214C192.085 237.014 155.049 205.701 155.049 205.701Z" fill="white"/>
<path fill-rule="evenodd" clip-rule="evenodd" d="M118.023 62.7772C117.585 62.6191 115.231 59.9742 112.242 59.4929C110.884 59.2741 112.117 60.8607 110.622 60.8752C106.171 60.9177 98.9373 60.1502 97.5972 60.8752C96.6013 61.4123 98.7945 63.2881 97.5972 63.3742C86.2993 64.187 69.0635 74.5384 65.3245 79.5603C64.134 81.1586 73.7592 78.4471 72.2255 79.2371C70.5042 80.124 68.5952 85.9309 67.4542 90.4154C66.664 93.5038 66.1663 97.4783 65.9908 101.802C65.8444 105.535 65.9029 106.153 66.4882 108.194C67.1614 110.476 67.6881 111.148 68.5952 110.825C68.9176 110.718 69.0635 110.315 69.0635 109.563C69.0635 108.972 69.4149 107.2 69.8537 105.615L70.6149 102.769L70.9367 103.95C71.3465 105.32 73.746 109.563 75.9116 112.651C76.0286 112.815 76.5308 112.607 76.9842 111.602C77.3972 110.686 77.2294 109.223 77.9312 107.654C79.5287 104.082 82.6663 99.438 86.2993 95.7202C91.6686 90.2261 93.4497 83.8671 98.4826 78.7628C107.876 69.2373 119.664 63.3683 118.023 62.7772Z" fill="white"/>
<path fill-rule="evenodd" clip-rule="evenodd" d="M72.3592 80.5329C70.8523 81.6449 68.6156 90.6629 68.5775 90.8135C67.7874 93.9019 67.0258 104.626 67.8041 106.657C68.583 108.687 70.7626 101.368 70.7626 101.368C70.7626 101.368 74.0579 109.22 76.9696 111.373C77.0938 111.465 73.5089 101.658 72.3592 95.9336C70.8415 88.377 73.2165 79.9002 72.3592 80.5329Z" fill="#E7EAEE"/>
<path fill-rule="evenodd" clip-rule="evenodd" d="M128.518 238.473C131.327 237.909 136.068 235.945 137.883 235.273C139.698 234.601 145.228 227.435 147.219 219.352C148.652 213.39 149.384 204.904 148.565 203.48C148.444 203.279 148.001 199.42 149.179 200.68C151.799 203.48 154.908 207.878 164.719 199.999C167.391 197.852 170.932 195.083 170 192.634C167.391 185.784 156.08 171.989 154.356 170.944C152.295 169.695 141.875 170.757 126.368 166.556C108.781 161.793 101.458 147.767 94.5762 149.593C89.0106 151.069 75.6758 160.143 72.3293 165.889C56.5297 193.018 75.6758 212.026 80.036 217.486L84.2696 219.164L84.4161 222.628L84.6205 224.803C85.0013 228.966 85.1473 229.342 87.1959 230.738C92.3172 234.31 102.414 237.64 111.544 238.822C115.788 239.359 125.007 239.171 128.518 238.473Z" fill="white"/>
<path fill-rule="evenodd" clip-rule="evenodd" d="M85.9343 221.36L86.1392 223.535C86.52 227.698 86.666 228.074 88.7146 229.47C91.7361 231.577 96.4888 233.6 101.753 235.148C105.412 236.223 109.319 237.069 113.063 237.553C117.307 238.09 126.525 237.902 130.037 237.204C131.773 236.859 117.494 226.566 109.083 229.47C102.623 231.701 87.3986 214.687 93.5889 210.242C100.533 205.255 87.8084 185.588 87.3986 181.319C86.9888 177.049 85.3754 176.029 85.3282 176.178C85.2811 176.328 85.2811 176.839 85.4076 178.07C85.9538 183.375 85.9343 221.36 85.9343 221.36Z" fill="#E7EAEE"/>
<path fill-rule="evenodd" clip-rule="evenodd" d="M84.4103 180.1C85.0245 179.991 85.6193 180.359 85.739 180.923C87.9476 191.335 97.2904 198.385 113.996 202.071C130.802 205.78 142.249 205.58 148.28 201.621C148.789 201.287 148.41 204.149 148.036 204.368C144.103 206.683 130.728 210.137 114.767 207.015C94.3596 203.024 84.7775 187.277 83.514 181.32C83.3948 180.756 83.7956 180.21 84.4103 180.1Z" fill="#FFB61D"/>
<path fill-rule="evenodd" clip-rule="evenodd" d="M75.8998 161.312C76.4434 161.027 96.7124 182.344 124.529 187.169C152.345 191.994 159.08 188.926 160.163 182.344C160.256 181.776 160.834 181.385 161.452 181.47C162.072 181.556 162.497 182.086 162.404 182.654C161.032 190.996 148.161 192.979 124.148 189.219C100.436 185.506 84.1795 176.685 75.4791 162.731C75.1681 162.233 75.3567 161.597 75.8998 161.312Z" fill="#FFB61D"/>
<path fill-rule="evenodd" clip-rule="evenodd" d="M192.65 160.131C191.889 159.889 191.07 159.352 190.543 158.734L189.665 157.74L192.767 154.921C197.537 150.624 201.195 146.22 204.356 140.983C205.409 139.237 208.072 133.41 208.072 132.846C208.072 132.658 208.395 131.906 208.775 131.127C209.36 129.999 209.799 129.57 211.058 128.925C212.55 128.119 214.248 127.851 214.979 128.307C216.384 129.167 216.384 131.879 214.979 136.552C213.428 141.681 211.35 145.36 207.048 150.651C206.375 151.456 205.117 153.041 204.209 154.142C201.781 157.096 200.2 158.519 198.064 159.62C195.957 160.694 194.728 160.829 192.65 160.131ZM213.662 157.714L215.769 158.573C216.206 158.758 221.026 160.883 226.816 163.436C236.15 167.552 248.006 172.779 248.078 172.779C248.195 172.779 248.744 171.614 248.868 170.255C249.161 167.328 250.243 163.353 251.502 160.587C252.087 159.352 252.555 157.808 252.555 157.674C252.555 157.612 252.08 157.436 251.301 157.148C250.373 156.805 249.017 156.303 247.522 155.646C240.147 152.396 225.719 145.763 223.934 144.769C222.178 143.83 221.827 143.749 221.827 144.367C221.827 145.172 220.042 148.905 218.666 150.919C217.935 152.02 216.501 154.007 215.477 155.323L213.662 157.714ZM247.58 167.945C248.419 168.392 246.966 169.046 246.615 169.154C244.547 169.315 242.112 168.958 240.118 167.891C239.075 167.213 230.863 163.026 225.415 160.249C222.925 158.98 221.013 158.005 220.627 157.794C219.398 157.123 218.227 156.398 218.023 156.183C217.408 155.458 217.994 155.136 219.72 155.27C220.758 155.35 245.767 166.981 247.58 167.945ZM128.618 238.252C130.876 237.798 134.38 236.441 136.611 235.577C137.157 235.366 137.626 235.184 137.983 235.052C139.798 234.38 145.328 227.214 147.318 219.131C148.752 213.169 149.484 204.683 148.665 203.259C148.171 202.435 151.106 205.2 153.292 207.26C153.954 207.884 154.548 208.444 154.957 208.818C167.716 220.447 186.709 229.792 206.434 234.169C216.267 236.372 223.261 237.15 232.655 237.15C248.429 237.15 260.867 234.304 272.163 228.047C272.7 227.749 273.202 227.476 273.681 227.216C277.619 225.077 279.965 223.802 286.386 217.17C293.587 209.732 299.994 192.464 302.13 186.502C303.066 183.816 305.35 173.135 305.35 170.47C305.35 167.314 304.15 165.824 302.511 164.293C299.613 161.688 295.692 160.748 292.444 161.876L290.922 162.413L290.453 160.99C289.78 158.841 288.376 157.123 286.21 155.834C282.991 153.873 282.523 153.739 279.626 153.739C277.372 153.739 276.757 153.846 275.323 154.464L273.655 155.162L273.304 154.196C272.631 152.208 270.373 149.438 268.622 148.637C267.068 147.926 264.379 147.861 262.505 148.18C258.408 148.878 255.482 150.624 254.282 153.068C253.931 153.819 253.492 154.411 253.316 154.411C253.17 154.411 247.405 152.933 240.527 150.14C239.367 149.667 238.277 149.224 237.254 148.808C224.905 143.785 222.228 142.696 222.471 141.332C222.676 140.177 222.617 139.533 222.266 138.539C221.651 136.874 220.949 136.418 218.959 136.418C217.379 136.418 217.379 136.418 217.554 135.693C218.491 131.584 218.462 129.221 217.467 127.717C216.794 126.723 216.003 126.32 214.189 126.078C213.135 125.944 212.638 126.025 211.467 126.616C210.677 126.992 210.004 127.26 209.945 127.206C209.887 127.153 210.092 125.676 210.414 123.93C212.813 111.013 210.96 99.8834 204.843 88.0673C204.785 87.9542 204.717 87.8206 204.639 87.6675C202.78 84.0042 195.303 69.2741 173.92 61.8414C172.953 61.5049 172.037 61.1796 171.156 60.8672C163.873 58.28 159.031 56.5599 147.348 56.5778C134.253 56.5977 129.818 58.2967 121.185 61.9221C119.985 62.4321 118.932 62.7275 118.844 62.6202C118.756 62.4858 118.2 62.1638 117.644 61.8951C117.088 61.6268 115.888 60.9553 115.01 60.4183C112.493 58.8604 110.942 58.216 110.152 58.377C109.245 58.592 109.245 59.2901 110.152 59.6125C110.532 59.7469 110.972 60.2032 111.147 60.66C111.527 61.6268 111.966 61.7341 112.23 60.9283C112.347 60.6329 112.522 60.4183 112.61 60.472C112.643 60.4869 112.755 60.5352 112.925 60.608C113.353 60.7919 114.151 61.1351 115.01 61.519C116.21 62.0561 117.527 62.6202 117.878 62.7545C118.522 62.9692 118.317 63.1306 115.537 64.6344C104.679 70.4888 95.8415 79.5926 90.8956 89.9585C90.1345 91.516 89.4617 92.4827 88.7591 93.0202C86.9739 94.3897 83.4623 98.2834 82.6427 99.8143C82.2039 100.647 81.2673 101.936 80.5356 102.688C79.8334 103.44 79.0722 104.407 78.8089 104.809C78.5749 105.239 78.341 105.534 78.2531 105.481C78.1946 105.4 78.2821 104.084 78.487 102.554C78.9263 98.9819 78.9263 98.0417 78.5749 97.9615C78.0482 97.8271 77.2875 99.707 76.9652 102.043C76.7312 103.466 76.6728 105.615 76.8192 107.817L76.9946 111.308L74.917 108.22C74.2025 107.187 73.499 106.155 72.9989 105.421V105.421L72.9985 105.42L72.9976 105.419L72.9967 105.418V105.417L72.9962 105.417L72.9953 105.416C72.6784 104.95 72.4436 104.606 72.3416 104.46C71.5805 103.44 71.1416 101.909 71.4635 101.399C71.6389 101.104 71.6099 100.969 71.3171 100.969C70.7028 100.969 69.5028 102.768 68.7127 104.836C68.3323 105.803 67.9515 106.608 67.8346 106.608C67.3957 106.608 67.6006 96.9947 68.0689 93.9063C69.0345 87.8102 71.5805 80.2906 72.722 80.2906C72.9559 80.2906 73.1608 80.1833 73.1608 80.0223C73.1608 79.5389 72.4001 79.7269 71.7854 80.3447C70.41 81.7142 68.5957 85.9303 67.4542 90.4152C66.6641 93.5036 66.1668 97.4781 65.9909 101.802C65.8449 105.534 65.9034 106.152 66.4886 108.193C67.1618 110.476 67.6886 111.147 68.5957 110.825C68.9176 110.717 69.064 110.315 69.064 109.562C69.064 108.972 69.4149 107.2 69.8542 105.615L70.6149 102.768L70.9367 103.95C71.3465 105.32 73.746 109.563 75.9116 112.651C77.4044 114.746 77.4334 114.88 77.9312 118.156C78.1946 120.009 79.0138 124.516 80.916 131.449C82.5969 137.575 92.0453 143.652 94.4049 145.17L94.4062 145.17C94.7163 145.37 94.9036 145.49 94.9339 145.521C95.2268 145.817 95.6366 145.978 95.8705 145.898C96.1339 145.817 96.2803 145.924 96.2803 146.22C96.2803 146.488 96.4852 146.837 96.7192 146.998C97.012 147.186 97.2169 147.911 97.2754 149.174C97.4218 151.698 99.47 156.532 101.05 158.116C102.075 159.137 104.211 159.566 106.581 159.19C108.133 158.976 108.572 158.815 108.425 158.492C108.338 158.278 108.893 158.546 109.655 159.083C118.551 165.314 127.564 169.046 137.69 170.657C141.612 171.275 148.109 171.624 151.65 171.383C154.781 171.195 154.781 171.195 154.635 171.759C154.43 172.511 154.693 172.967 158.995 179.654C162.419 184.945 162.712 185.294 166.516 188.865C174.593 196.519 183.402 202.454 193.382 207.046C202.776 211.343 217.774 214.914 231.485 216.043C245.195 217.17 255.043 205.623 255.014 202.669C254.955 198.613 254.34 195.955 252.848 193.377C251.385 190.879 250.419 190.02 246.029 187.334C241.142 184.354 238.128 181.91 236.138 179.305C234.879 177.667 234.411 175.814 234.411 174.82C234.411 174.176 235.318 172.725 236.665 172.43C237.894 172.135 238.128 172.161 239.503 172.779C240.322 173.128 242.459 174.041 244.215 174.82C246 175.572 247.727 176.324 248.078 176.485C249.113 176.749 249.551 178.609 249.788 179.617C249.841 179.842 249.884 180.025 249.921 180.137C250.331 181.534 252.27 183.337 253.521 183.951C255.718 185.029 261.13 185.173 262.623 183.696C263.004 183.32 264.265 182.857 264.525 182.998C264.785 183.138 265.725 184.3 265.725 185.24C265.754 186.851 266.661 188.328 268.592 189.805C272.251 192.598 275.089 193.27 277.957 192.034C279.45 191.39 280.673 191.138 280.673 191.138C280.673 191.138 281.893 192.567 281.967 193.054C282.541 196.87 288.697 198.47 290.336 198.631C290.712 198.665 291.443 198.518 292.185 198.368C293.178 198.168 294.191 197.963 294.404 198.184C294.822 198.617 287.41 209.866 286.386 211.289C276.64 224.717 257.676 232.934 234.469 233.794C219.398 234.357 200.873 230.49 184.807 223.455C174.535 218.916 165.434 213.357 155.688 205.569C153.991 204.226 152.03 202.696 151.328 202.159C150.625 201.648 148.957 199.903 147.67 198.292C145.504 195.606 144.275 194.639 144.275 195.552C144.275 195.955 145.68 198.425 147.289 200.869C147.933 201.836 148.342 202.508 148.197 202.4C148.05 202.293 147.582 204.226 147.143 206.697C145.709 214.619 143.338 222.434 140.939 227.295C139.622 229.927 137.097 231.892 136.335 232.429C133.526 234.389 129.321 235.271 123.497 235.808C116.122 236.479 105.264 234.975 96.9825 232.129C94.788 231.377 89.1394 229.202 88.7591 228.96C88.7364 228.939 88.6068 228.166 88.4259 227.088C88.3747 226.784 88.3198 226.456 88.2618 226.113C87.2082 219.48 85.7449 193.941 85.7449 182.125C85.7449 177.237 85.6864 176.163 85.335 176.163C84.6034 176.163 84.311 176.808 83.9891 179.117C83.2574 184.38 83.4038 211.853 84.194 217.627L84.3694 218.943L83.3744 218.433C81.8525 217.627 76.058 212.229 74.0389 209.732C72.3294 207.596 71.3134 204.862 70.5532 202.816C70.3764 202.34 70.2137 201.902 70.0586 201.516C65.8154 190.721 67.3078 178.607 73.1608 167.703C78.1361 158.412 84.2525 153.256 93.2076 150.758C94.6705 150.355 95.9585 149.926 96.1049 149.818C96.6607 149.335 93.0902 149.577 91.1296 150.14C84.7498 151.94 78.0776 156.854 73.5416 163.138C67.1618 171.947 64.2936 184.945 66.3127 196.036C66.781 198.667 68.6832 204.361 69.21 204.763C69.2567 204.806 69.4974 205.27 69.8614 205.97C70.8683 207.908 72.8176 211.661 74.2143 213.357C75.9116 215.479 81.0334 220.097 83.1695 221.521L84.5159 222.407L84.7208 224.582C85.1011 228.745 85.2476 229.121 87.2957 230.517C92.4175 234.089 102.514 237.419 111.644 238.601C115.888 239.138 125.106 238.95 128.618 238.252ZM227.534 213.035C210.531 211.665 189.987 204.226 175.12 192.732C168.858 187.871 160.722 178.419 157.503 173.182C156.829 172.108 156.332 171.598 155.747 171.463C155.132 171.302 155.659 171.141 158.176 170.765C168.799 169.1 179.129 165.045 187.47 159.271L188.699 158.439L189.05 159.217C189.841 160.963 192.884 162.736 195.137 162.736C196.044 162.736 199.088 161.473 200.932 160.319L202.19 159.54L203.214 160.48C204.151 161.339 204.326 161.393 206.083 161.393C208.102 161.393 210.531 160.56 211.877 159.378L212.608 158.761L214.686 160.023C215.798 160.748 218.901 162.332 221.564 163.595C225.544 165.475 229.758 167.65 233.767 169.906L234.411 170.282L233.796 171.034C233.153 171.839 231.953 173.37 231.953 175.706C231.953 178.338 234.936 183.067 240.644 186.314C245.13 188.865 252.848 193.884 252.555 201.218C252.52 202.105 251.443 204.307 250.009 206.294C249.073 207.556 246.468 209.436 244.098 210.537C240.059 212.39 232.948 213.464 227.534 213.035ZM71.493 92.4827C72.2831 92.6441 72.8099 92.8858 72.6925 92.9932C72.3121 93.3422 70.293 93.1812 69.8247 92.7515C69.093 92.1071 69.2685 91.6503 70.293 91.4623C70.8198 91.382 71.6099 90.9789 72.0488 90.5762C72.488 90.1735 72.8684 89.9855 72.8684 90.1199C72.8684 90.4689 71.405 91.704 70.6733 91.9727C70.205 92.1608 70.3515 92.241 71.493 92.4827ZM83.1405 92.9125C83.9891 92.4827 83.8132 92.1874 82.8181 92.3217C81.8235 92.4561 81.765 92.3488 82.4088 91.4357C82.6722 91.0866 82.8181 90.5762 82.7597 90.3075C82.6722 89.9585 82.4673 90.1199 81.999 90.9789C81.6476 91.5967 81.1503 92.1071 80.916 92.1071C80.1847 92.1071 80.1258 92.6441 80.8285 92.8858C81.7356 93.2349 82.4378 93.2349 83.1405 92.9125ZM73.0148 78.2497C72.3121 78.357 70.1176 79.1628 68.1859 80.0489C66.2252 80.9084 64.557 81.6335 64.44 81.6068C61.4548 81.3115 65.6105 76.7459 73.1608 72.0734C80.3892 67.5885 85.2766 65.2252 89.8126 64.0167C92.6514 63.2646 95.8415 63.1572 96.7486 63.775C97.2459 64.124 97.0705 64.1511 94.9049 64.1777C90.2224 64.1777 84.8083 66.38 75.9996 71.7776C71.4345 74.5706 66.1373 78.5721 66.1373 79.2165C66.1373 79.3509 66.9859 79.0821 68.0395 78.6528C70.293 77.7127 72.605 77.2293 73.6291 77.4443C74.7121 77.7127 74.4777 78.0617 73.0148 78.2497ZM84.34 80.5593C87.0913 80.0489 87.2082 80.0223 87.2082 79.7536C87.2082 79.6196 86.1547 79.4852 84.8377 79.4316L82.4673 79.3509L84.6618 77.0683C85.8618 75.8061 87.2667 74.544 87.764 74.2486C88.847 73.6038 88.9055 73.1475 88.0274 72.8787L87.3546 72.6907L88.0859 72.449C88.4957 72.3151 89.2568 72.261 89.7836 72.3417C90.5738 72.449 90.7492 72.3953 90.6613 72.0193C90.5738 71.6436 90.2519 71.5629 88.8176 71.59C84.6328 71.6436 82.8476 72.6641 86.1252 73.1475C87.0323 73.2818 87.7935 73.4965 87.7935 73.6309C87.7935 73.7382 87.647 73.8455 87.4716 73.8455C86.9154 73.8455 82.2039 78.2231 81.6186 79.2972C80.7115 80.8817 81.2088 81.1234 84.34 80.5593ZM103.655 70.1398C102.807 70.1935 102.602 70.3274 102.66 70.7035L102.669 70.7584C102.702 70.9568 102.721 71.0712 102.672 71.1057C102.607 71.1523 102.418 71.0546 101.976 70.8241L101.899 70.7842C101.343 70.5154 101.285 70.3815 101.607 70.1664C101.811 70.0054 102.367 69.7637 102.807 69.683L103.626 69.495L103.011 68.9043C102.689 68.5552 102.514 68.2328 102.602 68.1255C102.836 67.9109 105.704 68.2062 106.113 68.5016C106.289 68.6355 106.552 68.6089 106.728 68.4479C107.138 68.0719 107.693 68.3672 107.693 68.9579C107.693 69.2803 107.606 69.307 107.343 69.0653C107.108 68.8506 106.903 68.8506 106.64 69.0386C106.406 69.2267 106.231 69.2267 106.084 69.0116C105.996 68.8772 105.44 68.7433 104.855 68.7433C104.315 68.7433 104.06 68.7433 104.007 68.8377C103.961 68.9222 104.078 69.0827 104.299 69.3877C104.766 70.057 104.738 70.0591 103.665 70.139L103.655 70.1398ZM99.2066 62.9962C99.2066 62.6472 98.8557 62.0295 98.4164 61.6268L97.5973 60.8746L101.987 61.0356C104.416 61.1434 107.167 61.3851 108.133 61.6268C109.098 61.8414 110.21 62.0024 110.62 62.0024C111.235 62.0024 111.117 61.8951 109.976 61.331C107.986 60.3912 105.44 59.9349 100.553 59.6125C94.7 59.2364 91.7443 59.7469 92.3001 61.0893C92.388 61.358 92.8563 61.4924 93.5585 61.4924C94.9924 61.4924 97.3339 62.2712 98.124 62.9962C98.9727 63.775 99.2066 63.775 99.2066 62.9962ZM84.9252 134.108C87.2957 136.901 90.4273 140.07 91.8907 141.144C92.7684 141.789 93.5295 142.326 93.588 142.326C93.617 142.326 92.9733 141.09 92.1541 139.586C88.847 133.544 86.9154 127.529 86.0082 120.6C85.8033 119.069 85.4815 117.78 85.1301 117.243C84.4279 116.169 84.4279 114.772 85.1596 113.457C85.54 112.759 85.7449 111.872 85.7449 110.905V109.429L84.34 110.771C82.9646 112.087 81.6476 112.624 81.6476 111.818C81.6476 111.228 83.8132 108.381 84.9547 107.495C85.8618 106.796 85.9788 106.555 86.2716 104.46C86.4765 103.198 86.9448 100.969 87.3252 99.4919C87.735 98.0151 87.9689 96.753 87.9104 96.6993C87.7055 96.5113 80.8285 103.759 79.8919 106.071C79.6861 106.579 79.1312 107.468 78.6919 108.005L77.9312 108.901C77.9312 108.901 78.1674 110.157 78.4285 111.734C78.6924 113.329 78.8161 114.424 78.9267 115.4C79.0741 116.706 79.1974 117.797 79.599 119.58C80.0673 121.782 80.5356 123.688 80.6526 123.823C80.7405 123.984 81.1209 125.219 81.5017 126.589C82.3208 129.623 83.6963 132.631 84.9252 134.108ZM203.683 159.513L203.068 158.949C203.068 158.949 213.268 147.057 215.096 142.675C216.491 139.331 217.312 138.383 218.419 138.383C219.039 138.383 219.544 138.512 219.778 138.835C220.188 139.398 220.583 140.097 220.056 142.487C219.179 146.354 217.832 148.905 213.793 154.411C212.857 155.673 211.657 157.069 211.131 157.553C209.902 158.6 207.136 159.674 205.526 159.916C204.502 160.05 204.209 159.996 203.683 159.513Z" fill="#F2994A"/>
<path d="M284.717 185.785C288.359 176.682 287.807 174.742 287.176 174.553C287.176 174.553 285.785 175.278 285.171 176.808C284.03 179.682 280.123 187.201 278.66 188.544C276.933 190.129 276.933 190.129 275.177 190.129C273.421 190.129 268.357 187.702 267.668 185.31C266.565 181.483 271.314 168.188 271.431 167.436L270.641 166.926C270.114 167.382 263.262 186.449 254.253 181.481C253.221 180.912 251.033 178.232 250.858 176.808C249.883 172.673 254.357 158.211 255.118 155.241C255.799 152.582 259.345 150.115 263.705 150.115C270.407 150.115 269.507 155.49 272.509 157.384C273.839 158.224 276.025 156.702 276.699 156.586C280.474 155.942 281.921 156.693 284.688 158.708C286.824 160.264 288.405 163.343 290.145 164.428C291.112 165.031 292.137 164.207 292.473 164.052C293.85 163.418 296.804 163.891 297.623 164.428C298.825 164.909 301.769 167.506 302.233 169.016C304.341 175.861 297.686 191.035 295.173 193.882C291.014 198.594 281.077 194.888 284.717 185.785Z" fill="white"/>
<path fill-rule="evenodd" clip-rule="evenodd" d="M116.473 160.841C124.492 165.487 132.76 168.522 142.184 169.354C149.617 169.999 159.639 169.112 166.838 166.964C172.896 165.165 181.09 160.181 186.563 155.964C197.186 147.8 203.888 135.048 206.814 121.514C207.224 119.607 207.849 114.814 207.819 110.061C207.819 104.528 205.166 89.411 197.128 80.6941C180.547 62.7154 153.293 54.6168 130.388 61.5369C122.125 64.0329 113.328 68.5557 106.685 74.4637C98.3149 81.9563 92.14 92.1612 89.6821 102.581C87.1067 113.591 90.4568 126.75 96.2803 137.546C100.933 146.14 108.601 156.249 116.473 160.841ZM194.611 128.389C189.109 143.561 174.769 154.894 156.742 158.332C153.991 158.842 152.089 159.03 148.226 159.084C145.504 159.164 142.782 159.137 142.227 159.084C129.613 157.687 120.014 153.417 111.176 145.307C107.313 141.735 105.674 139.802 103.275 135.988C99.4995 129.946 97.4803 123.769 96.8656 116.33C94.7585 90.8454 114.629 69.6027 142.607 67.4008C153.581 66.5414 165.755 69.6298 175.003 75.6451C178.427 77.8741 184.631 83.5138 186.563 86.1454C187.353 87.1929 195.02 97.4785 196.367 103.387C198.093 111.067 197.42 120.681 194.611 128.389Z" fill="white"/>
<path fill-rule="evenodd" clip-rule="evenodd" d="M207.83 110.06C207.83 128.085 198.538 147.792 186.547 156.208C180.826 160.223 173.349 165.085 166.838 166.964C157.296 169.716 142.183 169.354 142.183 169.354C142.183 169.354 157.602 167.462 163.316 165.352C179.7 159.301 188.645 150.013 194.168 141.101C205.07 123.508 207.83 109.622 207.83 110.06Z" fill="#E7EAEE"/>
<path fill-rule="evenodd" clip-rule="evenodd" d="M142.519 155.861C134.705 154.948 126.95 152.396 120.687 148.61C116.971 146.381 111.352 141.144 108.63 137.411C104.738 132.04 102.163 126.293 100.904 120.117C99.9972 115.632 100.026 108.73 100.933 104.729C101.87 100.647 103.07 97.5316 105.206 93.5842C107.694 89.0186 110.328 85.6619 114.278 82.0364C121.009 75.8597 128.823 71.9389 138.129 70.0589C141.144 69.4682 152.059 68.9848 152.44 69.4416C152.528 69.5756 153.113 69.925 153.728 70.2204C154.342 70.5423 155.981 71.6705 157.327 72.7713C159.346 74.3829 160.254 75.4033 162.01 77.9276C163.21 79.6465 164.175 81.204 164.175 81.3384C164.175 81.6337 165.112 82.1708 165.639 82.1708C166.37 82.1708 166.868 80.1565 167.014 76.6118C167.101 74.6512 167.277 73.04 167.394 73.04C167.804 73.04 172.311 75.3226 174.418 76.6118C178.544 79.1361 182.671 82.6808 185.714 86.3869C187.09 88.0518 187.295 88.4815 187.295 89.502C187.295 90.4421 187.587 91.1672 188.494 92.6174C190.777 96.2694 192.562 100.862 193.645 105.937C194.347 109.348 194.347 115.793 193.616 119.365C191.626 129.194 185.714 138.969 178.018 145.172C171.492 150.409 164.556 153.632 156.362 155.216C153.552 155.78 145.124 156.156 142.519 155.861ZM121.594 137.492C121.858 137.223 122.034 136.82 121.946 136.633C121.92 136.576 121.553 136.418 121.016 136.187C119.766 135.647 117.592 134.71 116.65 133.732C112.905 129.812 111.529 126.884 110.68 120.842C109.861 114.961 110.549 110.985 112.026 104.594C112.747 101.477 114.663 98.9023 115.854 97.3007C116.664 96.2112 117.14 95.5718 116.678 95.5177C115.537 95.3563 115.361 95.437 114.161 96.4845C111.586 98.7401 110.415 100.539 109.186 104.004C107.284 109.428 106.916 124.089 110.68 130.698C114.445 137.307 120.921 138.19 121.594 137.492ZM163.21 114.934C162.712 119.105 160.605 125.139 158.147 127.77C157.005 129.006 152.816 131.127 149.279 130.698C145.863 130.282 143.192 128.818 140.91 125.676C138.949 122.963 137.936 119.671 137.251 115.524C136.069 108.364 141.232 100.029 143.456 97.9613C145.709 95.8397 147.318 95.088 149.367 95.061C151.357 95.061 152.645 95.4641 154.664 96.7799C158.352 99.1432 164.175 106.827 163.21 114.934ZM123.76 92.7247C124.345 92.1069 124.433 91.8116 124.258 90.6568C124.141 89.5827 123.906 89.1529 123.292 88.6966C122.209 87.8908 120.863 87.8908 119.868 88.7502C119.166 89.368 119.078 89.5827 119.166 91.0595C119.253 92.644 119.312 92.7513 120.278 93.2347C121.565 93.8795 122.824 93.6915 123.76 92.7247ZM142.022 76.155C136.754 79.6195 134.471 81.0426 132.101 82.3854C130.228 83.4596 129.643 83.4866 129.643 82.5198C129.643 82.0094 130.052 81.4457 131.106 80.5592L132.569 79.3241L129.73 78.9751C126.54 78.599 123.438 77.7932 122.765 77.1755C121.653 76.1284 122.619 75.8867 125.78 76.4237C127.184 76.6384 129.906 76.9071 131.838 76.9608L135.349 77.0952L137.895 75.4033C143.485 71.6972 149.279 69.6026 152.059 70.247C153.786 70.623 153.581 71.0528 151.621 71.2674C149.367 71.5091 147.992 72.2076 142.022 76.155Z" fill="white"/>
<path d="M149.542 127.019C149.542 126.884 149.718 126.75 149.952 126.75C150.186 126.75 150.479 126.884 150.567 127.019C150.655 127.18 150.479 127.288 150.157 127.288C149.806 127.288 149.542 127.18 149.542 127.019Z" fill="white"/>
<path d="M151.299 126.776C151.299 126.481 152.03 126.212 152.85 126.212C153.493 126.239 153.493 126.239 152.938 126.615C152.293 127.071 151.299 127.152 151.299 126.776Z" fill="white"/>
<path d="M146.763 126.079C146.675 125.864 146.558 125.488 146.47 125.273C146.382 125.004 146.528 124.87 146.909 124.87C147.23 124.87 147.494 125.031 147.494 125.246C147.494 125.461 147.582 125.81 147.67 126.052C147.787 126.347 147.699 126.481 147.377 126.481C147.113 126.481 146.821 126.293 146.763 126.079Z" fill="white"/>
<path d="M148.313 125.406C148.167 124.601 148.489 124.332 149.542 124.332C149.864 124.332 150.128 124.601 150.245 125.057C150.479 125.836 150.099 126.212 149.074 126.212C148.606 126.212 148.401 126.024 148.313 125.406Z" fill="white"/>
<path d="M145.328 125.541C144.772 125.138 144.772 125.138 145.387 125.138C145.768 125.138 146.031 125.299 146.031 125.541C146.031 126.024 146.031 126.024 145.328 125.541Z" fill="white"/>
<path d="M151.211 125.513C150.83 125.164 151.006 124.117 151.474 123.956C152.323 123.66 152.703 123.795 152.879 124.493C152.996 124.896 153.054 125.245 152.996 125.272C152.762 125.513 151.386 125.675 151.211 125.513Z" fill="white"/>
<path d="M153.815 124.951C153.728 124.871 153.64 124.522 153.64 124.2C153.64 123.743 153.874 123.555 154.576 123.421C155.191 123.314 155.571 123.367 155.747 123.582C156.04 124.012 156.04 124.549 155.776 124.683C155.249 124.951 154.02 125.113 153.815 124.951Z" fill="white"/>
<path d="M143.982 124.118C143.982 123.796 144.246 123.527 144.626 123.447C145.387 123.259 145.358 123.232 145.504 123.93C145.563 124.333 145.416 124.494 144.801 124.548C144.158 124.628 143.982 124.521 143.982 124.118Z" fill="white"/>
<path d="M146.206 124.145C145.797 123.742 146.06 122.99 146.616 122.99C146.997 122.99 147.201 123.178 147.201 123.5C147.201 124.011 146.528 124.44 146.206 124.145Z" fill="white"/>
<path d="M147.962 123.34C147.728 122.83 148.226 122.454 149.191 122.454C149.63 122.454 149.835 122.615 149.835 122.964C149.835 123.259 149.572 123.528 149.191 123.635C148.226 123.85 148.167 123.85 147.962 123.34Z" fill="white"/>
<path d="M156.42 123.258C156.507 123.124 156.654 122.99 156.742 122.99C156.83 122.99 156.8 123.124 156.712 123.258C156.625 123.419 156.478 123.527 156.39 123.527C156.303 123.527 156.332 123.419 156.42 123.258Z" fill="white"/>
<path d="M150.596 122.802C150.362 122.265 150.654 121.996 151.591 121.862C152.118 121.808 152.352 121.916 152.411 122.292C152.616 123.178 150.947 123.662 150.596 122.802Z" fill="white"/>
<path d="M143.573 122.346C143.309 121.46 143.368 121.379 144.129 121.379C144.538 121.379 144.86 121.487 144.86 121.621C144.86 121.755 144.948 122.051 145.036 122.266C145.123 122.534 144.948 122.696 144.451 122.776C143.894 122.883 143.69 122.776 143.573 122.346Z" fill="white"/>
<path d="M153.347 122.05C153.347 121.567 153.552 121.352 154.108 121.217C154.927 121.029 155.395 121.405 155.395 122.265C155.395 122.614 155.162 122.721 154.371 122.721C153.464 122.721 153.347 122.641 153.347 122.05Z" fill="white"/>
<path d="M142.694 122.05C142.607 121.836 142.665 121.647 142.811 121.647C142.987 121.647 143.104 121.836 143.104 122.05C143.104 122.265 143.046 122.453 142.987 122.453C142.929 122.453 142.811 122.265 142.694 122.05Z" fill="white"/>
<path d="M145.65 122.265C145.241 121.916 145.475 121.164 146.002 121.03C146.323 120.95 146.645 120.976 146.733 121.057C147.085 121.352 146.88 122.131 146.44 122.292C145.885 122.48 145.885 122.48 145.65 122.265Z" fill="white"/>
<path d="M156.098 122.078C155.776 121.299 156.127 120.708 156.947 120.628C157.561 120.547 157.737 120.654 157.737 121.084C157.737 121.97 157.415 122.454 156.829 122.454C156.507 122.454 156.186 122.293 156.098 122.078Z" fill="white"/>
<path d="M147.699 121.728C147.348 121.432 147.465 120.895 147.962 120.734C148.518 120.546 149.689 121.083 149.367 121.379C148.957 121.701 147.904 121.943 147.699 121.728Z" fill="white"/>
<path d="M150.245 121.056C149.981 120.68 150.918 120.036 151.679 120.036C152.03 120.036 152.176 120.197 152.118 120.492C152.001 121.029 150.508 121.459 150.245 121.056Z" fill="white"/>
<path d="M142.226 120.869C142.226 120.734 142.139 120.439 142.051 120.197C141.963 119.956 141.992 119.768 142.168 119.768C142.548 119.768 142.841 120.788 142.49 121.003C142.344 121.084 142.226 121.03 142.226 120.869Z" fill="white"/>
<path d="M143.016 120.251C142.841 119.661 143.192 119.231 143.865 119.231C144.246 119.231 144.626 120.278 144.392 120.627C144.07 121.084 143.163 120.816 143.016 120.251Z" fill="white"/>
<path d="M145.065 120.385C144.626 119.982 144.889 119.015 145.475 118.881C145.914 118.774 146.148 118.908 146.382 119.391C146.557 119.74 146.645 120.089 146.587 120.143C146.294 120.385 145.24 120.573 145.065 120.385Z" fill="white"/>
<path d="M152.966 120.385C152.586 120.036 152.762 119.821 153.64 119.526C154.371 119.311 154.576 119.338 154.723 119.66C154.986 120.305 153.523 120.922 152.966 120.385Z" fill="white"/>
<path d="M155.542 119.767C155.249 119.337 155.659 118.961 156.42 118.961C157.327 118.961 157.591 119.659 156.771 119.875C155.893 120.089 155.747 120.063 155.542 119.767Z" fill="white"/>
<path d="M158.029 119.123C158.029 118.72 158.556 118.29 158.79 118.505C158.995 118.693 158.586 119.499 158.293 119.499C158.146 119.499 158.029 119.337 158.029 119.123Z" fill="white"/>
<path d="M141.846 118.774C141.729 118.693 141.641 118.344 141.67 118.049C141.67 117.539 141.699 117.539 141.963 118.13C142.256 118.774 142.197 119.097 141.846 118.774Z" fill="white"/>
<path d="M142.402 118.372C142.139 117.431 142.168 117.351 142.929 117.351C143.777 117.351 144.304 118.344 143.66 118.721C142.987 119.097 142.607 118.989 142.402 118.372Z" fill="white"/>
<path d="M152.469 118.908C152.469 118.828 152.615 118.398 152.791 117.915C153.2 116.841 154.108 116.787 154.313 117.834C154.4 118.237 154.43 118.586 154.4 118.613C154.254 118.774 152.469 119.016 152.469 118.908Z" fill="white"/>
<path d="M144.48 118.238C144.363 118.157 144.275 117.835 144.275 117.539C144.275 117.11 144.363 117.083 144.714 117.351C144.948 117.539 145.153 117.862 145.153 118.05C145.153 118.452 144.801 118.56 144.48 118.238Z" fill="white"/>
<path d="M155.015 117.7C154.84 116.867 155.22 116.491 156.127 116.598C156.566 116.652 156.712 116.894 156.712 117.485C156.712 118.156 156.595 118.317 155.952 118.371C155.308 118.452 155.162 118.317 155.015 117.7Z" fill="white"/>
<path d="M157.883 117.807C157.503 116.733 157.62 116.411 158.41 116.33C159.112 116.249 159.2 116.33 159.2 117.029C159.2 117.619 159.024 117.861 158.585 117.968C158.263 118.049 157.941 117.968 157.883 117.807Z" fill="white"/>
<path d="M141.407 116.276C141.407 115.766 141.465 115.551 141.553 115.819C141.612 116.061 141.612 116.491 141.553 116.759C141.465 117.001 141.407 116.786 141.407 116.276Z" fill="white"/>
<path d="M142.139 116.626C141.758 116.304 141.934 115.257 142.402 115.095C143.075 114.853 143.397 115.149 143.397 116.035C143.397 116.599 143.251 116.814 142.87 116.814C142.577 116.814 142.226 116.733 142.139 116.626Z" fill="white"/>
<path d="M143.894 115.9C143.777 115.498 143.719 115.068 143.836 114.987C144.128 114.719 144.304 115.149 144.216 115.927L144.128 116.679L143.894 115.9Z" fill="white"/>
<path d="M153.347 115.713C153.347 115.417 153.493 115.256 153.64 115.337C153.815 115.417 153.932 115.686 153.932 115.901C153.932 116.116 153.815 116.277 153.64 116.277C153.493 116.277 153.347 116.035 153.347 115.713Z" fill="white"/>
<path d="M154.664 116.063C154.254 115.659 154.576 114.934 155.249 114.773C156.098 114.585 156.127 114.585 156.391 115.364C156.566 115.848 156.449 115.955 155.688 116.063C155.22 116.143 154.752 116.116 154.664 116.063Z" fill="white"/>
<path d="M157.356 115.552C157.034 115.283 157.122 114.397 157.444 114.397C157.62 114.397 157.736 114.29 157.736 114.128C157.736 113.994 157.561 113.86 157.327 113.86C156.829 113.86 156.42 112.544 156.829 112.168C157.356 111.685 157.941 112.195 158.293 113.511C158.498 114.209 158.703 115.015 158.79 115.283C158.907 115.632 158.79 115.74 158.234 115.74C157.854 115.74 157.444 115.659 157.356 115.552Z" fill="white"/>
<path d="M158.936 114.129C158.732 113.323 158.205 111.712 157.824 110.53C157.239 108.812 157.181 108.382 157.503 108.194C157.707 108.059 157.971 107.952 158.059 107.952C158.381 107.952 159.551 113.457 159.434 114.532L159.346 115.606L158.936 114.129Z" fill="white"/>
<path d="M141.114 113.994C141.114 113.564 141.173 113.403 141.261 113.672C141.319 113.913 141.319 114.289 141.261 114.477C141.173 114.638 141.114 114.45 141.114 113.994Z" fill="white"/>
<path d="M141.699 113.939C141.817 113 142.665 112.785 142.899 113.644C143.104 114.342 143.163 114.262 142.285 114.53C141.67 114.691 141.612 114.638 141.699 113.939Z" fill="white"/>
<path d="M154.049 113.698C153.815 112.919 154.313 112.462 155.249 112.57C155.952 112.65 156.215 113.805 155.63 114.154C154.898 114.584 154.225 114.396 154.049 113.698Z" fill="white"/>
<path d="M143.397 113.483C143.397 113.026 143.543 112.785 143.865 112.785C144.158 112.785 144.275 112.973 144.216 113.375C144.07 114.235 143.397 114.316 143.397 113.483Z" fill="white"/>
<path d="M140.792 112.356C140.792 112.06 140.88 111.98 140.968 112.195C141.056 112.383 141.027 112.624 140.939 112.705C140.851 112.812 140.763 112.651 140.792 112.356Z" fill="white"/>
<path d="M141.348 112.275C141.348 111.871 141.524 111.71 141.963 111.71C142.373 111.71 142.519 111.845 142.46 112.167C142.314 112.865 141.348 112.946 141.348 112.275Z" fill="white"/>
<path d="M142.958 112.033C142.753 111.55 142.753 111.55 143.631 111.335C144.158 111.174 144.275 111.255 144.275 111.657C144.275 112.302 143.221 112.624 142.958 112.033Z" fill="white"/>
<path d="M153.552 111.657C153.347 110.986 153.727 110.637 154.752 110.637C155.249 110.637 155.395 110.798 155.395 111.308C155.395 111.711 155.22 111.98 154.986 111.98C154.752 111.98 154.371 112.06 154.137 112.141C153.874 112.221 153.669 112.06 153.552 111.657Z" fill="white"/>
<path d="M156.098 111.04C155.864 110.503 156.215 110.1 156.888 110.1C157.298 110.1 157.444 110.288 157.444 110.772C157.444 111.255 157.298 111.443 156.859 111.443C156.537 111.443 156.186 111.255 156.098 111.04Z" fill="white"/>
<path d="M141.056 110.664C141.056 110.099 141.729 109.455 142.022 109.75C142.139 109.831 142.227 110.207 142.227 110.556C142.227 110.986 142.051 111.174 141.641 111.174C141.261 111.174 141.056 110.986 141.056 110.664Z" fill="white"/>
<path d="M142.665 110.341C142.431 109.67 142.694 109.374 143.689 109.24C144.597 109.132 144.889 110.019 144.099 110.556C143.339 111.066 142.87 110.985 142.665 110.341Z" fill="white"/>
<path d="M153.259 110.181C153.054 110.02 152.966 109.026 153.142 109.026C153.171 109.026 153.611 108.918 154.137 108.784C155.015 108.542 155.074 108.569 155.045 109.295C155.015 109.832 154.84 110.1 154.401 110.208C153.611 110.396 153.493 110.396 153.259 110.181Z" fill="white"/>
<path d="M152.176 109.562C152.176 109.374 152.264 109.294 152.381 109.374C152.469 109.482 152.469 109.643 152.381 109.75C152.264 109.831 152.176 109.75 152.176 109.562Z" fill="white"/>
<path d="M155.454 109.132C155.542 108.676 156.449 108.004 156.654 108.219C156.742 108.3 156.888 108.622 156.976 108.971C157.181 109.508 157.093 109.562 156.274 109.562C155.571 109.562 155.366 109.454 155.454 109.132Z" fill="white"/>
<path d="M141.348 109.106C141.348 108.971 141.495 108.703 141.641 108.488C141.875 108.166 141.934 108.193 141.934 108.703C141.934 109.026 141.817 109.294 141.641 109.294C141.495 109.294 141.348 109.213 141.348 109.106Z" fill="white"/>
<path d="M142.226 108.515C142.226 107.763 142.841 107.521 143.309 108.085C143.602 108.488 143.602 108.622 143.309 108.81C142.694 109.159 142.226 109.052 142.226 108.515Z" fill="white"/>
<path d="M151.123 108.167C150.596 107.63 150.596 107.603 151.094 107.764C151.386 107.872 151.767 107.952 151.913 107.952C152.059 107.952 152.176 108.14 152.176 108.355C152.176 108.919 151.767 108.865 151.123 108.167Z" fill="white"/>
<path d="M144.831 108.139C143.573 107.253 143.397 105.266 144.568 105.266C145.358 105.266 146.089 106.394 145.972 107.441C145.885 108.408 145.533 108.623 144.831 108.139Z" fill="white"/>
<path d="M152.85 108.3C152.966 108.22 153.142 108.22 153.259 108.3C153.347 108.408 153.259 108.488 153.054 108.488C152.85 108.488 152.762 108.408 152.85 108.3Z" fill="white"/>
<path d="M157.269 107.253C157.357 107.011 157.444 106.769 157.444 106.716C157.444 106.662 157.59 106.608 157.737 106.608C157.912 106.608 158.029 106.85 158.029 107.145C158.029 107.467 157.824 107.683 157.561 107.683C157.239 107.683 157.152 107.548 157.269 107.253Z" fill="white"/>
<path d="M141.934 107.172C141.934 106.555 142.548 105.534 142.899 105.534C143.514 105.534 143.075 107.253 142.431 107.36C142.168 107.414 141.934 107.333 141.934 107.172Z" fill="white"/>
<path d="M148.518 106.877L147.64 106.689L148.43 106.501C149.25 106.286 149.835 106.447 149.835 106.904C149.835 107.172 149.806 107.172 148.518 106.877Z" fill="white"/>
<path d="M147.494 105.587C147.494 104.486 148.167 104.325 148.782 105.292C149.192 105.936 149.221 106.071 148.84 106.071C148.606 106.071 148.226 106.151 147.962 106.232C147.611 106.366 147.494 106.205 147.494 105.587Z" fill="white"/>
<path d="M152.586 105.964C151.269 105.426 150.421 104.003 150.421 102.311C150.421 101.103 150.537 100.808 151.328 100.136C151.825 99.7064 152.323 99.3574 152.469 99.3574C153.113 99.3574 155.483 101.425 156.274 102.714L157.181 104.191L156.215 105.131C155.103 106.205 153.874 106.501 152.586 105.964Z" fill="white"/>
<path d="M146.47 105.266C146.382 105.132 146.44 104.998 146.587 104.998C146.762 104.998 146.909 105.132 146.909 105.266C146.909 105.427 146.85 105.535 146.792 105.535C146.704 105.535 146.558 105.427 146.47 105.266Z" fill="white"/>
<path d="M142.636 104.836C142.724 104.595 142.811 104.353 142.811 104.299C142.811 104.246 143.075 104.192 143.397 104.192C144.128 104.192 144.158 104.622 143.426 104.998C142.636 105.373 142.431 105.347 142.636 104.836Z" fill="white"/>
<path d="M144.948 104.514C144.275 104.434 144.07 104.085 144.509 103.843C144.626 103.762 145.153 103.628 145.68 103.52C146.47 103.359 146.616 103.413 146.616 103.87C146.616 104.434 146.001 104.675 144.948 104.514Z" fill="white"/>
<path d="M147.201 103.601C147.201 103.279 147.231 103.091 147.289 103.145C147.318 103.198 147.553 103.467 147.758 103.736C148.109 104.112 148.08 104.192 147.67 104.192C147.377 104.192 147.201 103.977 147.201 103.601Z" fill="white"/>
<path d="M143.104 103.413C143.104 103.252 143.251 103.064 143.397 102.984C143.573 102.903 143.69 103.011 143.69 103.225C143.69 103.467 143.573 103.655 143.397 103.655C143.251 103.655 143.104 103.548 143.104 103.413Z" fill="white"/>
<path d="M144.187 103.009C143.953 102.472 146.03 101.881 146.382 102.391C146.645 102.821 146.382 103.009 145.27 103.224C144.597 103.358 144.304 103.305 144.187 103.009Z" fill="white"/>
<path d="M146.938 102.151C146.938 101.855 147.026 101.775 147.114 101.99C147.201 102.178 147.172 102.419 147.084 102.5C146.997 102.607 146.909 102.446 146.938 102.151Z" fill="white"/>
<path d="M144.451 101.721C144.801 101.13 145.826 100.164 146.089 100.164C146.382 100.164 146.411 101.426 146.118 101.587C145.972 101.641 145.504 101.775 145.065 101.882C144.421 102.017 144.275 101.99 144.451 101.721Z" fill="white"/>
<path d="M146.792 101.103C146.47 100.298 146.616 99.9482 147.318 99.8409C148.05 99.7065 148.05 99.7065 147.582 100.539C146.997 101.613 147.026 101.613 146.792 101.103Z" fill="white"/>
<path d="M146.616 99.4923C146.616 99.4382 147.201 99.0626 147.933 98.6865C148.811 98.2031 149.425 98.0421 149.864 98.1495C150.391 98.3104 150.245 98.4178 148.957 98.9819C147.523 99.5726 146.616 99.7877 146.616 99.4923Z" fill="white"/>
<path d="M162.858 75.6991C162.068 74.6516 160.4 72.9597 159.2 71.9393C158 70.9188 157.21 70.0864 157.444 70.0864C158.088 70.0864 163.005 71.3215 164.234 71.8049C165.258 72.2076 165.287 72.2617 165.024 73.0941C164.877 73.5775 164.76 74.786 164.76 75.7794C164.76 76.7998 164.672 77.6056 164.555 77.6056C164.409 77.6056 163.677 76.7462 162.858 75.6991Z" fill="white"/>
<path d="M103.304 157.042C102.104 156.478 101.84 156.156 100.319 153.39C98.124 149.469 98.0656 148.556 100.143 150.785C100.962 151.671 102.865 153.497 104.357 154.84C106.903 157.095 107.02 157.257 106.172 157.15C105.557 157.069 105.323 157.122 105.469 157.337C105.821 157.821 104.709 157.687 103.304 157.042Z" fill="white"/>
<path fill-rule="evenodd" clip-rule="evenodd" d="M152.349 205.97C152.106 205.441 152.376 204.831 152.953 204.608L153.584 204.363C159.714 201.956 163.233 200.51 165.624 198.214C168.014 195.918 168.3 192.546 168.749 190.494C168.873 189.931 170.262 190.92 170.876 191.033C171.49 191.146 171.887 191.694 171.764 192.258C171.224 194.725 169.769 197.077 167.428 199.309C165.095 201.534 160.577 203.92 153.833 206.525C153.256 206.748 152.592 206.499 152.349 205.97Z" fill="#F2994A"/>
<path fill-rule="evenodd" clip-rule="evenodd" d="M180.07 98.8185C180.608 98.5244 181.303 98.6867 181.623 99.18C184.829 104.122 186.547 109.771 186.547 115.648C186.547 133.454 170.817 147.888 151.413 147.888C146.257 147.888 141.256 146.868 136.677 144.923C136.109 144.682 133.963 142.762 136.124 143.543C138.286 144.324 146.648 146.077 151.474 146.077C169.625 146.077 182.467 132.305 182.467 115.648C182.467 110.148 180.07 105.266 179.676 100.244C179.63 99.6618 179.532 99.1122 180.07 98.8185Z" fill="#F2994A"/>
<path fill-rule="evenodd" clip-rule="evenodd" d="M67.8273 177.531C68.2276 177.089 68.9425 176.198 69.4235 176.565C71.3964 178.073 73.5017 179.82 75.7538 180.158C78.0976 180.509 80.8779 180.509 84.0911 180.152C84.7126 180.083 85.277 180.489 85.3523 181.059C85.4275 181.63 84.9846 182.148 84.3635 182.217C80.9508 182.596 77.9607 182.596 75.3889 182.211C72.7256 181.812 70.2486 180.735 67.9728 178.995C67.4918 178.628 67.4266 177.972 67.8273 177.531Z" fill="#F2994A"/>
<path d="M91.8906 141.144C90.4273 140.07 87.2957 136.901 84.9252 134.108C83.6962 132.631 82.3208 129.624 81.5012 126.589C81.1208 125.22 80.7405 123.984 80.6525 123.823C80.5356 123.689 80.0673 121.782 79.599 119.58C78.8968 116.465 79.0454 115.461 78.4285 111.735C78.1673 110.157 77.9312 108.902 77.9312 108.902L78.6918 108.005C79.1307 107.468 79.686 106.579 79.8918 106.072C80.8284 103.759 87.7055 96.5114 87.9104 96.6994C87.9689 96.7531 87.7349 98.0152 87.3251 99.4924C86.9448 100.969 86.4765 103.198 86.2716 104.46C85.9787 106.555 85.8618 106.797 84.9546 107.495C83.8132 108.382 81.6476 111.228 81.6476 111.819C81.6476 112.624 82.9645 112.087 84.3399 110.771L85.7448 109.429V110.906C85.7448 111.873 85.5399 112.759 85.1596 113.457C84.4279 114.773 84.4279 116.169 85.1301 117.244C85.4814 117.781 85.8033 119.069 86.0082 120.6C86.9153 127.529 88.847 133.545 92.154 139.587C92.9732 141.091 93.6169 142.326 93.5879 142.326C93.5294 142.326 92.7683 141.789 91.8906 141.144Z" fill="white"/>
<path fill-rule="evenodd" clip-rule="evenodd" d="M213.662 157.714L215.769 158.573C216.206 158.758 221.026 160.884 226.816 163.437C236.15 167.552 248.005 172.779 248.078 172.779C248.195 172.779 248.744 171.614 248.868 170.255C249.161 167.328 250.243 163.353 251.502 160.587C252.087 159.352 252.555 157.808 252.555 157.674C252.555 157.613 252.08 157.437 251.301 157.148C250.373 156.805 249.017 156.303 247.522 155.646C240.147 152.397 225.719 145.764 223.934 144.77C222.178 143.83 221.827 143.749 221.827 144.367C221.827 145.173 220.042 148.906 218.666 150.919C217.935 152.021 216.501 154.008 215.477 155.324L213.662 157.714ZM247.58 167.946C248.419 168.392 246.966 169.047 246.615 169.154C244.547 169.315 242.112 168.958 240.118 167.892C239.075 167.213 230.863 163.027 225.415 160.25C222.925 158.98 221.013 158.005 220.627 157.794C219.398 157.123 218.227 156.398 218.022 156.183C217.408 155.458 217.993 155.136 219.72 155.27C220.758 155.351 245.767 166.982 247.58 167.946Z" fill="white"/>
<path d="M192.65 160.131C191.889 159.889 191.07 159.352 190.543 158.735L189.665 157.741L192.767 154.921C197.537 150.624 201.049 145.928 204.209 140.692C205.263 138.946 208.395 131.906 208.775 131.128C209.36 130 209.799 129.57 211.057 128.925C212.55 128.12 214.248 127.851 214.979 128.308C216.384 129.167 216.384 131.88 214.979 136.552C213.428 141.681 211.35 145.361 207.048 150.651C206.375 151.457 205.117 153.041 204.209 154.142C201.78 157.096 200.2 158.519 198.064 159.621C195.957 160.695 194.728 160.829 192.65 160.131Z" fill="white"/>
<path d="M203.683 159.512L203.068 158.948C203.068 158.948 213.268 147.056 215.096 142.674C216.491 139.33 217.312 138.382 218.419 138.382C219.038 138.382 219.544 138.512 219.778 138.834C220.188 139.398 220.583 140.096 220.056 142.486C219.178 146.353 217.832 148.905 213.793 154.41C212.857 155.672 211.657 157.069 211.13 157.552C209.901 158.599 207.136 159.674 205.526 159.915C204.502 160.05 204.209 159.996 203.683 159.512Z" fill="white"/>
<path fill-rule="evenodd" clip-rule="evenodd" d="M220.816 147.078C221.406 145.839 221.827 144.758 221.827 144.367C221.827 143.749 222.178 143.83 223.934 144.77C225.719 145.764 240.147 152.397 247.522 155.646C250.273 156.855 252.555 157.54 252.555 157.674C252.555 157.808 220.19 148.391 220.816 147.078Z" fill="#E7EAEE"/>
<path fill-rule="evenodd" clip-rule="evenodd" d="M120.687 148.609C116.97 146.38 111.351 141.144 108.63 137.41C104.738 132.039 102.162 126.293 100.904 120.116C99.9967 115.631 100.026 108.73 100.933 104.728C101.87 100.646 103.069 97.5309 105.206 93.5831C107.693 89.0179 110.327 85.6612 114.278 82.0358C118.152 78.4806 100.933 93.1829 105.206 119.488C108.63 141.532 123.345 150.216 120.687 148.609Z" fill="#E7EAEE"/>
</g>
<defs>
<clipPath id="clip0_4_1851">
<rect width="340" height="312" fill="white"/>
</clipPath>
</defs>
</svg>
