<svg width="514" height="440" viewBox="0 0 514 440" fill="none" xmlns="http://www.w3.org/2000/svg">
<g clip-path="url(#clip0_4_2603)">
<path d="M536 0H0V501H536V0Z" fill="white"/>
<path fill-rule="evenodd" clip-rule="evenodd" d="M85.7357 349.067C126.262 375.332 172.293 351.964 206.787 342.406C234.186 334.815 325.834 372.287 371.367 372.287C416.899 372.287 525.469 338.461 449.186 229.549C344.011 79.3856 274.46 127.898 206.787 179.995C139.115 232.093 139.115 202.33 97.2025 232.093C55.2899 261.856 45.2102 322.801 85.7357 349.067Z" fill="#F2994A"/>
<path fill-rule="evenodd" clip-rule="evenodd" d="M57.6057 287.006C60.4062 285.208 64.1412 285.091 67.4045 285.972C70.6679 286.855 73.5636 288.624 76.3694 290.414C87.093 297.253 97.3334 304.755 107.003 312.853C108.88 314.425 110.756 316.041 112.158 318C114.914 321.847 115.426 327.417 112.196 330.928C109.896 333.43 106.126 334.448 102.609 334.176C99.0922 333.903 95.7862 332.493 92.7553 330.802C84.5209 326.209 77.8809 319.522 70.1746 314.188C65.1459 310.708 59.5063 307.66 56.0756 302.769C52.6447 297.877 52.4471 290.316 57.6057 287.006Z" fill="white"/>
<path d="M356.963 202.02C355.668 201.422 355.188 199.941 354.955 198.608C353.912 192.651 355.209 186.362 358.546 181.194C360.295 178.484 362.979 175.893 366.362 175.752C368.739 175.653 371.035 176.837 372.595 178.517C374.156 180.195 375.064 182.321 375.672 184.471C377.032 189.271 378.109 198.452 375.983 201.81C373.856 205.168 357.689 203.499 356.963 202.02Z" fill="white"/>
<path d="M343.482 239.982C340.84 232.182 339.901 223.882 340.737 215.738C340.815 214.974 340.955 214.13 341.594 213.647C342.232 213.164 388.75 209.975 390.515 210.688C391.644 218.476 392.038 226.355 391.692 234.208C391.569 236.974 390.502 240.563 387.54 240.631C374.885 240.921 362.23 241.211 349.575 241.502C348.86 241.518 344.43 242.78 343.482 239.982Z" fill="white"/>
<path fill-rule="evenodd" clip-rule="evenodd" d="M329.198 294.555C328.798 283.136 327.615 257.814 332.163 255.453C345.361 248.604 342.613 240.692 348.518 240.372C357.571 239.882 382.144 235.296 384.977 243.348C387.809 251.401 384.823 253.008 390.272 255.453C399.274 259.493 402.161 256.256 407.048 266.878C408.445 269.913 408.323 273.394 408.508 276.693C408.937 284.356 408.342 292.056 408.887 299.712C409.428 307.309 410.791 346.31 407.048 358.071C405.259 363.696 379.267 360.39 372.273 359.808C359.256 358.723 344.88 360.895 332.163 358.071C332.163 358.071 329.959 316.313 329.198 294.555Z" fill="white"/>
<path d="M296.999 207.852C299.215 207.411 300.793 209.77 301.607 211.745C308.387 228.183 312.866 245.357 318.658 262.121C328.949 291.902 343.406 320.454 351.167 350.896C351.52 352.277 351.787 353.925 350.736 354.951C349.92 355.748 348.614 355.842 347.435 355.884C319.32 356.905 291.192 357.633 263.059 358.069C262.399 358.079 261.695 358.078 261.144 357.739C260.563 357.381 260.286 356.73 260.044 356.12C244.963 318.115 232.295 279.275 222.127 239.87C221.879 238.91 216.172 213.508 216.486 212.864C216.925 211.966 218.127 211.697 219.171 211.552C244.908 207.954 271.546 212.913 296.999 207.852Z" fill="white"/>
<path d="M217.02 224.012C217.945 224.701 218.113 225.931 218.212 227.032C218.965 235.438 219.719 243.843 220.472 252.249C220.531 252.899 220.573 253.607 220.174 254.142C219.631 254.872 218.531 254.957 217.579 254.973C189.889 255.433 162.198 255.893 134.507 256.352C133.158 256.374 131.679 256.356 130.647 255.543C129.659 254.766 129.363 253.476 129.183 252.281C128.826 249.919 128.688 247.528 128.77 245.143C128.803 244.174 128.548 239.011 127.128 238.512C124.657 237.645 123.124 235.219 122.713 232.782C122.302 230.344 122.817 227.863 123.33 225.443C123.644 223.961 124.015 222.379 125.189 221.341C126.41 220.261 128.208 220.028 129.881 219.869C137.042 219.189 144.245 218.894 151.443 218.988C160.134 219.1 168.804 219.779 177.466 220.457C189.84 221.424 202.214 222.392 214.589 223.36C215.442 223.427 216.35 223.513 217.02 224.012Z" fill="white"/>
<path d="M215.299 259.39C217.459 289.587 217.098 319.941 214.22 350.086C214.103 351.303 213.95 352.599 213.124 353.547C211.882 354.969 209.64 355.081 207.676 355.075C185.619 355.007 163.562 354.724 141.51 354.227C140.595 354.207 139.53 354.112 139.032 353.394C138.76 353.002 138.728 352.511 138.705 352.044C137.247 322.324 135.789 292.547 137.476 262.84C137.57 261.192 138.519 258.94 140.207 259.425C141.392 259.765 197.179 258.94 215.299 259.39Z" fill="white"/>
<path fill-rule="evenodd" clip-rule="evenodd" d="M373.585 199.213C372.454 198.79 372.285 197.382 372.309 196.244C372.32 195.732 372.332 195.219 372.345 194.706C372.468 189.697 372.592 184.605 370.807 179.906C370.305 178.584 369.523 177.192 368.113 176.715C365.823 175.938 363.599 177.993 362.366 179.958C359.702 184.201 358.277 189.117 358.282 194.037V194.12C358.283 195.698 358.286 197.517 356.963 198.484C355.667 197.885 355.187 196.404 354.954 195.072C353.911 189.115 355.209 182.825 358.545 177.658C360.295 174.948 362.978 172.357 366.362 172.216C368.739 172.117 371.034 173.301 372.595 174.98C374.155 176.659 375.063 178.785 375.672 180.935C377.031 185.735 377.022 190.782 376.638 195.734C376.569 196.612 376.477 197.526 375.982 198.274C375.486 199.022 374.46 199.539 373.585 199.213ZM329.726 269.675L330.566 282.755C328.676 277.166 326.768 271.484 326.618 265.625C326.468 259.764 328.312 253.595 332.911 249.609C334.062 248.611 335.356 247.773 336.649 246.935L336.649 246.934C337.941 246.097 339.233 245.259 340.384 244.262C342.687 242.267 344.429 239.243 343.482 236.444C340.839 228.645 339.9 220.345 340.736 212.201C340.814 211.436 340.954 210.592 341.593 210.109C342.231 209.626 343.482 209.942 343.434 210.709C342.976 218.029 343.678 225.411 345.51 232.541C345.661 233.123 345.846 233.746 346.347 234.119C346.828 234.478 347.489 234.52 348.104 234.545C359.891 235.038 371.703 235.022 383.489 234.497C385.55 234.405 388.26 233.69 388.215 231.762L387.722 210.808C387.679 209.01 388.749 206.437 390.514 207.151C391.643 214.938 392.037 222.818 391.691 230.67C391.569 233.437 390.501 237.026 387.539 237.093L349.574 237.964C348.859 237.98 347.929 238.17 347.857 238.836C347.45 242.643 344.263 245.645 340.992 247.947C340.386 248.374 339.765 248.792 339.144 249.212C336.416 251.053 333.666 252.909 331.914 255.56C329.195 259.673 329.416 264.849 329.726 269.675ZM364.21 277.583C364.284 276.112 364.397 274.55 365.32 273.359C366.789 271.462 369.662 271.227 372.165 271.163L396.193 270.553C397.417 270.522 398.754 270.524 399.711 271.238C400.977 272.18 401.043 273.923 401.001 275.434C400.951 277.176 400.889 278.974 400.101 280.552C399.313 282.132 397.598 283.444 395.743 283.278C387.642 282.553 379.514 282.081 371.379 281.864C369.821 281.822 367.673 282.337 367.829 283.787C369.253 297.087 369.125 310.534 367.446 323.808C367.225 325.553 369.738 326.288 371.615 326.375L389.142 327.179C390.524 327.242 392.308 327.642 392.433 328.93C392.583 330.482 390.253 330.973 388.589 330.875L369.364 329.744C367.757 329.65 366.005 329.497 364.849 328.451C363.567 327.292 363.451 325.439 363.424 323.772C363.166 308.373 363.429 292.967 364.21 277.583ZM408.14 350.008C408.971 323.9 408.905 297.767 407.941 271.663C407.802 267.915 407.636 264.112 406.414 260.54C405.192 256.967 402.765 253.593 399.161 251.945C397.981 251.404 396.643 251.007 395.313 250.612C392.188 249.685 389.097 248.767 388.129 246.028C387.876 245.31 387.821 244.545 387.766 243.782C387.699 242.854 387.633 241.929 387.209 241.099C386.437 239.586 383.382 239.255 383.273 240.929C382.848 247.438 388.352 253.816 395.248 254.805C398.871 255.324 401.69 258.219 402.978 261.426C404.265 264.634 404.302 268.144 404.317 271.57C404.436 298.205 404.272 324.841 403.824 351.473C403.812 352.221 403.762 353.054 403.188 353.576C402.643 354.07 401.807 354.119 401.048 354.131C394.222 354.24 387.395 353.723 380.574 353.205C371.315 352.503 362.066 351.801 352.847 352.67C351.234 352.823 349.098 354.278 350.27 355.324C350.639 355.653 351.195 355.697 351.704 355.723L400.005 358.205C401.718 358.294 403.541 358.359 405.028 357.56C407.649 356.152 408.05 352.833 408.14 350.008ZM362.759 202.46C355.963 202.002 348.895 202.071 342.663 204.646C341.672 205.055 340.559 206.151 341.302 206.889C348.556 203.509 357.137 204.119 365.167 205.152C365.809 205.235 366.453 205.32 367.098 205.404C374.522 206.381 382.121 207.38 389.29 205.461C390.387 205.167 391.703 204.44 391.456 203.398C391.2 202.321 389.608 202.227 388.442 202.4C388.007 202.465 387.571 202.532 387.137 202.599C385.811 202.803 384.485 203.007 383.15 203.147C377.908 203.698 372.632 203.259 367.364 202.819C365.828 202.692 364.293 202.563 362.759 202.46ZM376.207 299.991C374.845 299.973 373.396 299.929 372.273 299.21C372.669 298.551 373.615 298.435 374.423 298.394L389.394 297.645C390.145 297.607 391.065 297.654 391.411 298.278C391.722 298.84 391.316 299.562 390.722 299.866C390.129 300.17 389.417 300.168 388.74 300.16L376.207 299.991ZM393.134 288.222L374.441 289.087C373.412 289.135 372.09 289.423 371.977 290.38L393.965 291.117C394.857 291.147 395.952 291.069 396.334 290.314C396.672 289.647 396.165 288.82 395.459 288.488C394.753 288.156 393.923 288.185 393.134 288.222ZM146.462 319.693C156.16 317.763 166.167 317.201 176.042 318.03L176.192 318.043C179.411 318.313 182.956 318.611 185.524 316.793C189.103 314.258 188.749 309.241 188.259 305.069C187.134 295.508 187.163 285.828 188.345 276.273C188.525 274.813 187.382 273.436 185.977 272.778C184.572 272.12 182.952 272.025 181.382 271.948C170.074 271.392 158.75 271.123 147.426 271.139C146.692 271.14 146.452 270.086 146.94 269.575C147.427 269.063 148.235 268.977 148.966 268.929C160.159 268.192 171.41 268.241 182.595 269.072C185.765 269.307 189.43 269.898 190.958 272.506C191.742 273.845 191.766 275.445 191.771 276.973L191.879 309.818C191.886 312.201 191.864 314.701 190.639 316.791C187.885 321.49 180.896 321.757 175.176 321.414L146.462 319.693ZM219.171 208.014C231.026 206.358 243.072 206.516 255.105 206.674C269.196 206.859 283.27 207.044 297 204.314C299.214 203.873 300.793 206.233 301.608 208.207C305.926 218.679 309.311 229.449 312.697 240.222C314.626 246.36 316.556 252.499 318.658 258.584C322.617 270.039 327.191 281.311 331.764 292.58L331.765 292.581V292.582C339.081 310.61 346.392 328.626 351.167 347.358C351.519 348.74 351.787 350.388 350.737 351.414C349.92 352.211 348.614 352.304 347.435 352.347C319.319 353.368 291.192 354.096 263.059 354.532C262.399 354.542 261.694 354.54 261.144 354.201C260.562 353.843 260.286 353.193 260.044 352.582C244.964 314.578 232.295 275.738 222.128 236.333C221.88 235.372 221.81 234.064 222.793 233.702C223.964 233.27 224.857 234.723 225.163 235.863C235.403 273.917 247.735 311.478 262.097 348.348C262.37 349.046 262.674 349.784 263.314 350.225C264.023 350.714 264.976 350.721 265.858 350.708L345.376 349.568C345.985 349.559 346.706 349.491 347.006 348.996C347.211 348.655 347.133 348.232 347.047 347.849C343.156 330.401 336.555 313.636 329.961 296.886L329.961 296.886L329.96 296.883C328.268 292.585 326.576 288.288 324.931 283.981C315.681 259.766 307.855 235.1 300.034 210.449C299.382 208.394 296.419 208.148 294.132 208.296C269.232 209.91 244.221 210.018 219.307 208.621C221.336 215.485 223.144 222.406 224.725 229.372C223.001 230.086 221.579 227.946 221.066 226.249L216.58 211.403C216.374 210.722 216.172 209.971 216.487 209.326C216.925 208.429 218.128 208.16 219.171 208.014ZM244.074 221.03C240.871 222.778 238.746 226.485 239.791 229.812C240.361 231.631 241.769 233.134 243.38 234.285C247.017 236.887 251.888 237.915 256.367 237.03C260.847 236.143 264.855 233.358 267.052 229.603C267.66 228.564 267.031 227.275 266.272 226.327C264.453 224.054 261.864 222.39 259.078 221.261C257.724 220.713 256.317 220.282 254.879 219.976C251.262 219.205 247.276 219.281 244.074 221.03ZM263.36 229.307C259.51 234.395 251.202 235.925 245.577 232.581C244.205 231.766 242.952 230.644 242.466 229.195C241.698 226.905 243.121 224.332 245.281 223.037C247.441 221.741 250.151 221.511 252.708 221.718C256.687 222.041 260.621 223.38 263.653 225.809C264.698 226.648 264.155 228.256 263.36 229.307ZM256.9 271.643C260.012 271.627 263.229 271.44 266.007 270.13C268.785 268.82 271.028 266.121 270.777 263.222C270.601 261.198 269.249 259.384 267.527 258.147C264.524 255.99 260.295 255.428 256.769 256.72C254.934 257.391 253.248 258.589 252.418 260.26C251.588 261.931 251.775 264.096 253.163 265.404C254.355 266.525 256.104 266.83 257.793 267.125H257.794C258.042 267.168 258.288 267.211 258.532 267.257C259.033 267.35 259.56 267.472 259.919 267.813C260.278 268.154 260.368 268.783 259.971 269.085C256.737 271.548 251.362 270.474 249.011 267.251C246.661 264.029 247.25 259.39 249.888 256.369C252.527 253.347 256.853 251.879 261.024 251.969C265.308 252.063 269.656 253.8 272.194 257.027C274.732 260.254 275.115 265.005 272.618 268.261C270.971 270.409 268.304 271.726 265.551 272.329C262.798 272.932 259.934 272.89 257.109 272.78L256.9 271.643ZM323.705 295.386C323.348 294.999 322.809 294.809 322.287 294.654C318.51 293.527 314.395 293.411 310.552 294.324C308.256 294.869 306.005 295.81 304.357 297.399C302.71 298.989 301.749 301.305 302.27 303.464C302.857 305.902 305.145 307.677 307.554 308.76C311.128 310.368 315.308 310.853 319.143 309.904C322.977 308.955 326.412 306.534 328.25 303.248C328.629 302.57 328.949 301.823 328.877 301.06C328.804 300.297 328.235 299.53 327.424 299.422C326.311 299.274 325.497 300.299 324.818 301.152L324.762 301.222C321.245 305.639 313.989 306.969 308.949 304.118C308.025 303.596 307.11 302.85 306.981 301.848C306.807 300.511 308.078 299.415 309.31 298.715C313.586 296.285 318.936 295.568 323.77 296.778C324.158 296.417 324.062 295.774 323.705 295.386ZM292.065 326.669C294.68 327.182 297.516 328.351 298.367 330.718C299.074 332.685 298.102 334.92 296.48 336.337C294.858 337.755 292.699 338.496 290.561 339.054C288.587 339.57 286.575 339.958 284.544 340.218L284.749 341.242C288.459 341.453 292.227 340.671 295.493 339.012C298.109 337.683 300.544 335.565 300.992 332.813C301.416 330.202 299.89 327.546 297.646 325.942C295.402 324.337 292.549 323.648 289.737 323.391C283.592 322.831 276.821 324.478 273.091 329.076C272.264 330.096 271.592 331.276 271.482 332.553C271.295 334.718 272.799 336.777 274.758 337.944C276.718 339.112 279.07 339.542 281.373 339.828C282.155 339.925 283.023 339.99 283.66 339.556C284.299 339.123 284.356 337.993 283.605 337.771L278.441 336.241C277.26 335.891 275.981 335.473 275.319 334.494C274.18 332.807 275.55 330.584 277.204 329.323C281.245 326.242 286.961 325.668 292.065 326.669ZM285.17 297.849C285.503 297.254 285.789 296.602 285.734 295.932C285.629 294.633 284.32 293.731 283.065 293.164C277.599 290.696 270.698 291.287 265.802 294.642C265.015 295.181 264.254 295.816 263.873 296.655C263.492 297.494 263.59 298.582 264.331 299.176C264.77 299.527 265.371 299.677 265.959 299.822C266.742 300.017 267.502 300.206 267.825 300.859C268.317 301.858 267.181 302.95 266.036 303.206C263.746 303.717 261.273 302.264 260.397 300.222C259.521 298.179 260.064 295.765 261.404 293.957C262.745 292.148 264.786 290.881 266.941 289.994C271.768 288.006 277.395 287.776 282.388 289.365C284.224 289.949 286.017 290.798 287.312 292.148C288.608 293.496 289.336 295.413 288.842 297.167C288.533 298.266 287.786 299.21 286.984 300.065C282.557 304.786 275.114 307.583 268.93 305.133C269.454 304.137 270.972 304.25 272.154 304.367C277.353 304.885 282.751 302.182 285.17 297.849ZM278.017 233.75C279.049 234.947 280.597 235.662 282.165 236.128C289.083 238.185 297.273 235.633 301.486 230.108C302.959 228.178 303.956 225.537 302.7 223.477C301.596 221.666 299.178 220.992 296.967 220.726C293.398 220.297 289.741 220.516 286.26 221.367C283.26 222.1 280.271 223.389 278.392 225.694C276.513 227.998 276.071 231.495 278.017 233.75ZM286.331 223.265C288.416 222.67 290.57 222.289 292.743 222.131C295.379 221.94 298.659 222.479 299.499 224.824C300.124 226.571 299.001 228.446 297.647 229.786C294.167 233.23 288.795 234.907 283.8 234.109C282.588 233.915 281.351 233.56 280.464 232.764C278.753 231.227 278.954 228.458 280.362 226.674C281.771 224.889 284.061 223.912 286.331 223.265ZM312.348 334.866C315.67 337.385 320.144 338.199 324.422 338.158C327.098 338.132 329.839 337.785 332.188 336.587C334.537 335.39 336.44 333.22 336.665 330.727C336.902 328.117 335.289 325.613 333.167 323.901C331.549 322.596 329.138 321.638 327.33 322.703C326.693 323.079 325.884 322.992 325.128 322.911L324.995 322.896C320.422 322.415 315.662 323.749 312.129 326.506C311.016 327.374 309.976 328.455 309.714 329.789C309.33 331.732 310.707 333.62 312.348 334.866ZM330.679 325.226C332.501 326.086 333.984 327.782 334.014 329.69C334.047 331.722 332.432 333.536 330.473 334.418C328.515 335.3 326.27 335.416 324.096 335.389C321.167 335.353 318.184 335.072 315.499 333.978C313.768 333.272 312.009 331.913 312.106 330.149C312.178 328.816 313.305 327.745 314.484 326.99C317.448 325.095 321.116 324.365 324.707 324.268C326.747 324.214 328.857 324.366 330.679 325.226ZM313.327 261.1C314.034 261.188 314.46 261.875 314.678 262.51C316.058 266.522 313.1 271.081 308.923 272.666C304.746 274.251 299.853 273.317 295.968 271.177C294.227 270.217 292.572 268.957 291.756 267.228C290.042 263.598 292.83 259.186 296.695 257.546C300.56 255.906 305.052 256.364 309.203 257.194C310.907 257.535 312.956 258.307 313.069 259.932C310.252 258.857 307.236 258.24 304.196 258.116C301.294 257.997 298.193 258.397 295.96 260.133C293.726 261.869 292.804 265.258 294.628 267.372C295.365 268.227 296.431 268.772 297.498 269.235C300.248 270.429 303.357 271.227 306.31 270.584C309.264 269.941 311.92 267.5 311.83 264.666C311.823 264.414 311.794 264.16 311.765 263.907C311.71 263.421 311.655 262.936 311.747 262.458C311.888 261.731 312.543 261.002 313.327 261.1ZM210.278 350.68C210.008 339.473 210.593 328.249 212.026 317.119C213.033 309.297 212.776 301.342 212.519 293.407C212.145 281.864 211.773 270.365 215.298 259.388C217.459 289.584 217.098 319.939 214.219 350.083C214.103 351.301 213.95 352.597 213.123 353.544C211.882 354.967 209.64 355.079 207.676 355.073C185.619 355.005 163.562 354.723 141.51 354.226C140.595 354.205 139.53 354.11 139.031 353.392C138.759 353 138.728 352.508 138.705 352.041C137.247 322.322 135.789 292.546 137.475 262.838C137.569 261.19 138.519 258.938 140.207 259.422C141.392 259.763 141.613 261.217 141.615 262.376L141.768 348.378C141.77 349.616 143.521 350.035 144.846 350.071C166.649 350.67 188.466 350.873 210.278 350.68ZM218.212 227.032C218.113 225.931 217.945 224.701 217.02 224.012C216.35 223.513 215.442 223.427 214.589 223.36L177.466 220.456C168.804 219.778 160.134 219.1 151.443 218.988C144.245 218.894 137.042 219.189 129.881 219.869C128.208 220.028 126.41 220.261 125.189 221.341C124.015 222.379 123.644 223.961 123.33 225.442C122.817 227.863 122.302 230.344 122.713 232.782C123.124 235.219 124.657 237.645 127.128 238.512C128.548 239.011 130.113 238.953 131.628 238.89L198.874 236.06C199.733 236.024 200.921 235.569 200.623 234.815C176.833 234.797 153.042 235.551 129.308 237.076C126.519 237.255 125.339 233.809 125.342 231.195C125.345 229.014 125.534 226.766 126.58 224.816C127.625 222.866 129.7 221.267 132.034 221.261C159.862 221.189 187.694 222.609 215.349 225.51C215.963 225.575 216.158 226.308 216.202 226.883L218.107 251.955C218.125 252.198 218.137 252.464 217.983 252.659C217.78 252.918 217.386 252.945 217.044 252.949L134.636 253.872C133.968 253.879 133.245 253.871 132.713 253.492C132.049 253.02 131.918 252.148 131.865 251.369C131.739 249.528 131.746 247.679 131.887 245.838C131.988 244.503 131.542 242.577 130.129 242.792C129.105 242.948 128.803 244.174 128.77 245.143C128.688 247.528 128.826 249.919 129.183 252.281C129.363 253.476 129.659 254.766 130.647 255.543C131.679 256.356 133.158 256.374 134.507 256.352L217.579 254.973C218.531 254.957 219.631 254.872 220.174 254.142C220.573 253.607 220.531 252.898 220.472 252.249L218.212 227.032ZM180.292 281.147C180.915 281.088 181.172 282.001 180.755 282.438C180.337 282.874 179.64 282.927 179.014 282.951L157.48 283.761C156.603 283.794 155.68 283.818 154.901 283.44C154.122 283.062 153.575 282.134 153.968 281.4C154.449 280.504 155.804 280.534 156.866 280.679C164.614 281.739 172.503 281.896 180.292 281.147ZM156.452 291.543C155.218 291.244 153.402 291.209 153.208 292.387C153.033 293.447 154.487 294.017 155.624 294.167C163.092 295.15 170.789 294.58 177.999 292.51C178.521 292.36 178.412 291.551 177.928 291.313C177.445 291.075 176.858 291.22 176.332 291.358C169.878 293.055 162.941 293.12 156.452 291.543Z" fill="#092C4C"/>
<path fill-rule="evenodd" clip-rule="evenodd" d="M57.6057 287.006C60.4062 285.208 64.1412 285.091 67.4045 285.972C70.6679 286.855 73.5636 288.624 76.3694 290.414C87.093 297.253 97.3334 304.755 107.003 312.853C108.88 314.425 110.756 316.041 112.158 318C114.914 321.847 115.426 327.417 112.196 330.928C109.896 333.43 106.126 334.448 102.609 334.176C99.0922 333.903 95.7862 332.493 92.7553 330.802C84.5209 326.209 77.8809 319.522 70.1746 314.188C65.1459 310.708 59.5063 307.66 56.0756 302.769C52.6447 297.877 52.4471 290.316 57.6057 287.006ZM71.4896 291.007C67.9989 289.447 63.6514 288.249 60.4483 290.278C57.4457 292.181 56.8606 296.298 58.2001 299.449C59.5395 302.599 62.3413 304.98 65.138 307.14C68.0555 309.392 71.0693 311.535 74.1704 313.563C74.7085 313.915 75.6476 314.157 75.8534 313.574C77.7337 308.25 81.7973 303.628 87.0208 300.873C82.414 296.879 77.1584 293.541 71.4896 291.007ZM94.8792 323.877C91.0272 321.604 87.1759 319.331 83.3245 317.058C82.5491 316.601 81.2613 316.283 80.9425 317.086C85.6693 320.218 90.5519 323.144 95.5703 325.851C95.992 325.681 96.0863 325.122 95.8805 324.738C95.6747 324.354 95.2673 324.106 94.8792 323.877Z" fill="#092C4C"/>
<path fill-rule="evenodd" clip-rule="evenodd" d="M436.304 156.98C436.699 156.98 437.019 157.279 437.019 157.648V163.994H443.808C444.203 163.994 444.523 164.293 444.523 164.662V168.002C444.523 168.371 444.203 168.67 443.808 168.67H437.019V175.016C437.019 175.385 436.699 175.684 436.304 175.684H432.731C432.336 175.684 432.016 175.385 432.016 175.016V168.67H425.227C424.832 168.67 424.512 168.371 424.512 168.002V164.662C424.512 164.293 424.832 163.994 425.227 163.994H432.016V157.648C432.016 157.279 432.336 156.98 432.731 156.98H436.304Z" fill="#F2994A"/>
<path fill-rule="evenodd" clip-rule="evenodd" d="M464.176 131.596C464.571 131.596 464.891 131.895 464.891 132.264V138.61H471.68C472.075 138.61 472.395 138.909 472.395 139.278V142.618C472.395 142.987 472.075 143.286 471.68 143.286H464.891V149.632C464.891 150.001 464.571 150.3 464.176 150.3H460.603C460.208 150.3 459.888 150.001 459.888 149.632V143.286H453.099C452.704 143.286 452.384 142.987 452.384 142.618V139.278C452.384 138.909 452.704 138.61 453.099 138.61H459.888V132.264C459.888 131.895 460.208 131.596 460.603 131.596H464.176Z" fill="#F2994A"/>
<path fill-rule="evenodd" clip-rule="evenodd" d="M497.051 173.68C497.445 173.68 497.765 173.979 497.765 174.348V180.694H504.555C504.949 180.694 505.269 180.993 505.269 181.362V184.702C505.269 185.071 504.949 185.37 504.555 185.37H497.765V191.716C497.765 192.085 497.445 192.384 497.051 192.384H493.477C493.083 192.384 492.763 192.085 492.763 191.716V185.37H485.973C485.579 185.37 485.259 185.071 485.259 184.702V181.362C485.259 180.993 485.579 180.694 485.973 180.694H492.763V174.348C492.763 173.979 493.083 173.68 493.477 173.68H497.051Z" fill="#F2994A"/>
<path fill-rule="evenodd" clip-rule="evenodd" d="M80.4708 100.2C81.4006 100.2 82.1539 100.251 82.717 100.355L82.8542 100.386L83.8812 100.705C84.4322 100.88 84.816 101.337 84.8717 101.868L84.8789 102.001V108.605L85.2641 108.376C85.8158 108.038 86.4383 107.621 87.2223 107.074L89.2719 105.632C89.7643 105.291 90.1295 105.05 90.5462 104.789C90.8735 104.582 91.2766 104.506 91.6632 104.579C91.9991 104.641 92.2993 104.81 92.5151 105.055L92.6023 105.164L93.0647 105.814L97.3827 112.665C97.5821 112.98 97.6378 113.355 97.5385 113.702C97.4399 114.057 97.1919 114.36 96.851 114.543C96.2385 114.873 95.5739 115.28 94.7627 115.815L93.765 116.487L92.0334 117.669C91.7018 117.893 91.4059 118.09 91.1336 118.268L90.787 118.49L91.2065 118.689C93.1611 119.636 95.0514 120.758 96.6101 121.944L97.0268 122.27L97.4263 122.597C97.9423 123.032 98.0595 123.744 97.7079 124.301L96.9217 125.537C96.613 126.018 96.2635 126.557 95.894 127.121L95.1887 128.187C94.2789 129.55 93.4928 130.672 92.8917 131.448C92.5158 131.931 91.8497 132.129 91.2508 131.952L91.1136 131.903L90.3625 131.603C90.2875 131.571 90.2475 131.553 90.2053 131.53L90.1617 131.505C89.7679 131.277 89.3505 131.044 88.8753 130.788L87.2945 129.953L86.0988 129.324C85.8337 129.183 85.5914 129.052 85.3648 128.929L84.8839 128.664L84.8782 130.725C84.8667 132.507 84.8396 134.063 84.7917 135.171L84.7688 135.639C84.7331 136.322 84.1621 136.868 83.4438 136.934L83.2852 136.94L78.9479 136.819L76.6023 136.765L75.0115 136.74L74.4941 136.821C74.1496 136.875 73.7994 136.812 73.5042 136.651L73.3813 136.575L73.2663 136.489C72.9325 136.21 72.7538 135.806 72.7803 135.392C72.8975 133.509 72.9011 131.938 72.8217 129.865L72.766 128.598L66.1446 132.04C65.5416 132.356 64.7995 132.234 64.344 131.782L64.251 131.68L64.1676 131.567C62.5712 129.171 61.2198 126.71 59.6537 123.351C59.3862 122.778 59.5719 122.115 60.0912 121.733L60.2074 121.656L61.8642 120.667L62.324 120.45C63.3004 119.983 64.7334 119.241 66.3447 118.381L66.7333 118.172L65.554 117.664L64.2815 117.127C64.1445 117.067 64.0013 117.002 63.8154 116.914L62.6971 116.384C62.0894 116.103 61.7063 115.945 61.3631 115.841L61.1605 115.785C61.0791 115.765 61.0004 115.739 60.9239 115.705L60.811 115.651L60.0569 115.249C59.6369 115.024 59.362 114.623 59.3227 114.177C59.2818 113.73 59.4792 113.292 59.852 113.006C60.4717 112.531 60.8942 111.908 61.6555 110.408L62.2157 109.291C63.2049 107.35 63.8505 106.415 64.9905 105.493C65.4418 105.126 66.0805 105.054 66.6111 105.296L66.7414 105.362L72.7095 108.825L72.7102 108.653C72.7081 108.248 72.6909 107.78 72.6616 107.204L72.5923 105.924C72.493 103.92 72.5294 102.902 72.8132 101.707C72.9461 101.144 73.4456 100.718 74.0624 100.643L74.9007 100.55C75.3052 100.507 75.7755 100.461 76.2979 100.415C77.8387 100.28 79.2702 100.2 80.4708 100.2ZM80.3729 102.872C79.0601 102.872 77.4406 102.981 75.8576 103.136L75.4753 103.175L75.4689 103.241L75.4453 103.573C75.4145 104.145 75.4288 104.825 75.4767 105.787L75.556 107.263C75.5625 107.394 75.5675 107.513 75.5725 107.641C75.6325 109.195 75.5703 110.345 75.3052 111.434C75.2001 111.867 74.8793 112.227 74.4455 112.397C74.056 112.551 73.6172 112.537 73.2412 112.366L73.1033 112.295L66.2116 108.244L66.1347 108.341C65.7473 108.841 65.3781 109.475 64.9254 110.375L64.3364 111.567C63.9555 112.328 63.6506 112.894 63.35 113.36L63.2128 113.564L63.3205 113.608C63.5279 113.696 63.7395 113.792 63.9767 113.903L65.3518 114.561L65.7091 114.72L67.3428 115.419L68.1527 115.779L68.4053 115.893C69.389 116.341 70.1156 116.706 70.5697 116.998C70.9833 117.264 71.2232 117.708 71.2072 118.179C71.1913 118.649 70.9214 119.08 70.4887 119.32L69.3347 119.957C68.9284 120.18 68.5014 120.413 68.0571 120.654L66.4047 121.539C65.3067 122.122 64.3838 122.598 63.682 122.937L63.3391 123.1L62.8907 123.372L63.0753 123.759C63.9521 125.582 64.7732 127.121 65.6386 128.561L65.9569 129.083L73.3813 125.175C73.7815 124.964 74.2589 124.944 74.6749 125.111L74.8271 125.183C75.2716 125.423 75.5489 125.865 75.5603 126.348L75.5796 127.008L75.7018 129.785C75.7597 131.289 75.7762 132.527 75.7419 133.823L75.7319 134.119L76.8196 134.14C77.9044 134.163 79.2044 134.195 80.5987 134.235L81.7715 134.268L81.7972 133.097C81.8058 132.592 81.813 132.044 81.818 131.462L81.8287 129.655C81.833 128.231 81.8294 126.935 81.8244 126.195C81.8215 125.678 82.1253 125.203 82.6184 124.963C83.1094 124.726 83.6997 124.768 84.1478 125.073C84.9296 125.608 85.7772 126.117 86.8542 126.71L87.6261 127.129L89.9616 128.374L90.3011 128.559L91.0336 128.969L91.1129 128.859C91.9534 127.663 92.986 126.088 94.0152 124.468L94.3361 123.96L94.296 123.93C92.4572 122.564 89.9616 121.177 87.5639 120.201L87.223 120.065L87.1915 120.062C86.6727 119.972 86.241 119.623 86.0702 119.146L86.0331 119.024C85.878 118.407 86.191 117.769 86.7942 117.48C87.5346 117.127 88.3436 116.649 89.3413 115.991L89.6814 115.765C89.963 115.576 90.2503 115.38 90.6076 115.133L92.4057 113.89C92.9589 113.513 93.3998 113.22 93.8072 112.963L93.9208 112.892L90.7799 107.843L89.908 108.465L89.0504 109.079C86.7063 110.743 85.4706 111.485 83.8255 112.104C83.3745 112.271 82.8642 112.219 82.4626 111.961C82.1074 111.733 81.8794 111.37 81.833 110.974L81.8244 110.823L81.8237 102.943L81.715 102.93C81.4292 102.898 81.0683 102.88 80.6388 102.874L80.3729 102.872Z" fill="#F2994A"/>
</g>
<defs>
<clipPath id="clip0_4_2603">
<rect width="536" height="501" fill="white"/>
</clipPath>
</defs>
</svg>
