<svg width="42" height="39" viewBox="0 0 42 39" fill="none" xmlns="http://www.w3.org/2000/svg">
<g clip-path="url(#clip0_533_1149)">
<path d="M26.875 22.9167H25.4925L25.0025 22.4892C26.7175 20.6842 27.75 18.3408 27.75 15.7917C27.75 10.1075 22.6575 5.5 16.375 5.5C10.0925 5.5 5 10.1075 5 15.7917C5 21.4758 10.0925 26.0833 16.375 26.0833C19.1925 26.0833 21.7825 25.1492 23.7775 23.5975L24.25 24.0408V25.2917L33 33.1925L35.6075 30.8333L26.875 22.9167ZM16.375 22.9167C12.0175 22.9167 8.5 19.7342 8.5 15.7917C8.5 11.8492 12.0175 8.66667 16.375 8.66667C20.7325 8.66667 24.25 11.8492 24.25 15.7917C24.25 19.7342 20.7325 22.9167 16.375 22.9167Z" fill="#828282"/>
</g>
<defs>
<clipPath id="clip0_533_1149">
<rect width="42" height="38" fill="white" transform="translate(0 0.5)"/>
</clipPath>
</defs>
</svg>
